<svg xmlns="http://www.w3.org/2000/svg" xmlns:xlink="http://www.w3.org/1999/xlink" width="330.051" height="331.224" viewBox="0 0 330.051 331.224"><defs><clipPath id="a"><path d="M143.936,101.435c-5.111,2.229-10.961,9.727-15.762,12.5-2.2,1.269-5.214.727-8.218.186-3.174-.572-6.337-1.146-8.509.415-45.59,32.723-74.172,89.072-77.767,140,0,31.371,23.281,71.671,25.68,83,12.906,22.512,30.6,39.1,50.23,51.27,4.682,2.9,16.461,1.174,21.324,3.592,4.526,2.251,5.065,8.379,9.682,10.246,19.478,7.87,36.56,12.766,54.788,15.319,40.979,0,89.779-26.411,128.531-59.372,1.846-2.411,12.986-11.611,14.7-14.123,3.441-5.037-.151-16.046,2.74-21.455,7.123-17.7,15-12.568,18.372-25.968,3.339-13.249.344,10.9,3.083-45.7.859-17.755,3.195-39.715-5.81-46.705.49-13.208-24.622-8.9-22.139-43.648-12.465-16.011-26.494-31.911-47.186-44.794-2.5-1.556-5.845-1.52-9.2-1.487-3.152.034-6.314.066-8.791-1.224-5.114-2.666-9.9-8.74-15.2-10.975-19.936-8.405-38.371-15.769-58.549-15.769-20.346,0-34.784,7.186-52,14.7" transform="translate(-33.68 -86.733)" fill="#fff"/></clipPath><clipPath id="b"><rect width="150.909" height="150.909" fill="#fff"/></clipPath><clipPath id="d"><path d="M190.3,190.3V324.947a325.73,325.73,0,0,0,39.3-28.731c1.846-2.411,12.986-11.611,14.7-14.123,3.441-5.037-.151-16.046,2.74-21.455,7.123-17.7,15-12.568,18.372-25.968,3.313-13.143.391,10.525,3.017-44.368Z" transform="translate(-190.301 -190.302)" fill="#fff"/></clipPath><clipPath id="e"><path d="M190.3,242.03H268.43c.022-.439.043-.884.066-1.333.859-17.755,3.195-39.715-5.81-46.705.49-13.208-24.622-8.9-22.139-43.648-12.465-16.011-26.494-31.911-47.186-44.794a9.14,9.14,0,0,0-3.06-1.15Z" transform="translate(-190.301 -104.399)" fill="#fff"/></clipPath><clipPath id="i"><path d="M101.876,284.49c18.512,7.322,34.95,11.932,52.441,14.38,18.541,0,38.682-5.406,58.77-14.38Z" transform="translate(-101.876 -284.49)" fill="#fff"/></clipPath><clipPath id="j"><path d="M96.112,190.3V332.338c2.264,2.759,3.437,6.537,6.888,7.932.788.319,1.569.63,2.347.939H216.558a258.909,258.909,0,0,0,30.462-16.262V190.3Z" transform="translate(-96.112 -190.302)" fill="#fff"/></clipPath><clipPath id="k"><path d="M105.658,96.112C102.583,97.7,99.276,101,96.112,103.9V247.021H247.021V109.389a30.754,30.754,0,0,0-6.138-.336c-3.152.034-6.314.066-8.791-1.224-5.114-2.666-9.9-8.74-15.2-10.975q-.882-.373-1.761-.742Z" transform="translate(-96.112 -96.112)" fill="#fff"/></clipPath><clipPath id="l"><path d="M102.753,101.435c-.228.1-.453.207-.683.325H211.543c-19.265-8.093-37.206-15.027-56.788-15.027-20.346,0-34.784,7.186-52,14.7" transform="translate(-102.07 -86.733)" fill="#fff"/></clipPath><clipPath id="p"><path d="M33.823,190.3c-.053.62-.1,1.242-.143,1.86,0,31.371,23.281,71.671,25.68,83,12.906,22.512,30.6,39.1,50.23,51.27,4.682,2.9,16.461,1.174,21.324,3.592a8.512,8.512,0,0,1,2.794,2.314V190.3Z" transform="translate(-33.68 -190.302)" fill="#fff"/></clipPath><clipPath id="q"><path d="M128.12,105.357c-2.2,1.269-5.214.727-8.218.186-3.174-.572-6.337-1.146-8.509.415C66.361,138.281,37.92,193.664,33.769,244.094h99.885V100.972a34.518,34.518,0,0,1-5.534,4.385" transform="translate(-33.769 -100.972)" fill="#fff"/></clipPath></defs><g transform="translate(-33.68 -86.733)" opacity="0.6"><g transform="translate(33.68 86.733)"><g clip-path="url(#a)"><g transform="translate(250.937 316.846)"><g clip-path="url(#b)"><g transform="translate(0 -0.002)"><g clip-path="url(#b)"><path d="M194.538,285.647a3.079,3.079,0,1,0-3.079,3.079,3.079,3.079,0,0,0,3.079-3.079" transform="translate(-191.458 -285.647)" fill="#fff"/><path d="M207.994,285.647a3.079,3.079,0,1,0-3.079,3.079,3.079,3.079,0,0,0,3.079-3.079" transform="translate(-183.355 -285.647)" fill="#fff"/><path d="M221.45,285.647a3.08,3.08,0,1,0-3.081,3.079,3.081,3.081,0,0,0,3.081-3.079" transform="translate(-175.253 -285.647)" fill="#fff"/><path d="M234.9,285.647a3.079,3.079,0,1,0-3.079,3.079,3.079,3.079,0,0,0,3.079-3.079" transform="translate(-167.15 -285.647)" fill="#fff"/></g></g></g></g></g></g><g transform="translate(284.617 252.67)"><g clip-path="url(#d)"><path d="M194.538,285.647a3.079,3.079,0,1,0-3.079,3.079,3.079,3.079,0,0,0,3.079-3.079" transform="translate(-191.458 -134.74)" fill="#fff"/><path d="M207.994,285.647a3.079,3.079,0,1,0-3.079,3.079,3.079,3.079,0,0,0,3.079-3.079" transform="translate(-183.355 -134.74)" fill="#fff"/><path d="M221.45,285.647a3.08,3.08,0,1,0-3.081,3.079,3.081,3.081,0,0,0,3.081-3.079" transform="translate(-175.253 -134.74)" fill="#fff"/><path d="M234.9,285.647a3.079,3.079,0,1,0-3.079,3.079,3.079,3.079,0,0,0,3.079-3.079" transform="translate(-167.15 -134.74)" fill="#fff"/><path d="M194.538,272.192a3.079,3.079,0,1,0-3.079,3.079,3.079,3.079,0,0,0,3.079-3.079" transform="translate(-191.458 -142.843)" fill="#fff"/><path d="M207.994,272.192a3.079,3.079,0,1,0-3.079,3.079,3.079,3.079,0,0,0,3.079-3.079" transform="translate(-183.355 -142.843)" fill="#fff"/><path d="M221.45,272.192a3.08,3.08,0,1,0-3.081,3.079,3.081,3.081,0,0,0,3.081-3.079" transform="translate(-175.253 -142.843)" fill="#fff"/><path d="M234.9,272.192a3.079,3.079,0,1,0-3.079,3.079,3.079,3.079,0,0,0,3.079-3.079" transform="translate(-167.15 -142.843)" fill="#fff"/><path d="M194.538,258.736a3.079,3.079,0,1,0-3.079,3.079,3.079,3.079,0,0,0,3.079-3.079" transform="translate(-191.458 -150.946)" fill="#fff"/><path d="M207.994,258.736a3.079,3.079,0,1,0-3.079,3.079,3.079,3.079,0,0,0,3.079-3.079" transform="translate(-183.355 -150.946)" fill="#fff"/><path d="M221.45,258.736a3.08,3.08,0,1,0-3.081,3.079,3.081,3.081,0,0,0,3.081-3.079" transform="translate(-175.253 -150.946)" fill="#fff"/><path d="M234.9,258.736a3.079,3.079,0,1,0-3.079,3.079,3.079,3.079,0,0,0,3.079-3.079" transform="translate(-167.15 -150.946)" fill="#fff"/><path d="M194.538,245.28a3.079,3.079,0,1,0-3.079,3.081,3.079,3.079,0,0,0,3.079-3.081" transform="translate(-191.458 -159.049)" fill="#fff"/><path d="M207.994,245.28a3.079,3.079,0,1,0-3.079,3.081,3.079,3.079,0,0,0,3.079-3.081" transform="translate(-183.355 -159.049)" fill="#fff"/><path d="M221.45,245.28a3.08,3.08,0,1,0-3.081,3.081,3.081,3.081,0,0,0,3.081-3.081" transform="translate(-175.253 -159.049)" fill="#fff"/><path d="M234.9,245.28a3.079,3.079,0,1,0-3.079,3.081,3.079,3.079,0,0,0,3.079-3.081" transform="translate(-167.15 -159.049)" fill="#fff"/><path d="M194.538,231.825a3.079,3.079,0,1,0-3.079,3.079,3.079,3.079,0,0,0,3.079-3.079" transform="translate(-191.458 -167.151)" fill="#fff"/><path d="M207.994,231.825a3.079,3.079,0,1,0-3.079,3.079,3.079,3.079,0,0,0,3.079-3.079" transform="translate(-183.355 -167.151)" fill="#fff"/><path d="M221.45,231.825a3.08,3.08,0,1,0-3.081,3.079,3.081,3.081,0,0,0,3.081-3.079" transform="translate(-175.253 -167.151)" fill="#fff"/><path d="M234.9,231.825a3.079,3.079,0,1,0-3.079,3.079,3.079,3.079,0,0,0,3.079-3.079" transform="translate(-167.15 -167.151)" fill="#fff"/><path d="M194.538,218.369a3.079,3.079,0,1,0-3.079,3.079,3.079,3.079,0,0,0,3.079-3.079" transform="translate(-191.458 -175.254)" fill="#fff"/><path d="M207.994,218.369a3.079,3.079,0,1,0-3.079,3.079,3.079,3.079,0,0,0,3.079-3.079" transform="translate(-183.355 -175.254)" fill="#fff"/><path d="M221.45,218.369a3.08,3.08,0,1,0-3.081,3.079,3.081,3.081,0,0,0,3.081-3.079" transform="translate(-175.253 -175.254)" fill="#fff"/><path d="M234.9,218.369a3.079,3.079,0,1,0-3.079,3.079,3.079,3.079,0,0,0,3.079-3.079" transform="translate(-167.15 -175.254)" fill="#fff"/><path d="M194.538,204.914a3.079,3.079,0,1,0-3.079,3.079,3.079,3.079,0,0,0,3.079-3.079" transform="translate(-191.458 -183.357)" fill="#fff"/><path d="M207.994,204.914a3.079,3.079,0,1,0-3.079,3.079,3.079,3.079,0,0,0,3.079-3.079" transform="translate(-183.355 -183.357)" fill="#fff"/><path d="M221.45,204.914a3.08,3.08,0,1,0-3.081,3.079,3.081,3.081,0,0,0,3.081-3.079" transform="translate(-175.253 -183.357)" fill="#fff"/><path d="M234.9,204.914a3.079,3.079,0,1,0-3.079,3.079,3.079,3.079,0,0,0,3.079-3.079" transform="translate(-167.15 -183.357)" fill="#fff"/><path d="M194.538,191.458a3.079,3.079,0,1,0-3.079,3.079,3.079,3.079,0,0,0,3.079-3.079" transform="translate(-191.458 -191.46)" fill="#fff"/><path d="M207.994,191.458a3.079,3.079,0,1,0-3.079,3.079,3.079,3.079,0,0,0,3.079-3.079" transform="translate(-183.355 -191.46)" fill="#fff"/><path d="M221.45,191.458a3.08,3.08,0,1,0-3.081,3.079,3.081,3.081,0,0,0,3.081-3.079" transform="translate(-175.253 -191.46)" fill="#fff"/><path d="M234.9,191.458a3.079,3.079,0,1,0-3.079,3.079,3.079,3.079,0,0,0,3.079-3.079" transform="translate(-167.15 -191.46)" fill="#fff"/></g></g><g transform="translate(284.617 115.037)"><g clip-path="url(#e)"><path d="M194.538,191.458a3.079,3.079,0,1,0-3.079,3.079,3.079,3.079,0,0,0,3.079-3.079" transform="translate(-191.458 -53.827)" fill="#fff"/><path d="M207.994,191.458a3.079,3.079,0,1,0-3.079,3.079,3.079,3.079,0,0,0,3.079-3.079" transform="translate(-183.355 -53.827)" fill="#fff"/><path d="M221.45,191.458a3.08,3.08,0,1,0-3.081,3.079,3.081,3.081,0,0,0,3.081-3.079" transform="translate(-175.253 -53.827)" fill="#fff"/><path d="M234.9,191.458a3.079,3.079,0,1,0-3.079,3.079,3.079,3.079,0,0,0,3.079-3.079" transform="translate(-167.15 -53.827)" fill="#fff"/><path d="M194.538,178a3.079,3.079,0,1,0-3.079,3.079A3.079,3.079,0,0,0,194.538,178" transform="translate(-191.458 -61.93)" fill="#fff"/><path d="M207.994,178a3.079,3.079,0,1,0-3.079,3.079A3.079,3.079,0,0,0,207.994,178" transform="translate(-183.355 -61.93)" fill="#fff"/><path d="M221.45,178a3.08,3.08,0,1,0-3.081,3.079A3.081,3.081,0,0,0,221.45,178" transform="translate(-175.253 -61.93)" fill="#fff"/><path d="M234.9,178a3.079,3.079,0,1,0-3.079,3.079A3.079,3.079,0,0,0,234.9,178" transform="translate(-167.15 -61.93)" fill="#fff"/><path d="M194.538,164.547a3.079,3.079,0,1,0-3.079,3.079,3.079,3.079,0,0,0,3.079-3.079" transform="translate(-191.458 -70.033)" fill="#fff"/><path d="M207.994,164.547a3.079,3.079,0,1,0-3.079,3.079,3.079,3.079,0,0,0,3.079-3.079" transform="translate(-183.355 -70.033)" fill="#fff"/><path d="M221.45,164.547a3.08,3.08,0,1,0-3.081,3.079,3.081,3.081,0,0,0,3.081-3.079" transform="translate(-175.253 -70.033)" fill="#fff"/><path d="M234.9,164.547a3.079,3.079,0,1,0-3.079,3.079,3.079,3.079,0,0,0,3.079-3.079" transform="translate(-167.15 -70.033)" fill="#fff"/><path d="M194.538,151.091a3.079,3.079,0,1,0-3.079,3.079,3.079,3.079,0,0,0,3.079-3.079" transform="translate(-191.458 -78.136)" fill="#fff"/><path d="M207.994,151.091a3.079,3.079,0,1,0-3.079,3.079,3.079,3.079,0,0,0,3.079-3.079" transform="translate(-183.355 -78.136)" fill="#fff"/><path d="M221.45,151.091a3.08,3.08,0,1,0-3.081,3.079,3.081,3.081,0,0,0,3.081-3.079" transform="translate(-175.253 -78.136)" fill="#fff"/><path d="M234.9,151.091a3.079,3.079,0,1,0-3.079,3.079,3.079,3.079,0,0,0,3.079-3.079" transform="translate(-167.15 -78.136)" fill="#fff"/><path d="M194.538,137.635a3.079,3.079,0,1,0-3.079,3.079,3.079,3.079,0,0,0,3.079-3.079" transform="translate(-191.458 -86.239)" fill="#fff"/><path d="M207.994,137.635a3.079,3.079,0,1,0-3.079,3.079,3.079,3.079,0,0,0,3.079-3.079" transform="translate(-183.355 -86.239)" fill="#fff"/><path d="M221.45,137.635a3.08,3.08,0,1,0-3.081,3.079,3.081,3.081,0,0,0,3.081-3.079" transform="translate(-175.253 -86.239)" fill="#fff"/><path d="M234.9,137.635a3.079,3.079,0,1,0-3.079,3.079,3.079,3.079,0,0,0,3.079-3.079" transform="translate(-167.15 -86.239)" fill="#fff"/><path d="M194.538,124.18a3.079,3.079,0,1,0-3.079,3.079,3.079,3.079,0,0,0,3.079-3.079" transform="translate(-191.458 -94.341)" fill="#fff"/><path d="M207.994,124.18a3.079,3.079,0,1,0-3.079,3.079,3.079,3.079,0,0,0,3.079-3.079" transform="translate(-183.355 -94.341)" fill="#fff"/><path d="M221.45,124.18a3.08,3.08,0,1,0-3.081,3.079,3.081,3.081,0,0,0,3.081-3.079" transform="translate(-175.253 -94.341)" fill="#fff"/><path d="M234.9,124.18a3.079,3.079,0,1,0-3.079,3.079,3.079,3.079,0,0,0,3.079-3.079" transform="translate(-167.15 -94.341)" fill="#fff"/><path d="M194.538,110.724a3.079,3.079,0,1,0-3.079,3.079,3.079,3.079,0,0,0,3.079-3.079" transform="translate(-191.458 -102.444)" fill="#fff"/><path d="M207.994,110.724a3.079,3.079,0,1,0-3.079,3.079,3.079,3.079,0,0,0,3.079-3.079" transform="translate(-183.355 -102.444)" fill="#fff"/><path d="M221.45,110.724a3.08,3.08,0,1,0-3.081,3.079,3.081,3.081,0,0,0,3.081-3.079" transform="translate(-175.253 -102.444)" fill="#fff"/><path d="M234.9,110.724a3.079,3.079,0,1,0-3.079,3.079,3.079,3.079,0,0,0,3.079-3.079" transform="translate(-167.15 -102.444)" fill="#fff"/><path d="M194.538,97.269a3.079,3.079,0,1,0-3.079,3.079,3.079,3.079,0,0,0,3.079-3.079" transform="translate(-191.458 -110.547)" fill="#fff"/><path d="M207.994,97.269a3.079,3.079,0,1,0-3.079,3.079,3.079,3.079,0,0,0,3.079-3.079" transform="translate(-183.355 -110.547)" fill="#fff"/><path d="M221.45,97.269a3.08,3.08,0,1,0-3.081,3.079,3.081,3.081,0,0,0,3.081-3.079" transform="translate(-175.253 -110.547)" fill="#fff"/><path d="M234.9,97.269a3.079,3.079,0,1,0-3.079,3.079,3.079,3.079,0,0,0,3.079-3.079" transform="translate(-167.15 -110.547)" fill="#fff"/></g></g><g transform="translate(33.68 86.733)"><g clip-path="url(#a)"><g transform="translate(250.937 -135.882)"><g transform="translate(0 0)" clip-path="url(#b)"><g transform="translate(0 -0.002)"><g clip-path="url(#b)"><path d="M194.538,97.269a3.079,3.079,0,1,0-3.079,3.079,3.079,3.079,0,0,0,3.079-3.079" transform="translate(-191.458 53.641)" fill="#fff"/><path d="M207.994,97.269a3.079,3.079,0,1,0-3.079,3.079,3.079,3.079,0,0,0,3.079-3.079" transform="translate(-183.355 53.641)" fill="#fff"/><path d="M221.45,97.269a3.08,3.08,0,1,0-3.081,3.079,3.081,3.081,0,0,0,3.081-3.079" transform="translate(-175.253 53.641)" fill="#fff"/><path d="M234.9,97.269a3.079,3.079,0,1,0-3.079,3.079,3.079,3.079,0,0,0,3.079-3.079" transform="translate(-167.15 53.641)" fill="#fff"/></g></g></g></g></g></g><g transform="translate(142.943 403.577)"><g clip-path="url(#i)"><path d="M194.538,285.647a3.079,3.079,0,1,0-3.079,3.079,3.079,3.079,0,0,0,3.079-3.079" transform="translate(-49.785 -285.647)" fill="#fff"/><path d="M100.349,285.647a3.079,3.079,0,1,0-3.079,3.079,3.079,3.079,0,0,0,3.079-3.079" transform="translate(-106.504 -285.647)" fill="#fff"/><path d="M113.8,285.647a3.079,3.079,0,1,0-3.081,3.079,3.08,3.08,0,0,0,3.081-3.079" transform="translate(-98.401 -285.647)" fill="#fff"/><path d="M127.26,285.647a3.079,3.079,0,1,0-3.079,3.079,3.079,3.079,0,0,0,3.079-3.079" transform="translate(-90.299 -285.647)" fill="#fff"/><path d="M140.716,285.647a3.079,3.079,0,1,0-3.079,3.079,3.079,3.079,0,0,0,3.079-3.079" transform="translate(-82.196 -285.647)" fill="#fff"/><path d="M154.171,285.647a3.079,3.079,0,1,0-3.079,3.079,3.079,3.079,0,0,0,3.079-3.079" transform="translate(-74.093 -285.647)" fill="#fff"/><path d="M167.627,285.647a3.079,3.079,0,1,0-3.079,3.079,3.079,3.079,0,0,0,3.079-3.079" transform="translate(-65.99 -285.647)" fill="#fff"/><path d="M181.083,285.647A3.079,3.079,0,1,0,178,288.727a3.079,3.079,0,0,0,3.079-3.079" transform="translate(-57.887 -285.647)" fill="#fff"/><path d="M194.538,285.647a3.079,3.079,0,1,0-3.079,3.079,3.079,3.079,0,0,0,3.079-3.079" transform="translate(-49.785 -285.647)" fill="#fff"/></g></g><g transform="translate(133.708 252.67)"><g clip-path="url(#j)"><path d="M194.538,285.647a3.079,3.079,0,1,0-3.079,3.079,3.079,3.079,0,0,0,3.079-3.079" transform="translate(-40.55 -134.74)" fill="#fff"/><path d="M194.538,272.192a3.079,3.079,0,1,0-3.079,3.079,3.079,3.079,0,0,0,3.079-3.079" transform="translate(-40.55 -142.843)" fill="#fff"/><path d="M194.538,258.736a3.079,3.079,0,1,0-3.079,3.079,3.079,3.079,0,0,0,3.079-3.079" transform="translate(-40.55 -150.946)" fill="#fff"/><path d="M194.538,245.28a3.079,3.079,0,1,0-3.079,3.081,3.079,3.079,0,0,0,3.079-3.081" transform="translate(-40.55 -159.049)" fill="#fff"/><path d="M194.538,231.825a3.079,3.079,0,1,0-3.079,3.079,3.079,3.079,0,0,0,3.079-3.079" transform="translate(-40.55 -167.151)" fill="#fff"/><path d="M194.538,218.369a3.079,3.079,0,1,0-3.079,3.079,3.079,3.079,0,0,0,3.079-3.079" transform="translate(-40.55 -175.254)" fill="#fff"/><path d="M194.538,204.914a3.079,3.079,0,1,0-3.079,3.079,3.079,3.079,0,0,0,3.079-3.079" transform="translate(-40.55 -183.357)" fill="#fff"/><path d="M194.538,191.458a3.079,3.079,0,1,0-3.079,3.079,3.079,3.079,0,0,0,3.079-3.079" transform="translate(-40.55 -191.46)" fill="#fff"/><path d="M100.349,285.647a3.079,3.079,0,1,0-3.079,3.079,3.079,3.079,0,0,0,3.079-3.079" transform="translate(-97.269 -134.74)" fill="#fff"/><path d="M113.8,285.647a3.079,3.079,0,1,0-3.081,3.079,3.08,3.08,0,0,0,3.081-3.079" transform="translate(-89.166 -134.74)" fill="#fff"/><path d="M127.26,285.647a3.079,3.079,0,1,0-3.079,3.079,3.079,3.079,0,0,0,3.079-3.079" transform="translate(-81.064 -134.74)" fill="#fff"/><path d="M140.716,285.647a3.079,3.079,0,1,0-3.079,3.079,3.079,3.079,0,0,0,3.079-3.079" transform="translate(-72.961 -134.74)" fill="#fff"/><path d="M154.171,285.647a3.079,3.079,0,1,0-3.079,3.079,3.079,3.079,0,0,0,3.079-3.079" transform="translate(-64.858 -134.74)" fill="#fff"/><path d="M167.627,285.647a3.079,3.079,0,1,0-3.079,3.079,3.079,3.079,0,0,0,3.079-3.079" transform="translate(-56.755 -134.74)" fill="#fff"/><path d="M181.083,285.647A3.079,3.079,0,1,0,178,288.727a3.079,3.079,0,0,0,3.079-3.079" transform="translate(-48.652 -134.74)" fill="#fff"/><path d="M194.538,285.647a3.079,3.079,0,1,0-3.079,3.079,3.079,3.079,0,0,0,3.079-3.079" transform="translate(-40.55 -134.74)" fill="#fff"/><path d="M100.349,272.192a3.079,3.079,0,1,0-3.079,3.079,3.079,3.079,0,0,0,3.079-3.079" transform="translate(-97.269 -142.843)" fill="#fff"/><path d="M113.8,272.192a3.079,3.079,0,1,0-3.081,3.079,3.08,3.08,0,0,0,3.081-3.079" transform="translate(-89.166 -142.843)" fill="#fff"/><path d="M127.26,272.192a3.079,3.079,0,1,0-3.079,3.079,3.079,3.079,0,0,0,3.079-3.079" transform="translate(-81.064 -142.843)" fill="#fff"/><path d="M140.716,272.192a3.079,3.079,0,1,0-3.079,3.079,3.079,3.079,0,0,0,3.079-3.079" transform="translate(-72.961 -142.843)" fill="#fff"/><path d="M154.171,272.192a3.079,3.079,0,1,0-3.079,3.079,3.079,3.079,0,0,0,3.079-3.079" transform="translate(-64.858 -142.843)" fill="#fff"/><path d="M167.627,272.192a3.079,3.079,0,1,0-3.079,3.079,3.079,3.079,0,0,0,3.079-3.079" transform="translate(-56.755 -142.843)" fill="#fff"/><path d="M181.083,272.192A3.079,3.079,0,1,0,178,275.272a3.079,3.079,0,0,0,3.079-3.079" transform="translate(-48.652 -142.843)" fill="#fff"/><path d="M194.538,272.192a3.079,3.079,0,1,0-3.079,3.079,3.079,3.079,0,0,0,3.079-3.079" transform="translate(-40.55 -142.843)" fill="#fff"/><path d="M100.349,258.736a3.079,3.079,0,1,0-3.079,3.079,3.079,3.079,0,0,0,3.079-3.079" transform="translate(-97.269 -150.946)" fill="#fff"/><path d="M113.8,258.736a3.079,3.079,0,1,0-3.081,3.079,3.08,3.08,0,0,0,3.081-3.079" transform="translate(-89.166 -150.946)" fill="#fff"/><path d="M127.26,258.736a3.079,3.079,0,1,0-3.079,3.079,3.079,3.079,0,0,0,3.079-3.079" transform="translate(-81.064 -150.946)" fill="#fff"/><path d="M140.716,258.736a3.079,3.079,0,1,0-3.079,3.079,3.079,3.079,0,0,0,3.079-3.079" transform="translate(-72.961 -150.946)" fill="#fff"/><path d="M154.171,258.736a3.079,3.079,0,1,0-3.079,3.079,3.079,3.079,0,0,0,3.079-3.079" transform="translate(-64.858 -150.946)" fill="#fff"/><path d="M167.627,258.736a3.079,3.079,0,1,0-3.079,3.079,3.079,3.079,0,0,0,3.079-3.079" transform="translate(-56.755 -150.946)" fill="#fff"/><path d="M181.083,258.736A3.079,3.079,0,1,0,178,261.816a3.079,3.079,0,0,0,3.079-3.079" transform="translate(-48.652 -150.946)" fill="#fff"/><path d="M194.538,258.736a3.079,3.079,0,1,0-3.079,3.079,3.079,3.079,0,0,0,3.079-3.079" transform="translate(-40.55 -150.946)" fill="#fff"/><path d="M100.349,245.28a3.079,3.079,0,1,0-3.079,3.081,3.079,3.079,0,0,0,3.079-3.081" transform="translate(-97.269 -159.049)" fill="#fff"/><path d="M113.8,245.28a3.079,3.079,0,1,0-3.081,3.081,3.08,3.08,0,0,0,3.081-3.081" transform="translate(-89.166 -159.049)" fill="#fff"/><path d="M127.26,245.28a3.079,3.079,0,1,0-3.079,3.081,3.079,3.079,0,0,0,3.079-3.081" transform="translate(-81.064 -159.049)" fill="#fff"/><path d="M140.716,245.28a3.079,3.079,0,1,0-3.079,3.081,3.079,3.079,0,0,0,3.079-3.081" transform="translate(-72.961 -159.049)" fill="#fff"/><path d="M154.171,245.28a3.079,3.079,0,1,0-3.079,3.081,3.079,3.079,0,0,0,3.079-3.081" transform="translate(-64.858 -159.049)" fill="#fff"/><path d="M167.627,245.28a3.079,3.079,0,1,0-3.079,3.081,3.079,3.079,0,0,0,3.079-3.081" transform="translate(-56.755 -159.049)" fill="#fff"/><path d="M181.083,245.28A3.079,3.079,0,1,0,178,248.361a3.079,3.079,0,0,0,3.079-3.081" transform="translate(-48.652 -159.049)" fill="#fff"/><path d="M194.538,245.28a3.079,3.079,0,1,0-3.079,3.081,3.079,3.079,0,0,0,3.079-3.081" transform="translate(-40.55 -159.049)" fill="#fff"/><path d="M100.349,231.825a3.079,3.079,0,1,0-3.079,3.079,3.079,3.079,0,0,0,3.079-3.079" transform="translate(-97.269 -167.151)" fill="#fff"/><path d="M113.8,231.825a3.079,3.079,0,1,0-3.081,3.079,3.08,3.08,0,0,0,3.081-3.079" transform="translate(-89.166 -167.151)" fill="#fff"/><path d="M127.26,231.825a3.079,3.079,0,1,0-3.079,3.079,3.079,3.079,0,0,0,3.079-3.079" transform="translate(-81.064 -167.151)" fill="#fff"/><path d="M140.716,231.825a3.079,3.079,0,1,0-3.079,3.079,3.079,3.079,0,0,0,3.079-3.079" transform="translate(-72.961 -167.151)" fill="#fff"/><path d="M154.171,231.825a3.079,3.079,0,1,0-3.079,3.079,3.079,3.079,0,0,0,3.079-3.079" transform="translate(-64.858 -167.151)" fill="#fff"/><path d="M167.627,231.825a3.079,3.079,0,1,0-3.079,3.079,3.079,3.079,0,0,0,3.079-3.079" transform="translate(-56.755 -167.151)" fill="#fff"/><path d="M181.083,231.825A3.079,3.079,0,1,0,178,234.9a3.079,3.079,0,0,0,3.079-3.079" transform="translate(-48.652 -167.151)" fill="#fff"/><path d="M194.538,231.825a3.079,3.079,0,1,0-3.079,3.079,3.079,3.079,0,0,0,3.079-3.079" transform="translate(-40.55 -167.151)" fill="#fff"/><path d="M100.349,218.369a3.079,3.079,0,1,0-3.079,3.079,3.079,3.079,0,0,0,3.079-3.079" transform="translate(-97.269 -175.254)" fill="#fff"/><path d="M113.8,218.369a3.079,3.079,0,1,0-3.081,3.079,3.08,3.08,0,0,0,3.081-3.079" transform="translate(-89.166 -175.254)" fill="#fff"/><path d="M127.26,218.369a3.079,3.079,0,1,0-3.079,3.079,3.079,3.079,0,0,0,3.079-3.079" transform="translate(-81.064 -175.254)" fill="#fff"/><path d="M140.716,218.369a3.079,3.079,0,1,0-3.079,3.079,3.079,3.079,0,0,0,3.079-3.079" transform="translate(-72.961 -175.254)" fill="#fff"/><path d="M154.171,218.369a3.079,3.079,0,1,0-3.079,3.079,3.079,3.079,0,0,0,3.079-3.079" transform="translate(-64.858 -175.254)" fill="#fff"/><path d="M167.627,218.369a3.079,3.079,0,1,0-3.079,3.079,3.079,3.079,0,0,0,3.079-3.079" transform="translate(-56.755 -175.254)" fill="#fff"/><path d="M181.083,218.369A3.079,3.079,0,1,0,178,221.449a3.079,3.079,0,0,0,3.079-3.079" transform="translate(-48.652 -175.254)" fill="#fff"/><path d="M194.538,218.369a3.079,3.079,0,1,0-3.079,3.079,3.079,3.079,0,0,0,3.079-3.079" transform="translate(-40.55 -175.254)" fill="#fff"/><path d="M100.349,204.914a3.079,3.079,0,1,0-3.079,3.079,3.079,3.079,0,0,0,3.079-3.079" transform="translate(-97.269 -183.357)" fill="#fff"/><path d="M113.8,204.914a3.079,3.079,0,1,0-3.081,3.079,3.08,3.08,0,0,0,3.081-3.079" transform="translate(-89.166 -183.357)" fill="#fff"/><path d="M127.26,204.914a3.079,3.079,0,1,0-3.079,3.079,3.079,3.079,0,0,0,3.079-3.079" transform="translate(-81.064 -183.357)" fill="#fff"/><path d="M140.716,204.914a3.079,3.079,0,1,0-3.079,3.079,3.079,3.079,0,0,0,3.079-3.079" transform="translate(-72.961 -183.357)" fill="#fff"/><path d="M154.171,204.914a3.079,3.079,0,1,0-3.079,3.079,3.079,3.079,0,0,0,3.079-3.079" transform="translate(-64.858 -183.357)" fill="#fff"/><path d="M167.627,204.914a3.079,3.079,0,1,0-3.079,3.079,3.079,3.079,0,0,0,3.079-3.079" transform="translate(-56.755 -183.357)" fill="#fff"/><path d="M181.083,204.914A3.079,3.079,0,1,0,178,207.994a3.079,3.079,0,0,0,3.079-3.079" transform="translate(-48.652 -183.357)" fill="#fff"/><path d="M194.538,204.914a3.079,3.079,0,1,0-3.079,3.079,3.079,3.079,0,0,0,3.079-3.079" transform="translate(-40.55 -183.357)" fill="#fff"/><path d="M100.349,191.458a3.079,3.079,0,1,0-3.079,3.079,3.079,3.079,0,0,0,3.079-3.079" transform="translate(-97.269 -191.46)" fill="#fff"/><path d="M113.8,191.458a3.079,3.079,0,1,0-3.081,3.079,3.08,3.08,0,0,0,3.081-3.079" transform="translate(-89.166 -191.46)" fill="#fff"/><path d="M127.26,191.458a3.079,3.079,0,1,0-3.079,3.079,3.079,3.079,0,0,0,3.079-3.079" transform="translate(-81.064 -191.46)" fill="#fff"/><path d="M140.716,191.458a3.079,3.079,0,1,0-3.079,3.079,3.079,3.079,0,0,0,3.079-3.079" transform="translate(-72.961 -191.46)" fill="#fff"/><path d="M154.171,191.458a3.079,3.079,0,1,0-3.079,3.079,3.079,3.079,0,0,0,3.079-3.079" transform="translate(-64.858 -191.46)" fill="#fff"/><path d="M167.627,191.458a3.079,3.079,0,1,0-3.079,3.079,3.079,3.079,0,0,0,3.079-3.079" transform="translate(-56.755 -191.46)" fill="#fff"/><path d="M181.083,191.458A3.079,3.079,0,1,0,178,194.538a3.079,3.079,0,0,0,3.079-3.079" transform="translate(-48.652 -191.46)" fill="#fff"/><path d="M194.538,191.458a3.079,3.079,0,1,0-3.079,3.079,3.079,3.079,0,0,0,3.079-3.079" transform="translate(-40.55 -191.46)" fill="#fff"/></g></g><g transform="translate(133.708 101.76)"><g clip-path="url(#k)"><path d="M194.538,191.458a3.079,3.079,0,1,0-3.079,3.079,3.079,3.079,0,0,0,3.079-3.079" transform="translate(-40.55 -40.55)" fill="#fff"/><path d="M194.538,178a3.079,3.079,0,1,0-3.079,3.079A3.079,3.079,0,0,0,194.538,178" transform="translate(-40.55 -48.653)" fill="#fff"/><path d="M194.538,164.547a3.079,3.079,0,1,0-3.079,3.079,3.079,3.079,0,0,0,3.079-3.079" transform="translate(-40.55 -56.755)" fill="#fff"/><path d="M194.538,151.091a3.079,3.079,0,1,0-3.079,3.079,3.079,3.079,0,0,0,3.079-3.079" transform="translate(-40.55 -64.858)" fill="#fff"/><path d="M194.538,137.635a3.079,3.079,0,1,0-3.079,3.079,3.079,3.079,0,0,0,3.079-3.079" transform="translate(-40.55 -72.961)" fill="#fff"/><path d="M194.538,124.18a3.079,3.079,0,1,0-3.079,3.079,3.079,3.079,0,0,0,3.079-3.079" transform="translate(-40.55 -81.064)" fill="#fff"/><path d="M194.538,110.724a3.079,3.079,0,1,0-3.079,3.079,3.079,3.079,0,0,0,3.079-3.079" transform="translate(-40.55 -89.167)" fill="#fff"/><path d="M194.538,97.269a3.079,3.079,0,1,0-3.079,3.079,3.079,3.079,0,0,0,3.079-3.079" transform="translate(-40.55 -97.269)" fill="#fff"/><path d="M100.349,191.458a3.079,3.079,0,1,0-3.079,3.079,3.079,3.079,0,0,0,3.079-3.079" transform="translate(-97.269 -40.55)" fill="#fff"/><path d="M113.8,191.458a3.079,3.079,0,1,0-3.081,3.079,3.08,3.08,0,0,0,3.081-3.079" transform="translate(-89.166 -40.55)" fill="#fff"/><path d="M127.26,191.458a3.079,3.079,0,1,0-3.079,3.079,3.079,3.079,0,0,0,3.079-3.079" transform="translate(-81.064 -40.55)" fill="#fff"/><path d="M140.716,191.458a3.079,3.079,0,1,0-3.079,3.079,3.079,3.079,0,0,0,3.079-3.079" transform="translate(-72.961 -40.55)" fill="#fff"/><path d="M154.171,191.458a3.079,3.079,0,1,0-3.079,3.079,3.079,3.079,0,0,0,3.079-3.079" transform="translate(-64.858 -40.55)" fill="#fff"/><path d="M167.627,191.458a3.079,3.079,0,1,0-3.079,3.079,3.079,3.079,0,0,0,3.079-3.079" transform="translate(-56.755 -40.55)" fill="#fff"/><path d="M181.083,191.458A3.079,3.079,0,1,0,178,194.538a3.079,3.079,0,0,0,3.079-3.079" transform="translate(-48.652 -40.55)" fill="#fff"/><path d="M194.538,191.458a3.079,3.079,0,1,0-3.079,3.079,3.079,3.079,0,0,0,3.079-3.079" transform="translate(-40.55 -40.55)" fill="#fff"/><path d="M100.349,178a3.079,3.079,0,1,0-3.079,3.079A3.079,3.079,0,0,0,100.349,178" transform="translate(-97.269 -48.653)" fill="#fff"/><path d="M113.8,178a3.079,3.079,0,1,0-3.081,3.079A3.08,3.08,0,0,0,113.8,178" transform="translate(-89.166 -48.653)" fill="#fff"/><path d="M127.26,178a3.079,3.079,0,1,0-3.079,3.079A3.079,3.079,0,0,0,127.26,178" transform="translate(-81.064 -48.653)" fill="#fff"/><path d="M140.716,178a3.079,3.079,0,1,0-3.079,3.079A3.079,3.079,0,0,0,140.716,178" transform="translate(-72.961 -48.653)" fill="#fff"/><path d="M154.171,178a3.079,3.079,0,1,0-3.079,3.079A3.079,3.079,0,0,0,154.171,178" transform="translate(-64.858 -48.653)" fill="#fff"/><path d="M167.627,178a3.079,3.079,0,1,0-3.079,3.079A3.079,3.079,0,0,0,167.627,178" transform="translate(-56.755 -48.653)" fill="#fff"/><path d="M181.083,178A3.079,3.079,0,1,0,178,181.082,3.079,3.079,0,0,0,181.083,178" transform="translate(-48.652 -48.653)" fill="#fff"/><path d="M194.538,178a3.079,3.079,0,1,0-3.079,3.079A3.079,3.079,0,0,0,194.538,178" transform="translate(-40.55 -48.653)" fill="#fff"/><path d="M100.349,164.547a3.079,3.079,0,1,0-3.079,3.079,3.079,3.079,0,0,0,3.079-3.079" transform="translate(-97.269 -56.755)" fill="#fff"/><path d="M113.8,164.547a3.079,3.079,0,1,0-3.081,3.079,3.08,3.08,0,0,0,3.081-3.079" transform="translate(-89.166 -56.755)" fill="#fff"/><path d="M127.26,164.547a3.079,3.079,0,1,0-3.079,3.079,3.079,3.079,0,0,0,3.079-3.079" transform="translate(-81.064 -56.755)" fill="#fff"/><path d="M140.716,164.547a3.079,3.079,0,1,0-3.079,3.079,3.079,3.079,0,0,0,3.079-3.079" transform="translate(-72.961 -56.755)" fill="#fff"/><path d="M154.171,164.547a3.079,3.079,0,1,0-3.079,3.079,3.079,3.079,0,0,0,3.079-3.079" transform="translate(-64.858 -56.755)" fill="#fff"/><path d="M167.627,164.547a3.079,3.079,0,1,0-3.079,3.079,3.079,3.079,0,0,0,3.079-3.079" transform="translate(-56.755 -56.755)" fill="#fff"/><path d="M181.083,164.547A3.079,3.079,0,1,0,178,167.627a3.079,3.079,0,0,0,3.079-3.079" transform="translate(-48.652 -56.755)" fill="#fff"/><path d="M194.538,164.547a3.079,3.079,0,1,0-3.079,3.079,3.079,3.079,0,0,0,3.079-3.079" transform="translate(-40.55 -56.755)" fill="#fff"/><path d="M100.349,151.091a3.079,3.079,0,1,0-3.079,3.079,3.079,3.079,0,0,0,3.079-3.079" transform="translate(-97.269 -64.858)" fill="#fff"/><path d="M113.8,151.091a3.079,3.079,0,1,0-3.081,3.079,3.08,3.08,0,0,0,3.081-3.079" transform="translate(-89.166 -64.858)" fill="#fff"/><path d="M127.26,151.091a3.079,3.079,0,1,0-3.079,3.079,3.079,3.079,0,0,0,3.079-3.079" transform="translate(-81.064 -64.858)" fill="#fff"/><path d="M140.716,151.091a3.079,3.079,0,1,0-3.079,3.079,3.079,3.079,0,0,0,3.079-3.079" transform="translate(-72.961 -64.858)" fill="#fff"/><path d="M154.171,151.091a3.079,3.079,0,1,0-3.079,3.079,3.079,3.079,0,0,0,3.079-3.079" transform="translate(-64.858 -64.858)" fill="#fff"/><path d="M167.627,151.091a3.079,3.079,0,1,0-3.079,3.079,3.079,3.079,0,0,0,3.079-3.079" transform="translate(-56.755 -64.858)" fill="#fff"/><path d="M181.083,151.091A3.079,3.079,0,1,0,178,154.171a3.079,3.079,0,0,0,3.079-3.079" transform="translate(-48.652 -64.858)" fill="#fff"/><path d="M194.538,151.091a3.079,3.079,0,1,0-3.079,3.079,3.079,3.079,0,0,0,3.079-3.079" transform="translate(-40.55 -64.858)" fill="#fff"/><path d="M100.349,137.635a3.079,3.079,0,1,0-3.079,3.079,3.079,3.079,0,0,0,3.079-3.079" transform="translate(-97.269 -72.961)" fill="#fff"/><path d="M113.8,137.635a3.079,3.079,0,1,0-3.081,3.079,3.08,3.08,0,0,0,3.081-3.079" transform="translate(-89.166 -72.961)" fill="#fff"/><path d="M127.26,137.635a3.079,3.079,0,1,0-3.079,3.079,3.079,3.079,0,0,0,3.079-3.079" transform="translate(-81.064 -72.961)" fill="#fff"/><path d="M140.716,137.635a3.079,3.079,0,1,0-3.079,3.079,3.079,3.079,0,0,0,3.079-3.079" transform="translate(-72.961 -72.961)" fill="#fff"/><path d="M154.171,137.635a3.079,3.079,0,1,0-3.079,3.079,3.079,3.079,0,0,0,3.079-3.079" transform="translate(-64.858 -72.961)" fill="#fff"/><path d="M167.627,137.635a3.079,3.079,0,1,0-3.079,3.079,3.079,3.079,0,0,0,3.079-3.079" transform="translate(-56.755 -72.961)" fill="#fff"/><path d="M181.083,137.635A3.079,3.079,0,1,0,178,140.715a3.079,3.079,0,0,0,3.079-3.079" transform="translate(-48.652 -72.961)" fill="#fff"/><path d="M194.538,137.635a3.079,3.079,0,1,0-3.079,3.079,3.079,3.079,0,0,0,3.079-3.079" transform="translate(-40.55 -72.961)" fill="#fff"/><path d="M100.349,124.18a3.079,3.079,0,1,0-3.079,3.079,3.079,3.079,0,0,0,3.079-3.079" transform="translate(-97.269 -81.064)" fill="#fff"/><path d="M113.8,124.18a3.079,3.079,0,1,0-3.081,3.079,3.08,3.08,0,0,0,3.081-3.079" transform="translate(-89.166 -81.064)" fill="#fff"/><path d="M127.26,124.18a3.079,3.079,0,1,0-3.079,3.079,3.079,3.079,0,0,0,3.079-3.079" transform="translate(-81.064 -81.064)" fill="#fff"/><path d="M140.716,124.18a3.079,3.079,0,1,0-3.079,3.079,3.079,3.079,0,0,0,3.079-3.079" transform="translate(-72.961 -81.064)" fill="#fff"/><path d="M154.171,124.18a3.079,3.079,0,1,0-3.079,3.079,3.079,3.079,0,0,0,3.079-3.079" transform="translate(-64.858 -81.064)" fill="#fff"/><path d="M167.627,124.18a3.079,3.079,0,1,0-3.079,3.079,3.079,3.079,0,0,0,3.079-3.079" transform="translate(-56.755 -81.064)" fill="#fff"/><path d="M181.083,124.18A3.079,3.079,0,1,0,178,127.26a3.079,3.079,0,0,0,3.079-3.079" transform="translate(-48.652 -81.064)" fill="#fff"/><path d="M194.538,124.18a3.079,3.079,0,1,0-3.079,3.079,3.079,3.079,0,0,0,3.079-3.079" transform="translate(-40.55 -81.064)" fill="#fff"/><path d="M100.349,110.724a3.079,3.079,0,1,0-3.079,3.079,3.079,3.079,0,0,0,3.079-3.079" transform="translate(-97.269 -89.167)" fill="#fff"/><path d="M113.8,110.724a3.079,3.079,0,1,0-3.081,3.079,3.08,3.08,0,0,0,3.081-3.079" transform="translate(-89.166 -89.167)" fill="#fff"/><path d="M127.26,110.724a3.079,3.079,0,1,0-3.079,3.079,3.079,3.079,0,0,0,3.079-3.079" transform="translate(-81.064 -89.167)" fill="#fff"/><path d="M140.716,110.724a3.079,3.079,0,1,0-3.079,3.079,3.079,3.079,0,0,0,3.079-3.079" transform="translate(-72.961 -89.167)" fill="#fff"/><path d="M154.171,110.724a3.079,3.079,0,1,0-3.079,3.079,3.079,3.079,0,0,0,3.079-3.079" transform="translate(-64.858 -89.167)" fill="#fff"/><path d="M167.627,110.724a3.079,3.079,0,1,0-3.079,3.079,3.079,3.079,0,0,0,3.079-3.079" transform="translate(-56.755 -89.167)" fill="#fff"/><path d="M181.083,110.724A3.079,3.079,0,1,0,178,113.8a3.079,3.079,0,0,0,3.079-3.079" transform="translate(-48.652 -89.167)" fill="#fff"/><path d="M194.538,110.724a3.079,3.079,0,1,0-3.079,3.079,3.079,3.079,0,0,0,3.079-3.079" transform="translate(-40.55 -89.167)" fill="#fff"/><path d="M100.349,97.269a3.079,3.079,0,1,0-3.079,3.079,3.079,3.079,0,0,0,3.079-3.079" transform="translate(-97.269 -97.269)" fill="#fff"/><path d="M113.8,97.269a3.079,3.079,0,1,0-3.081,3.079,3.08,3.08,0,0,0,3.081-3.079" transform="translate(-89.166 -97.269)" fill="#fff"/><path d="M127.26,97.269a3.079,3.079,0,1,0-3.079,3.079,3.079,3.079,0,0,0,3.079-3.079" transform="translate(-81.064 -97.269)" fill="#fff"/><path d="M140.716,97.269a3.079,3.079,0,1,0-3.079,3.079,3.079,3.079,0,0,0,3.079-3.079" transform="translate(-72.961 -97.269)" fill="#fff"/><path d="M154.171,97.269a3.079,3.079,0,1,0-3.079,3.079,3.079,3.079,0,0,0,3.079-3.079" transform="translate(-64.858 -97.269)" fill="#fff"/><path d="M167.627,97.269a3.079,3.079,0,1,0-3.079,3.079,3.079,3.079,0,0,0,3.079-3.079" transform="translate(-56.755 -97.269)" fill="#fff"/><path d="M181.083,97.269A3.079,3.079,0,1,0,178,100.349a3.079,3.079,0,0,0,3.079-3.079" transform="translate(-48.652 -97.269)" fill="#fff"/><path d="M194.538,97.269a3.079,3.079,0,1,0-3.079,3.079,3.079,3.079,0,0,0,3.079-3.079" transform="translate(-40.55 -97.269)" fill="#fff"/></g></g><g transform="translate(143.254 86.733)"><g clip-path="url(#l)"><path d="M194.538,97.269a3.079,3.079,0,1,0-3.079,3.079,3.079,3.079,0,0,0,3.079-3.079" transform="translate(-50.096 -82.242)" fill="#fff"/><path d="M100.349,97.269a3.079,3.079,0,1,0-3.079,3.079,3.079,3.079,0,0,0,3.079-3.079" transform="translate(-106.815 -82.242)" fill="#fff"/><path d="M113.8,97.269a3.079,3.079,0,1,0-3.081,3.079,3.08,3.08,0,0,0,3.081-3.079" transform="translate(-98.712 -82.242)" fill="#fff"/><path d="M127.26,97.269a3.079,3.079,0,1,0-3.079,3.079,3.079,3.079,0,0,0,3.079-3.079" transform="translate(-90.61 -82.242)" fill="#fff"/><path d="M140.716,97.269a3.079,3.079,0,1,0-3.079,3.079,3.079,3.079,0,0,0,3.079-3.079" transform="translate(-82.507 -82.242)" fill="#fff"/><path d="M154.171,97.269a3.079,3.079,0,1,0-3.079,3.079,3.079,3.079,0,0,0,3.079-3.079" transform="translate(-74.404 -82.242)" fill="#fff"/><path d="M167.627,97.269a3.079,3.079,0,1,0-3.079,3.079,3.079,3.079,0,0,0,3.079-3.079" transform="translate(-66.301 -82.242)" fill="#fff"/><path d="M181.083,97.269A3.079,3.079,0,1,0,178,100.349a3.079,3.079,0,0,0,3.079-3.079" transform="translate(-58.198 -82.242)" fill="#fff"/><path d="M194.538,97.269a3.079,3.079,0,1,0-3.079,3.079,3.079,3.079,0,0,0,3.079-3.079" transform="translate(-50.096 -82.242)" fill="#fff"/></g></g><g transform="translate(33.68 86.733)"><g clip-path="url(#a)"><g transform="translate(-50.882 316.846)"><g transform="translate(0)" clip-path="url(#b)"><g transform="translate(0.002 -0.002)"><g clip-path="url(#b)"><path d="M100.349,285.647a3.079,3.079,0,1,0-3.079,3.079,3.079,3.079,0,0,0,3.079-3.079" transform="translate(53.639 -285.647)" fill="#fff"/><path d="M46.526,285.647a3.079,3.079,0,1,0-3.079,3.079,3.079,3.079,0,0,0,3.079-3.079" transform="translate(21.228 -285.647)" fill="#fff"/><path d="M59.982,285.647a3.079,3.079,0,1,0-3.079,3.079,3.079,3.079,0,0,0,3.079-3.079" transform="translate(29.331 -285.647)" fill="#fff"/><path d="M73.438,285.647a3.079,3.079,0,1,0-3.079,3.079,3.079,3.079,0,0,0,3.079-3.079" transform="translate(37.434 -285.647)" fill="#fff"/><path d="M86.893,285.647a3.079,3.079,0,1,0-3.079,3.079,3.079,3.079,0,0,0,3.079-3.079" transform="translate(45.536 -285.647)" fill="#fff"/><path d="M100.349,285.647a3.079,3.079,0,1,0-3.079,3.079,3.079,3.079,0,0,0,3.079-3.079" transform="translate(53.639 -285.647)" fill="#fff"/></g></g></g></g></g></g><g transform="translate(33.68 252.67)"><g clip-path="url(#p)"><path d="M100.349,285.647a3.079,3.079,0,1,0-3.079,3.079,3.079,3.079,0,0,0,3.079-3.079" transform="translate(2.759 -134.74)" fill="#fff"/><path d="M100.349,272.192a3.079,3.079,0,1,0-3.079,3.079,3.079,3.079,0,0,0,3.079-3.079" transform="translate(2.759 -142.843)" fill="#fff"/><path d="M100.349,258.736a3.079,3.079,0,1,0-3.079,3.079,3.079,3.079,0,0,0,3.079-3.079" transform="translate(2.759 -150.946)" fill="#fff"/><path d="M100.349,245.28a3.079,3.079,0,1,0-3.079,3.081,3.079,3.079,0,0,0,3.079-3.081" transform="translate(2.759 -159.049)" fill="#fff"/><path d="M100.349,231.825a3.079,3.079,0,1,0-3.079,3.079,3.079,3.079,0,0,0,3.079-3.079" transform="translate(2.759 -167.151)" fill="#fff"/><path d="M100.349,218.369a3.079,3.079,0,1,0-3.079,3.079,3.079,3.079,0,0,0,3.079-3.079" transform="translate(2.759 -175.254)" fill="#fff"/><path d="M100.349,204.914a3.079,3.079,0,1,0-3.079,3.079,3.079,3.079,0,0,0,3.079-3.079" transform="translate(2.759 -183.357)" fill="#fff"/><path d="M100.349,191.458a3.079,3.079,0,1,0-3.079,3.079,3.079,3.079,0,0,0,3.079-3.079" transform="translate(2.759 -191.46)" fill="#fff"/><path d="M46.526,285.647a3.079,3.079,0,1,0-3.079,3.079,3.079,3.079,0,0,0,3.079-3.079" transform="translate(-29.653 -134.74)" fill="#fff"/><path d="M59.982,285.647a3.079,3.079,0,1,0-3.079,3.079,3.079,3.079,0,0,0,3.079-3.079" transform="translate(-21.55 -134.74)" fill="#fff"/><path d="M73.438,285.647a3.079,3.079,0,1,0-3.079,3.079,3.079,3.079,0,0,0,3.079-3.079" transform="translate(-13.447 -134.74)" fill="#fff"/><path d="M86.893,285.647a3.079,3.079,0,1,0-3.079,3.079,3.079,3.079,0,0,0,3.079-3.079" transform="translate(-5.345 -134.74)" fill="#fff"/><path d="M100.349,285.647a3.079,3.079,0,1,0-3.079,3.079,3.079,3.079,0,0,0,3.079-3.079" transform="translate(2.759 -134.74)" fill="#fff"/><path d="M46.526,272.192a3.079,3.079,0,1,0-3.079,3.079,3.079,3.079,0,0,0,3.079-3.079" transform="translate(-29.653 -142.843)" fill="#fff"/><path d="M59.982,272.192a3.079,3.079,0,1,0-3.079,3.079,3.079,3.079,0,0,0,3.079-3.079" transform="translate(-21.55 -142.843)" fill="#fff"/><path d="M73.438,272.192a3.079,3.079,0,1,0-3.079,3.079,3.079,3.079,0,0,0,3.079-3.079" transform="translate(-13.447 -142.843)" fill="#fff"/><path d="M86.893,272.192a3.079,3.079,0,1,0-3.079,3.079,3.079,3.079,0,0,0,3.079-3.079" transform="translate(-5.345 -142.843)" fill="#fff"/><path d="M100.349,272.192a3.079,3.079,0,1,0-3.079,3.079,3.079,3.079,0,0,0,3.079-3.079" transform="translate(2.759 -142.843)" fill="#fff"/><path d="M46.526,258.736a3.079,3.079,0,1,0-3.079,3.079,3.079,3.079,0,0,0,3.079-3.079" transform="translate(-29.653 -150.946)" fill="#fff"/><path d="M59.982,258.736a3.079,3.079,0,1,0-3.079,3.079,3.079,3.079,0,0,0,3.079-3.079" transform="translate(-21.55 -150.946)" fill="#fff"/><path d="M73.438,258.736a3.079,3.079,0,1,0-3.079,3.079,3.079,3.079,0,0,0,3.079-3.079" transform="translate(-13.447 -150.946)" fill="#fff"/><path d="M86.893,258.736a3.079,3.079,0,1,0-3.079,3.079,3.079,3.079,0,0,0,3.079-3.079" transform="translate(-5.345 -150.946)" fill="#fff"/><path d="M100.349,258.736a3.079,3.079,0,1,0-3.079,3.079,3.079,3.079,0,0,0,3.079-3.079" transform="translate(2.759 -150.946)" fill="#fff"/><path d="M46.526,245.28a3.079,3.079,0,1,0-3.079,3.081,3.079,3.079,0,0,0,3.079-3.081" transform="translate(-29.653 -159.049)" fill="#fff"/><path d="M59.982,245.28a3.079,3.079,0,1,0-3.079,3.081,3.079,3.079,0,0,0,3.079-3.081" transform="translate(-21.55 -159.049)" fill="#fff"/><path d="M73.438,245.28a3.079,3.079,0,1,0-3.079,3.081,3.079,3.079,0,0,0,3.079-3.081" transform="translate(-13.447 -159.049)" fill="#fff"/><path d="M86.893,245.28a3.079,3.079,0,1,0-3.079,3.081,3.079,3.079,0,0,0,3.079-3.081" transform="translate(-5.345 -159.049)" fill="#fff"/><path d="M100.349,245.28a3.079,3.079,0,1,0-3.079,3.081,3.079,3.079,0,0,0,3.079-3.081" transform="translate(2.759 -159.049)" fill="#fff"/><path d="M46.526,231.825a3.079,3.079,0,1,0-3.079,3.079,3.079,3.079,0,0,0,3.079-3.079" transform="translate(-29.653 -167.151)" fill="#fff"/><path d="M59.982,231.825A3.079,3.079,0,1,0,56.9,234.9a3.079,3.079,0,0,0,3.079-3.079" transform="translate(-21.55 -167.151)" fill="#fff"/><path d="M73.438,231.825a3.079,3.079,0,1,0-3.079,3.079,3.079,3.079,0,0,0,3.079-3.079" transform="translate(-13.447 -167.151)" fill="#fff"/><path d="M86.893,231.825a3.079,3.079,0,1,0-3.079,3.079,3.079,3.079,0,0,0,3.079-3.079" transform="translate(-5.345 -167.151)" fill="#fff"/><path d="M100.349,231.825a3.079,3.079,0,1,0-3.079,3.079,3.079,3.079,0,0,0,3.079-3.079" transform="translate(2.759 -167.151)" fill="#fff"/><path d="M46.526,218.369a3.079,3.079,0,1,0-3.079,3.079,3.079,3.079,0,0,0,3.079-3.079" transform="translate(-29.653 -175.254)" fill="#fff"/><path d="M59.982,218.369a3.079,3.079,0,1,0-3.079,3.079,3.079,3.079,0,0,0,3.079-3.079" transform="translate(-21.55 -175.254)" fill="#fff"/><path d="M73.438,218.369a3.079,3.079,0,1,0-3.079,3.079,3.079,3.079,0,0,0,3.079-3.079" transform="translate(-13.447 -175.254)" fill="#fff"/><path d="M86.893,218.369a3.079,3.079,0,1,0-3.079,3.079,3.079,3.079,0,0,0,3.079-3.079" transform="translate(-5.345 -175.254)" fill="#fff"/><path d="M100.349,218.369a3.079,3.079,0,1,0-3.079,3.079,3.079,3.079,0,0,0,3.079-3.079" transform="translate(2.759 -175.254)" fill="#fff"/><path d="M46.526,204.914a3.079,3.079,0,1,0-3.079,3.079,3.079,3.079,0,0,0,3.079-3.079" transform="translate(-29.653 -183.357)" fill="#fff"/><path d="M59.982,204.914a3.079,3.079,0,1,0-3.079,3.079,3.079,3.079,0,0,0,3.079-3.079" transform="translate(-21.55 -183.357)" fill="#fff"/><path d="M73.438,204.914a3.079,3.079,0,1,0-3.079,3.079,3.079,3.079,0,0,0,3.079-3.079" transform="translate(-13.447 -183.357)" fill="#fff"/><path d="M86.893,204.914a3.079,3.079,0,1,0-3.079,3.079,3.079,3.079,0,0,0,3.079-3.079" transform="translate(-5.345 -183.357)" fill="#fff"/><path d="M100.349,204.914a3.079,3.079,0,1,0-3.079,3.079,3.079,3.079,0,0,0,3.079-3.079" transform="translate(2.759 -183.357)" fill="#fff"/><path d="M46.526,191.458a3.079,3.079,0,1,0-3.079,3.079,3.079,3.079,0,0,0,3.079-3.079" transform="translate(-29.653 -191.46)" fill="#fff"/><path d="M59.982,191.458a3.079,3.079,0,1,0-3.079,3.079,3.079,3.079,0,0,0,3.079-3.079" transform="translate(-21.55 -191.46)" fill="#fff"/><path d="M73.438,191.458a3.079,3.079,0,1,0-3.079,3.079,3.079,3.079,0,0,0,3.079-3.079" transform="translate(-13.447 -191.46)" fill="#fff"/><path d="M86.893,191.458a3.079,3.079,0,1,0-3.079,3.079,3.079,3.079,0,0,0,3.079-3.079" transform="translate(-5.345 -191.46)" fill="#fff"/><path d="M100.349,191.458a3.079,3.079,0,1,0-3.079,3.079,3.079,3.079,0,0,0,3.079-3.079" transform="translate(2.759 -191.46)" fill="#fff"/></g></g><g transform="translate(33.823 109.547)"><g clip-path="url(#q)"><path d="M100.349,191.458a3.079,3.079,0,1,0-3.079,3.079,3.079,3.079,0,0,0,3.079-3.079" transform="translate(2.616 -48.336)" fill="#fff"/><path d="M100.349,178a3.079,3.079,0,1,0-3.079,3.079A3.079,3.079,0,0,0,100.349,178" transform="translate(2.616 -56.439)" fill="#fff"/><path d="M100.349,164.547a3.079,3.079,0,1,0-3.079,3.079,3.079,3.079,0,0,0,3.079-3.079" transform="translate(2.616 -64.542)" fill="#fff"/><path d="M100.349,151.091a3.079,3.079,0,1,0-3.079,3.079,3.079,3.079,0,0,0,3.079-3.079" transform="translate(2.616 -72.645)" fill="#fff"/><path d="M100.349,137.635a3.079,3.079,0,1,0-3.079,3.079,3.079,3.079,0,0,0,3.079-3.079" transform="translate(2.616 -80.748)" fill="#fff"/><path d="M100.349,124.18a3.079,3.079,0,1,0-3.079,3.079,3.079,3.079,0,0,0,3.079-3.079" transform="translate(2.616 -88.85)" fill="#fff"/><path d="M100.349,110.724a3.079,3.079,0,1,0-3.079,3.079,3.079,3.079,0,0,0,3.079-3.079" transform="translate(2.616 -96.954)" fill="#fff"/><path d="M100.349,97.269a3.079,3.079,0,1,0-3.079,3.079,3.079,3.079,0,0,0,3.079-3.079" transform="translate(2.616 -105.056)" fill="#fff"/><path d="M46.526,191.458a3.079,3.079,0,1,0-3.079,3.079,3.079,3.079,0,0,0,3.079-3.079" transform="translate(-29.796 -48.336)" fill="#fff"/><path d="M59.982,191.458a3.079,3.079,0,1,0-3.079,3.079,3.079,3.079,0,0,0,3.079-3.079" transform="translate(-21.693 -48.336)" fill="#fff"/><path d="M73.438,191.458a3.079,3.079,0,1,0-3.079,3.079,3.079,3.079,0,0,0,3.079-3.079" transform="translate(-13.59 -48.336)" fill="#fff"/><path d="M86.893,191.458a3.079,3.079,0,1,0-3.079,3.079,3.079,3.079,0,0,0,3.079-3.079" transform="translate(-5.487 -48.336)" fill="#fff"/><path d="M100.349,191.458a3.079,3.079,0,1,0-3.079,3.079,3.079,3.079,0,0,0,3.079-3.079" transform="translate(2.616 -48.336)" fill="#fff"/><path d="M46.526,178a3.079,3.079,0,1,0-3.079,3.079A3.079,3.079,0,0,0,46.526,178" transform="translate(-29.796 -56.439)" fill="#fff"/><path d="M59.982,178a3.079,3.079,0,1,0-3.079,3.079A3.079,3.079,0,0,0,59.982,178" transform="translate(-21.693 -56.439)" fill="#fff"/><path d="M73.438,178a3.079,3.079,0,1,0-3.079,3.079A3.079,3.079,0,0,0,73.438,178" transform="translate(-13.59 -56.439)" fill="#fff"/><path d="M86.893,178a3.079,3.079,0,1,0-3.079,3.079A3.079,3.079,0,0,0,86.893,178" transform="translate(-5.487 -56.439)" fill="#fff"/><path d="M100.349,178a3.079,3.079,0,1,0-3.079,3.079A3.079,3.079,0,0,0,100.349,178" transform="translate(2.616 -56.439)" fill="#fff"/><path d="M46.526,164.547a3.079,3.079,0,1,0-3.079,3.079,3.079,3.079,0,0,0,3.079-3.079" transform="translate(-29.796 -64.542)" fill="#fff"/><path d="M59.982,164.547a3.079,3.079,0,1,0-3.079,3.079,3.079,3.079,0,0,0,3.079-3.079" transform="translate(-21.693 -64.542)" fill="#fff"/><path d="M73.438,164.547a3.079,3.079,0,1,0-3.079,3.079,3.079,3.079,0,0,0,3.079-3.079" transform="translate(-13.59 -64.542)" fill="#fff"/><path d="M86.893,164.547a3.079,3.079,0,1,0-3.079,3.079,3.079,3.079,0,0,0,3.079-3.079" transform="translate(-5.487 -64.542)" fill="#fff"/><path d="M100.349,164.547a3.079,3.079,0,1,0-3.079,3.079,3.079,3.079,0,0,0,3.079-3.079" transform="translate(2.616 -64.542)" fill="#fff"/><path d="M46.526,151.091a3.079,3.079,0,1,0-3.079,3.079,3.079,3.079,0,0,0,3.079-3.079" transform="translate(-29.796 -72.645)" fill="#fff"/><path d="M59.982,151.091a3.079,3.079,0,1,0-3.079,3.079,3.079,3.079,0,0,0,3.079-3.079" transform="translate(-21.693 -72.645)" fill="#fff"/><path d="M73.438,151.091a3.079,3.079,0,1,0-3.079,3.079,3.079,3.079,0,0,0,3.079-3.079" transform="translate(-13.59 -72.645)" fill="#fff"/><path d="M86.893,151.091a3.079,3.079,0,1,0-3.079,3.079,3.079,3.079,0,0,0,3.079-3.079" transform="translate(-5.487 -72.645)" fill="#fff"/><path d="M100.349,151.091a3.079,3.079,0,1,0-3.079,3.079,3.079,3.079,0,0,0,3.079-3.079" transform="translate(2.616 -72.645)" fill="#fff"/><path d="M46.526,137.635a3.079,3.079,0,1,0-3.079,3.079,3.079,3.079,0,0,0,3.079-3.079" transform="translate(-29.796 -80.748)" fill="#fff"/><path d="M59.982,137.635a3.079,3.079,0,1,0-3.079,3.079,3.079,3.079,0,0,0,3.079-3.079" transform="translate(-21.693 -80.748)" fill="#fff"/><path d="M73.438,137.635a3.079,3.079,0,1,0-3.079,3.079,3.079,3.079,0,0,0,3.079-3.079" transform="translate(-13.59 -80.748)" fill="#fff"/><path d="M86.893,137.635a3.079,3.079,0,1,0-3.079,3.079,3.079,3.079,0,0,0,3.079-3.079" transform="translate(-5.487 -80.748)" fill="#fff"/><path d="M100.349,137.635a3.079,3.079,0,1,0-3.079,3.079,3.079,3.079,0,0,0,3.079-3.079" transform="translate(2.616 -80.748)" fill="#fff"/><path d="M46.526,124.18a3.079,3.079,0,1,0-3.079,3.079,3.079,3.079,0,0,0,3.079-3.079" transform="translate(-29.796 -88.85)" fill="#fff"/><path d="M59.982,124.18A3.079,3.079,0,1,0,56.9,127.26a3.079,3.079,0,0,0,3.079-3.079" transform="translate(-21.693 -88.85)" fill="#fff"/><path d="M73.438,124.18a3.079,3.079,0,1,0-3.079,3.079,3.079,3.079,0,0,0,3.079-3.079" transform="translate(-13.59 -88.85)" fill="#fff"/><path d="M86.893,124.18a3.079,3.079,0,1,0-3.079,3.079,3.079,3.079,0,0,0,3.079-3.079" transform="translate(-5.487 -88.85)" fill="#fff"/><path d="M100.349,124.18a3.079,3.079,0,1,0-3.079,3.079,3.079,3.079,0,0,0,3.079-3.079" transform="translate(2.616 -88.85)" fill="#fff"/><path d="M46.526,110.724a3.079,3.079,0,1,0-3.079,3.079,3.079,3.079,0,0,0,3.079-3.079" transform="translate(-29.796 -96.954)" fill="#fff"/><path d="M59.982,110.724A3.079,3.079,0,1,0,56.9,113.8a3.079,3.079,0,0,0,3.079-3.079" transform="translate(-21.693 -96.954)" fill="#fff"/><path d="M73.438,110.724a3.079,3.079,0,1,0-3.079,3.079,3.079,3.079,0,0,0,3.079-3.079" transform="translate(-13.59 -96.954)" fill="#fff"/><path d="M86.893,110.724a3.079,3.079,0,1,0-3.079,3.079,3.079,3.079,0,0,0,3.079-3.079" transform="translate(-5.487 -96.954)" fill="#fff"/><path d="M100.349,110.724a3.079,3.079,0,1,0-3.079,3.079,3.079,3.079,0,0,0,3.079-3.079" transform="translate(2.616 -96.954)" fill="#fff"/><path d="M46.526,97.269a3.079,3.079,0,1,0-3.079,3.079,3.079,3.079,0,0,0,3.079-3.079" transform="translate(-29.796 -105.056)" fill="#fff"/><path d="M59.982,97.269a3.079,3.079,0,1,0-3.079,3.079,3.079,3.079,0,0,0,3.079-3.079" transform="translate(-21.693 -105.056)" fill="#fff"/><path d="M73.438,97.269a3.079,3.079,0,1,0-3.079,3.079,3.079,3.079,0,0,0,3.079-3.079" transform="translate(-13.59 -105.056)" fill="#fff"/><path d="M86.893,97.269a3.079,3.079,0,1,0-3.079,3.079,3.079,3.079,0,0,0,3.079-3.079" transform="translate(-5.487 -105.056)" fill="#fff"/><path d="M100.349,97.269a3.079,3.079,0,1,0-3.079,3.079,3.079,3.079,0,0,0,3.079-3.079" transform="translate(2.616 -105.056)" fill="#fff"/></g></g><g transform="translate(33.68 86.733)"><g clip-path="url(#a)"><g transform="translate(-50.882 -135.882)"><g transform="translate(0 0)" clip-path="url(#b)"><g transform="translate(0.002 -0.002)"><g clip-path="url(#b)"><path d="M100.349,97.269a3.079,3.079,0,1,0-3.079,3.079,3.079,3.079,0,0,0,3.079-3.079" transform="translate(53.639 53.641)" fill="#fff"/><path d="M46.526,97.269a3.079,3.079,0,1,0-3.079,3.079,3.079,3.079,0,0,0,3.079-3.079" transform="translate(21.228 53.641)" fill="#fff"/><path d="M59.982,97.269a3.079,3.079,0,1,0-3.079,3.079,3.079,3.079,0,0,0,3.079-3.079" transform="translate(29.331 53.641)" fill="#fff"/><path d="M73.438,97.269a3.079,3.079,0,1,0-3.079,3.079,3.079,3.079,0,0,0,3.079-3.079" transform="translate(37.434 53.641)" fill="#fff"/><path d="M86.893,97.269a3.079,3.079,0,1,0-3.079,3.079,3.079,3.079,0,0,0,3.079-3.079" transform="translate(45.536 53.641)" fill="#fff"/><path d="M100.349,97.269a3.079,3.079,0,1,0-3.079,3.079,3.079,3.079,0,0,0,3.079-3.079" transform="translate(53.639 53.641)" fill="#fff"/></g></g></g></g></g></g></g></svg>