<svg xmlns="http://www.w3.org/2000/svg" xmlns:xlink="http://www.w3.org/1999/xlink" width="30" height="30" viewBox="0 0 30 30"><defs><clipPath id="a"><rect width="30" height="30" fill="none"/></clipPath></defs><g clip-path="url(#a)"><path d="M15,30h0A15,15,0,0,1,0,15H0A15,15,0,0,1,15,0h0A15,15,0,0,1,30,15h0A15,15,0,0,1,15,30"/><path d="M184.967,180.045l-5.271-7.658-.6-.866-3.77-5.478-.312-.454h-4.633l1.13,1.642,5.013,7.284.6.865,4.028,5.853.312.454H186.1Zm-2.953.594-4.185-6.08-.6-.866-4.856-7.055h2.089l3.927,5.706.6.866,5.114,7.43Z" transform="translate(-163.231 -158.639)" fill="#fff"/><path d="M176.821,358.625l.6.866-.706.822-5.421,6.306h-1.337l6.161-7.171Z" transform="translate(-162.819 -343.57)" fill="#fff"/><path d="M368.33,165.59l-5.843,6.8-.706.822-.6-.866.706-.822,3.958-4.607,1.144-1.325Z" transform="translate(-346.022 -158.639)" fill="#fff"/></g></svg>