<svg xmlns="http://www.w3.org/2000/svg" xmlns:xlink="http://www.w3.org/1999/xlink" width="223.408" height="282.563" viewBox="0 0 223.408 282.563"><defs><clipPath id="a"><rect width="223.408" height="282.563" fill="none"/></clipPath></defs><g clip-path="url(#a)"><path d="M141.51,1123.547l32.287,7.181a3.164,3.164,0,0,0,1.157.041l50.593-7.591a3.166,3.166,0,0,0,2.7-3.131V1116.3a3.166,3.166,0,0,0-2.864-3.152l-50.617-4.856a3.159,3.159,0,0,0-.78.022l-32.263,4.922a3.166,3.166,0,0,0-2.689,3.13v4.092a3.166,3.166,0,0,0,2.479,3.091" transform="translate(-106.845 -851.711)" fill="#fff"/><path d="M170.158,1127.782a4.467,4.467,0,0,1-.969-.107l-32.287-7.181a4.443,4.443,0,0,1-3.5-4.362v-4.092a4.444,4.444,0,0,1,3.795-4.418l32.263-4.922a4.466,4.466,0,0,1,1.1-.03l50.617,4.856a4.452,4.452,0,0,1,4.042,4.448v3.748a4.442,4.442,0,0,1-3.806,4.42l-50.593,7.591a4.44,4.44,0,0,1-.664.05m-32.69-9.831,32.287,7.181a1.855,1.855,0,0,0,.681.024l50.593-7.591a1.852,1.852,0,0,0,1.587-1.843v-3.748a1.856,1.856,0,0,0-1.685-1.855l-50.617-4.856a1.864,1.864,0,0,0-.459.013l-32.263,4.922a1.853,1.853,0,0,0-1.583,1.842v4.092a1.852,1.852,0,0,0,1.459,1.819" transform="translate(-102.52 -847.387)"/><path d="M237.017,882.076l12.445,3.39,27.8-4.095V802.938H237.017Z" transform="translate(-182.148 -617.058)" fill="#4d3833"/><path d="M245.137,882.445a1.3,1.3,0,0,1-.342-.046l-12.445-3.39a1.3,1.3,0,0,1-.96-1.257V798.614a1.3,1.3,0,0,1,1.3-1.3H272.94a1.3,1.3,0,0,1,1.3,1.3v78.434a1.3,1.3,0,0,1-1.113,1.289l-27.8,4.095a1.3,1.3,0,0,1-.19.014m-11.143-5.688,11.222,3.057,26.42-3.891V799.916H233.995Z" transform="translate(-177.823 -612.734)" fill="#4d3833"/><path d="M12.509,340.3l44.958,6.236a7.982,7.982,0,0,0,1.68.054l91.255-6.7a7.977,7.977,0,0,0,7.393-7.956V213.85a7.977,7.977,0,0,0-7.564-7.966l-83.844-4.344a7.983,7.983,0,0,0-1.042.014l-52.369,4.141a7.977,7.977,0,0,0-7.348,7.952V332.4a7.977,7.977,0,0,0,6.881,7.9" transform="translate(-4.325 -154.875)" fill="#eb613d"/><path d="M54.239,343.587a9.287,9.287,0,0,1-1.276-.088L8,337.263a9.319,9.319,0,0,1-8-9.192V209.321a9.327,9.327,0,0,1,8.548-9.251l52.369-4.141a9.239,9.239,0,0,1,1.211-.016l83.844,4.344a9.276,9.276,0,0,1,8.8,9.267V327.605a9.316,9.316,0,0,1-8.6,9.255l-91.255,6.7q-.339.025-.679.025m7.41-145.08c-.176,0-.352.007-.526.021L8.754,202.668a6.708,6.708,0,0,0-6.148,6.654v118.75a6.7,6.7,0,0,0,5.757,6.611l44.958,6.236a6.706,6.706,0,0,0,1.406.045l91.255-6.7a6.7,6.7,0,0,0,6.185-6.657V209.525a6.672,6.672,0,0,0-6.329-6.665l-83.844-4.344q-.172-.009-.345-.009" transform="translate(0 -150.55)"/><path d="M228.849,380.121a1.3,1.3,0,0,1-1.3-1.3V274.012a1.3,1.3,0,0,1,2.605,0V378.819a1.3,1.3,0,0,1-1.3,1.3" transform="translate(-174.869 -209.577)"/><path d="M287.366,928.07a1.3,1.3,0,0,1-1.3-1.3V868.056a1.3,1.3,0,0,1,2.605,0v58.712a1.3,1.3,0,0,1-1.3,1.3" transform="translate(-219.84 -666.1)" fill="#fff"/><path d="M259.176,349.368l43.142-2.253V285.974l-43.142.713Z" transform="translate(-199.177 -219.771)" fill="#fff"/><path d="M254.852,346.346a1.3,1.3,0,0,1-1.3-1.3V282.362a1.3,1.3,0,0,1,1.281-1.3l43.142-.713a1.3,1.3,0,0,1,1.324,1.3V342.79a1.3,1.3,0,0,1-1.235,1.3l-43.142,2.253-.068,0m1.3-62.7v60.027l40.536-2.117v-58.58Z" transform="translate(-194.853 -215.446)"/><path d="M469,340.391l37.411-1.461V278.336L469,279.581Z" transform="translate(-360.426 -213.902)" fill="#fff"/><path d="M464.674,337.369a1.3,1.3,0,0,1-1.3-1.3v-60.81a1.3,1.3,0,0,1,1.26-1.3l37.41-1.244a1.3,1.3,0,0,1,1.346,1.3v60.593a1.3,1.3,0,0,1-1.252,1.3l-37.41,1.461h-.051m1.3-60.853v58.2l34.8-1.36V275.358Z" transform="translate(-356.101 -209.577)"/><path d="M261.629,337.475l32.174-1.5.263-7.87-32.46,1.309Z" transform="translate(-201.045 -252.146)" fill="#eb613d"/><path d="M257.306,334.453a1.3,1.3,0,0,1-1.3-1.3l-.023-8.065a1.3,1.3,0,0,1,1.25-1.305l32.46-1.309a1.3,1.3,0,0,1,1.355,1.345l-.263,7.871a1.3,1.3,0,0,1-1.241,1.258l-32.174,1.5-.061,0m1.283-8.116.015,5.449,29.614-1.383.176-5.267Z" transform="translate(-196.721 -247.821)"/><path d="M469.387,328.81l26.6-1.278.162-7.867-26.836,1.082Z" transform="translate(-360.667 -245.663)" fill="#eb613d"/><path d="M465.063,325.788a1.3,1.3,0,0,1-1.3-1.291l-.075-8.063a1.3,1.3,0,0,1,1.25-1.314l26.836-1.082a1.3,1.3,0,0,1,1.355,1.329l-.162,7.867a1.3,1.3,0,0,1-1.24,1.274l-26.6,1.278-.063,0m1.239-8.114.051,5.446,24.031-1.155.109-5.266Z" transform="translate(-356.343 -241.338)"/><path d="M254.717,242.4a1.3,1.3,0,0,1-.031-2.605l80.391-1.973a1.3,1.3,0,1,1,.064,2.6L254.75,242.4h-.033" transform="translate(-194.75 -182.769)" fill="#050505"/><path d="M580.911,284.882a1.3,1.3,0,0,1-.878-2.266l10.5-9.568a1.3,1.3,0,0,1,1.755,1.926l-10.5,9.568a1.3,1.3,0,0,1-.877.34" transform="translate(-445.429 -209.577)"/><path d="M591.077,393.774a1.3,1.3,0,0,1-1.264-.992l-10.6-43.162a1.3,1.3,0,0,1,2.53-.622l10.6,43.162a1.3,1.3,0,0,1-1.266,1.614" transform="translate(-445.095 -267.443)"/><path d="M397.5,292.7a1.3,1.3,0,0,1-.9-2.241l10.12-9.753a1.3,1.3,0,0,1,1.808,1.876L398.4,292.34a1.3,1.3,0,0,1-.9.365" transform="translate(-304.476 -215.446)"/><path d="M406.744,402.595a1.3,1.3,0,0,1-1.266-1L395.1,358.077a1.3,1.3,0,1,1,2.534-.6l10.382,43.517a1.3,1.3,0,0,1-1.268,1.605" transform="translate(-303.604 -273.948)"/><path d="M426.984,610.293v4.731l-26.295,1.627v-4.717Z" transform="translate(-307.93 -469.011)" fill="#fff"/><path d="M426.984,659.207l-10.8.656v11.422l-4.73.281V660.151l-10.764.654v-4.717l26.295-1.612Z" transform="translate(-307.93 -502.966)" fill="#fff"/><path d="M84.517,299.359v2.98l-16.39-1.416-.031-2.956Z" transform="translate(-52.332 -228.988)" fill="#fff"/><path d="M84.741,329.915l-6.729-.605.031,7.074-2.923-.274-.044-7.064-6.657-.6-.031-2.932,16.354,1.445Z" transform="translate(-52.555 -250.158)" fill="#fff"/><path d="M85.367,242.4l-.075,0-34.6-1.973a1.3,1.3,0,0,1,.148-2.6l34.6,1.973a1.3,1.3,0,0,1-.073,2.6" transform="translate(-38.016 -182.768)"/><path d="M768.688,65.322s2.272,9.089-2.6,11.528c0,0-.583.849.487,2.065s1.762,2.162,2.227,5.123.627,10.158,8.463,9.448l4.883-.981.806,3.488,14.136-4.616-2.147-15.1s.254-5.4-3.815-5.828c0,0-1.206-17.3-14.241-15.495a10.568,10.568,0,0,0-8.2,10.37" transform="translate(-588.618 -42.129)" fill="#fff"/><path d="M511.671,314.264l-3.011-1.7-9.393-12.949s-8.109-3.244-10.57,0c0,0-3.635.168-4.026,2.461,0,0-3.325.171-2.391,3.165,0,0-1.066,1.893.635,2.859s6.886,1.98,6.886,1.98,4.3,8.363,10.521,9.042l4.316,2.756Z" transform="translate(-370.379 -229.143)" fill="#fff"/><path d="M751.048,1118.613s-7.876,7.64-14.623,9.687c0,0-5.938,1.09-6.1,3.82s.113,6.315,3.927,6.463,32.035-.794,32.035-.794a5.755,5.755,0,0,0,4.628-1.976s5.083.556,6.369-2.467-1.025-17.981-1.025-17.981l-4.637.612-.119,1.626Z" transform="translate(-561.231 -857.159)" fill="#fff"/><path d="M774.116,648.268l7.52,103.212s12.642,3.4,23.364.073l.3-2.072,6.084-.87,3.19-97.476s-16.383-26.483-40.46-2.868" transform="translate(-594.909 -490.663)" fill="#4d3833"/><path d="M657.009,211.588s-15.666-.44-22.655,10.935c0,0-8.843,5.138-11.52,13.312l-9.288,23.116-18.138-8.14-1.584.321-6.135-3.7s-6.639,3.795-8.935,9.831l6.4,4.7-.612.976s26.35,23.4,38.01,16.549l.284,43.247s7.748-8.08,16.138-4.069,19.054,10.908,27.667,5.383v-56.4s1.819-43.254-7.31-47.2v-1.438l1.151-.629Z" transform="translate(-444.773 -162.604)" fill="#fff"/><path d="M797.534,9.181a9.856,9.856,0,0,0-12.842-1.308S779.075,6.8,775.874,9.7a11.779,11.779,0,0,1-7.455,2.8l2,3.269s-7.7,6.332-3.288,13.424l3.241-4.082,4.186,3.324,1.852-2.629,5.563,4.384,1.23-2.032,7.217,4.29s5.36,1.536,2.923,7.628l-2.076,3.362,5.02,5.7,6.336-5.016,2.578-.908-.317-3.514,3.457.468-.79-2.792,3.461-.347S809.156,34.292,809,32.2s.519-15.472-11.463-23.02" transform="translate(-588.493 -4.66)" fill="#fbe669"/><path d="M833.738,219.73a1.117,1.117,0,0,1-1.095-.9,10.7,10.7,0,0,0-.692-2.606,1.117,1.117,0,0,1,1.964-1.064,11.622,11.622,0,0,1,.92,3.239,1.117,1.117,0,0,1-.88,1.311,1.137,1.137,0,0,1-.217.021" transform="translate(-639.251 -164.9)"/><path d="M895.14,190.589a1.117,1.117,0,0,1-1.09-.879,23.733,23.733,0,0,1-.491-3.2c-.033-.344-.065-.668-.113-1.045a1.117,1.117,0,0,1,2.215-.284c.052.412.087.769.12,1.114a21.512,21.512,0,0,0,.45,2.934,1.118,1.118,0,0,1-1.092,1.355" transform="translate(-686.607 -141.566)"/><path d="M773.573,128.474a12.971,12.971,0,0,1-1.91-.148,12.258,12.258,0,0,1-3.764-1.368,6.553,6.553,0,0,1-2.106-2.19,19.041,19.041,0,0,1-1.681-6.127c-.023-.2-.043-.4-.063-.6a7.325,7.325,0,0,0-.754-3.1,7.207,7.207,0,0,0-.824-1l-.99-1.075a2.131,2.131,0,0,1-.477-1.634,1.949,1.949,0,0,1,.8-1.418c1.569-1.1,2.352-1.949,2.557-3.758a14.331,14.331,0,0,0-.229-4.324c-.062-.412-.13-.861-.2-1.364a1.117,1.117,0,1,1,2.212-.309c.069.494.136.935.2,1.339a16.435,16.435,0,0,1,.24,4.909,6.863,6.863,0,0,1-3.308,5.2l.845.918a9.1,9.1,0,0,1,1.076,1.336,9.2,9.2,0,0,1,1.081,4.054c.02.192.039.384.061.574A16.822,16.822,0,0,0,767.8,123.8a4.636,4.636,0,0,0,1.406,1.352,9.651,9.651,0,0,0,8.317.348c.638-.187,1.361-.4,2.179-.6a1.117,1.117,0,1,1,.533,2.169c-.771.19-1.439.385-2.085.574a15.325,15.325,0,0,1-4.58.833" transform="translate(-584.82 -76.152)"/><path d="M861.435,129.544a3.243,3.243,0,0,1-1.7-.457,1.117,1.117,0,1,1,1.165-1.9,1.342,1.342,0,0,0,1.123.014,4.072,4.072,0,0,0,1.374-1,5.341,5.341,0,0,0,1.489-2.306,5.256,5.256,0,0,0,.011-2.238,4.323,4.323,0,0,0-.686-1.876,1.565,1.565,0,0,0-1.209-.7,2.033,2.033,0,0,0-1.271,1.1,1.117,1.117,0,1,1-1.957-1.076,4.121,4.121,0,0,1,3.139-2.259,3.727,3.727,0,0,1,3.093,1.6,6.425,6.425,0,0,1,1.092,2.826,6.632,6.632,0,0,1-2.118,6.5,6.272,6.272,0,0,1-2.157,1.512,3.892,3.892,0,0,1-1.393.263" transform="translate(-660.299 -89.796)"/><path d="M764.189,26.17h-.016a1.116,1.116,0,0,1-.974-.6c-.144-.275-.294-.541-.442-.805a8.3,8.3,0,0,1-1.292-6.469,14.712,14.712,0,0,1,4.082-7.371,8,8,0,0,1-1.516-2.942,1.117,1.117,0,0,1,.194-.979,1.1,1.1,0,0,1,.9-.433,9.919,9.919,0,0,0,6.309-2.192c.15-.122.3-.248.443-.375a8.582,8.582,0,0,1,1.588-1.163,7.882,7.882,0,0,1,3.137-.759,31.27,31.27,0,0,1,3.894-.06,2.079,2.079,0,0,0,.491-.008,1.91,1.91,0,0,0,.31-.234l.078-.065c1.753-1.467,4.145-2,7.11-1.581,2.994.422,5.065,1.675,6.157,3.724a1.117,1.117,0,0,1-1.971,1.05c-.737-1.384-2.251-2.246-4.5-2.563-2.313-.326-4.118.038-5.366,1.082l-.069.058a3.241,3.241,0,0,1-.964.618,3.294,3.294,0,0,1-1.363.15,29.072,29.072,0,0,0-3.636.054,5.784,5.784,0,0,0-2.265.505,6.852,6.852,0,0,0-1.176.882c-.162.14-.325.279-.49.414a12.2,12.2,0,0,1-6.111,2.6,5.811,5.811,0,0,0,1.13,1.421,1.117,1.117,0,0,1,.008,1.642,13.069,13.069,0,0,0-4.223,6.988,5.406,5.406,0,0,0,.524,3.927,10.979,10.979,0,0,1,2.521-3.339,1.116,1.116,0,0,1,1.705.269,5.677,5.677,0,0,0,3.279,2.668,1.117,1.117,0,0,1-.619,2.146,7.684,7.684,0,0,1-3.76-2.506,12.53,12.53,0,0,0-1.442,2.363c-.213.413-.433.839-.7,1.308a1.116,1.116,0,0,1-.974.571" transform="translate(-585.032 0)"/><path d="M896.424,177.562a1.117,1.117,0,0,1-1.011-1.589c1.093-2.343,2.058-4.108,4.539-5.489a1.117,1.117,0,0,1,1.086,1.951c-1.9,1.059-2.63,2.4-3.6,4.482a1.117,1.117,0,0,1-1.013.645" transform="translate(-688.045 -130.909)"/><path d="M908.545,51.28a1.116,1.116,0,0,1-.957-.54c-.391-.648-1.58-2.618-.294-4.6a1.117,1.117,0,0,1,1.323-.44,5.848,5.848,0,0,0,1.273.263c-.12-.4-.209-.8-.3-1.2-.032-.141-.063-.284-.1-.427a1.117,1.117,0,0,1,1.193-1.365,9.706,9.706,0,0,0,1.1.013,14.521,14.521,0,0,1-.827-4.6,35.327,35.327,0,0,0-.917-6.083c-.1-.467-.209-.973-.327-1.539A19.656,19.656,0,0,0,900.39,17.91a1.117,1.117,0,0,1,1.111-1.937,21.923,21.923,0,0,1,10.4,14.337c.117.561.225,1.062.324,1.525a37.527,37.527,0,0,1,.963,6.4c.093,1.408.267,4.028,1.258,4.72a1.116,1.116,0,0,1-.346,1.993,10.656,10.656,0,0,1-2.106.259,3.7,3.7,0,0,0,.58,1.265,1.117,1.117,0,0,1-.852,1.791,14.117,14.117,0,0,1-2.775-.186,3.12,3.12,0,0,0,.55,1.5,1.117,1.117,0,0,1-.955,1.694" transform="translate(-691.519 -12.161)"/><path d="M919.292,162.688a1.113,1.113,0,0,1-.8-.335l-1.346-1.372a1.117,1.117,0,0,1,1.594-1.564l1.346,1.372a1.117,1.117,0,0,1-.8,1.9" transform="translate(-704.584 -122.255)"/><path d="M821.913,90.157a1.136,1.136,0,0,1-.237-.025,19.526,19.526,0,0,1-8.035-4.191,3.847,3.847,0,0,0-.263.786,1.116,1.116,0,0,1-1.736.7c-.357-.25-.716-.491-1.072-.731-2-1.348-4.073-2.741-5.217-5.217a1.117,1.117,0,0,1,2.027-.936c.865,1.874,2.47,2.976,4.334,4.231a4.1,4.1,0,0,0,.318-.867,1.117,1.117,0,0,1,1.8-.668c2.809,2.257,5.2,4.037,8.318,4.708a1.117,1.117,0,0,1-.234,2.209" transform="translate(-618.835 -61.4)"/><path d="M891.733,106.861a1.114,1.114,0,0,1-.486-.112,17.545,17.545,0,0,1-3.766-2.463,1.117,1.117,0,0,1,1.452-1.7,15.308,15.308,0,0,0,3.286,2.149,1.117,1.117,0,0,1-.487,2.122" transform="translate(-681.73 -78.634)"/><path d="M914.573,101.88a1.113,1.113,0,0,1-.485-.112,17.534,17.534,0,0,1-3.766-2.463,1.117,1.117,0,1,1,1.452-1.7,15.306,15.306,0,0,0,3.287,2.149,1.117,1.117,0,0,1-.487,2.122" transform="translate(-699.282 -74.806)"/><path d="M796.7,112.069a1.019,1.019,0,0,1-.687-.265,2.476,2.476,0,0,0-2.375-.212A1.024,1.024,0,1,1,792.358,110c1.5-1.21,4.023-.628,5.034.288a1.024,1.024,0,0,1-.688,1.782" transform="translate(-608.635 -84.007)"/><path d="M798.693,127.894a1.425,1.425,0,0,1-1.122-.816,3.091,3.091,0,0,1-.133-1.613,1.183,1.183,0,0,1,.4-.715,1.108,1.108,0,0,1,1.095-.2,1.32,1.32,0,0,1,.817,1,3.472,3.472,0,0,1-.077,1.6,1.024,1.024,0,0,1-.983.739" transform="translate(-612.792 -95.669)"/><path d="M794.411,183.42a5.479,5.479,0,0,1-2.376-.543,1.024,1.024,0,0,1,.886-1.845,3.508,3.508,0,0,0,3.889-.609,1.024,1.024,0,0,1,1.384,1.509,5.594,5.594,0,0,1-3.783,1.489" transform="translate(-608.233 -138.448)"/><path d="M815.872,219.292a1.117,1.117,0,0,1-1.072-1.431c.946-3.232,4.245-6.259,9.292-8.524a37.6,37.6,0,0,1,14.429-3.214h.006a1.117,1.117,0,0,1,1.039.707c.443,1.124.967,2.178,1.521,3.294s1.12,2.255,1.6,3.468a1.117,1.117,0,0,1-2.078.819c-.443-1.124-.967-2.178-1.521-3.294-.44-.887-.893-1.8-1.3-2.747-8.517.285-19.235,4.627-20.842,10.118a1.117,1.117,0,0,1-1.071.8" transform="translate(-626.139 -158.406)"/><path d="M848.34,240.125a1.117,1.117,0,0,1-.165-2.221l16.2-2.431a1.117,1.117,0,0,1,.332,2.208l-16.2,2.431a1.144,1.144,0,0,1-.167.013" transform="translate(-651.093 -180.952)"/><path d="M574.248,372.8a1.117,1.117,0,0,1-.941-1.716c2.507-3.939,5.349-8.4,9.825-10.054a1.117,1.117,0,0,1,.773,2.1c-3.77,1.391-6.4,5.517-8.715,9.157a1.116,1.116,0,0,1-.943.517" transform="translate(-440.453 -277.396)"/><path d="M620.426,366.893a1.11,1.11,0,0,1-.576-.161l-6.135-3.7a1.117,1.117,0,0,1,1.154-1.912l6.135,3.7a1.117,1.117,0,0,1-.578,2.073" transform="translate(-471.225 -277.397)"/><path d="M580.981,409.609a1.11,1.11,0,0,1-.612-.183c-1.017-.668-1.95-1.389-2.937-2.153-1.13-.874-2.3-1.778-3.8-2.774a1.117,1.117,0,1,1,1.234-1.861c1.57,1.041,2.825,2.012,3.933,2.869.952.736,1.851,1.432,2.8,2.052a1.117,1.117,0,0,1-.614,2.05" transform="translate(-440.452 -309.284)"/><path d="M617.224,394.555a.931.931,0,0,1-.779-1.439,67.651,67.651,0,0,1,4.411-6.053.93.93,0,1,1,1.442,1.176A65.886,65.886,0,0,0,618,394.133a.929.929,0,0,1-.781.423" transform="translate(-473.622 -297.196)"/><path d="M664.8,386.994a1.111,1.111,0,0,1-.487-.113c-6.317-3.069-9.2-4.38-17.121-7.8a1.117,1.117,0,0,1,.884-2.051c7.962,3.434,10.857,4.753,17.212,7.84a1.117,1.117,0,0,1-.489,2.121" transform="translate(-496.852 -289.679)"/><path d="M719.4,294.609a1.117,1.117,0,0,1-1-1.616c1.311-2.62,2.771-6.382,4.317-10.364,4.847-12.487,10.88-28.028,19.917-30.23a1.117,1.117,0,1,1,.529,2.17c-7.905,1.927-13.95,17.5-18.363,28.868-1.566,4.033-3.044,7.842-4.4,10.555a1.117,1.117,0,0,1-1,.617" transform="translate(-552.001 -193.943)"/><path d="M633.142,425.466c-4.456,0-8.832-2.317-12.789-4.413-.626-.332-1.246-.66-1.859-.976a97.315,97.315,0,0,1-18.534-13,1.117,1.117,0,1,1,1.465-1.686,95.076,95.076,0,0,0,18.091,12.7c.621.32,1.248.652,1.882.987,4.835,2.56,9.835,5.208,14.6,3.731,5.759-1.787,11.734-10.882,18.933-23.987a1.117,1.117,0,1,1,1.957,1.075c-7.673,13.968-13.734,23.03-20.229,25.045a11.772,11.772,0,0,1-3.513.523" transform="translate(-460.775 -306.051)"/><path d="M927.766,348.6h-.028a1.117,1.117,0,0,1-1.089-1.143c.183-7.546.024-19.039-.13-30.154-.154-11.136-.313-22.65-.13-30.239.3-12.587.939-38.78-7.458-43.505a1.117,1.117,0,0,1,1.1-1.946c4.173,2.349,6.78,8.6,7.968,19.1.963,8.509.829,18.091.627,26.4-.183,7.546-.024,19.039.13,30.154.154,11.135.313,22.65.13,30.239a1.117,1.117,0,0,1-1.116,1.09" transform="translate(-705.762 -185.57)"/><path d="M802.667,547.33a25.667,25.667,0,0,1-9.793-2c-1.72-.741-3.407-1.6-5.038-2.427a48.673,48.673,0,0,0-8.541-3.686c-5.375-1.542-10.8,3.457-12.329,5.026a1.117,1.117,0,0,1-1.915-.78c0-5.1-.014-10.072-.028-15.336-.025-9.1-.051-18.5,0-28.461a1.117,1.117,0,1,1,2.233.012c-.051,9.952-.025,19.352,0,28.443.012,4.2.024,8.514.027,12.791,2.883-2.411,7.609-5.281,12.628-3.841a51.1,51.1,0,0,1,8.936,3.841c1.6.813,3.255,1.654,4.91,2.367,4.009,1.727,10.368,2.685,14.855.707a1.117,1.117,0,0,1,.9,2.044,17.06,17.06,0,0,1-6.846,1.3" transform="translate(-587.898 -383.141)"/><path d="M905.771,795.086a1.117,1.117,0,0,1-.111-2.228c1.783-.18,3.533-.419,5.117-.7.828-20.233,1.354-37.542,1.91-55.851.372-12.235.756-24.888,1.243-38.682a1.117,1.117,0,0,1,2.232.079c-.487,13.789-.871,26.438-1.243,38.671-.564,18.583-1.1,36.135-1.947,56.766a1.116,1.116,0,0,1-.9,1.051c-1.864.358-4,.664-6.182.885a1.118,1.118,0,0,1-.114.006" transform="translate(-695.229 -535.301)"/><path d="M902.714,1136.683a1.117,1.117,0,0,1-.072-2.231c.409-.027.786-.043,1.137-.058,1.7-.072,2.48-.1,3.734-1.186,1.365-1.177,1.3-2.729,1.07-5.163-.091-.982-.337-2.291-.621-3.806-.393-2.1-.884-4.711-1.218-7.762a1.117,1.117,0,1,1,2.22-.243c.325,2.967.806,5.532,1.193,7.593.294,1.57.549,2.926.65,4.011.221,2.377.472,5.072-1.835,7.061a7.017,7.017,0,0,1-5.1,1.726c-.335.014-.694.029-1.084.055l-.075,0" transform="translate(-692.879 -857.062)"/><path d="M907.2,1176.5a1.117,1.117,0,0,1-.028-2.233c1.136-.029,2.257-.063,3.332-.1a1.117,1.117,0,0,1,.079,2.232c-1.083.038-2.211.072-3.353.1H907.2" transform="translate(-696.329 -902.347)"/><path d="M778.577,790.3a1.117,1.117,0,0,1-1.113-1.044l-.405-6.216c-1.954-29.978-4.168-63.956-7.112-94.092a1.117,1.117,0,0,1,2.223-.217c2.947,30.171,5.163,64.169,7.118,94.164l.405,6.216a1.117,1.117,0,0,1-1.042,1.187l-.074,0" transform="translate(-591.7 -528.511)"/><path d="M813.636,1124.68c-1.329,0-2.64-.041-3.9-.132a25.256,25.256,0,0,1-6.577-1.209,1.117,1.117,0,0,1,.758-2.1,23.094,23.094,0,0,0,5.98,1.083,71.669,71.669,0,0,0,16.793-1.056,1.117,1.117,0,0,1,.421,2.193,76.82,76.82,0,0,1-13.481,1.222" transform="translate(-616.664 -861.621)"/><path d="M733.011,1146.3a11.076,11.076,0,0,1-3.985-.6,5.2,5.2,0,0,1-3.529-4.365c-.255-4.632,1.544-6.081,3.1-6.481,8.658-2.229,11.733-5.2,15.293-8.644.673-.65,1.368-1.322,2.114-2a1.117,1.117,0,0,1,1.5,1.653c-.721.655-1.4,1.315-2.064,1.953-3.63,3.509-7.059,6.824-16.288,9.2-1.349.347-1.519,2.473-1.424,4.2a3.114,3.114,0,0,0,2.1,2.4,11.238,11.238,0,0,0,4.172.432c1.758-.037,3.539-.068,5.335-.1,6.7-.117,13.634-.238,20.184-.67.4-.026.811-.044,1.229-.063,2-.087,4.073-.177,5.335-1.265,1.365-1.177,1.3-2.729,1.07-5.163-.091-.982-.337-2.291-.621-3.806-.394-2.1-.884-4.711-1.218-7.762a1.117,1.117,0,1,1,2.22-.243c.325,2.966.806,5.532,1.193,7.593.294,1.57.549,2.925.65,4.011.221,2.377.472,5.072-1.835,7.061-1.849,1.594-4.424,1.706-6.7,1.8-.4.018-.8.035-1.179.06-6.6.436-13.563.558-20.292.675-1.793.031-3.573.062-5.328.1-.329.007-.677.014-1.036.014" transform="translate(-557.526 -863.736)"/><path d="M748.293,1187.911a1.117,1.117,0,0,1-.039-2.233c5.669-.2,11.041-.243,16.235-.285s10.537-.086,16.177-.284a1.117,1.117,0,1,1,.078,2.232c-5.67.2-11.042.243-16.237.285-5.18.042-10.536.086-16.175.284h-.04" transform="translate(-574.206 -910.757)"/><path d="M906.022,812.054h-.01A1.042,1.042,0,0,1,904.98,811c.295-32.118.89-46.389,2.074-74.82.148-3.548.3-7.322.472-11.383a1.042,1.042,0,1,1,2.082.086c-.167,4.061-.324,7.835-.472,11.384-1.184,28.409-1.778,42.668-2.072,74.753a1.042,1.042,0,0,1-1.042,1.032" transform="translate(-695.478 -556.241)"/><path d="M862.276,295.973h-.039a.931.931,0,0,1-.891-.968,19.077,19.077,0,0,0-3.9-12.25.931.931,0,0,1,1.474-1.137,20.967,20.967,0,0,1,4.283,13.463.93.93,0,0,1-.929.892" transform="translate(-658.801 -216.145)"/><path d="M531.924,311.368a1.112,1.112,0,0,1-.632-.2c-.2-.137-.429-.286-.673-.445a11.323,11.323,0,0,1-2.982-2.445c-.9-1.274-2.2-3.047-3.454-4.762s-2.562-3.505-3.476-4.793a8.87,8.87,0,0,0-2.419-2.613c-1.6-.95-6.66-1.855-8.637-1.04a1.117,1.117,0,0,1-.85-2.065c2.947-1.214,8.736.06,10.629,1.185a10.688,10.688,0,0,1,3.1,3.241c.9,1.275,2.2,3.05,3.457,4.767s2.56,3.5,3.472,4.788a10.3,10.3,0,0,0,2.376,1.864c.262.171.509.331.722.477a1.117,1.117,0,0,1-.634,2.037" transform="translate(-390.483 -224.798)"/><path d="M526.148,356.927a1.128,1.128,0,0,1-.114-.006,13.174,13.174,0,0,1-6.749-2.806c-2.328-1.765-3.094-3.35-4.62-6.508a1.117,1.117,0,1,1,2.011-.972c1.564,3.236,2.145,4.325,3.958,5.7a11.042,11.042,0,0,0,5.625,2.364,1.117,1.117,0,0,1-.112,2.228" transform="translate(-395.435 -265.905)"/><path d="M487.817,330.433a1.141,1.141,0,0,1-.193-.017c-.7-.122-2.073-.529-3.524-.959-1.157-.343-2.352-.7-2.9-.81a3.8,3.8,0,0,1-1.865-.87,3.092,3.092,0,0,1-.674-2.577c.221-1.427,1.315-2.064,3.254-1.892l.164.014a66.449,66.449,0,0,1,7.192,1.169,1.117,1.117,0,1,1-.494,2.178,63.142,63.142,0,0,0-6.866-1.12l-.193-.016a3.314,3.314,0,0,0-.847,0s0,.007,0,.012a1.589,1.589,0,0,0,.03.637,1.863,1.863,0,0,0,.749.282c.645.132,1.833.484,3.091.857s2.7.8,3.272.9a1.117,1.117,0,0,1-.19,2.217" transform="translate(-367.816 -248.442)"/><path d="M480.627,316.737a.932.932,0,0,1-.437-.109,2.185,2.185,0,0,1-1.058-2.118A2.9,2.9,0,0,1,480.685,312c1.544-.907,8.624.214,11.184,1.109a.93.93,0,1,1-.614,1.757c-2.907-1.017-8.711-1.6-9.647-1.249a1.086,1.086,0,0,0-.614.867c0,.379.051.475.073.5a.929.929,0,0,1-.439,1.75" transform="translate(-368.213 -239.517)"/><path d="M492.569,304.925a.92.92,0,0,1-.193-.02.93.93,0,0,1-.718-1.1,3.14,3.14,0,0,1,2.533-2.3,7.3,7.3,0,0,1,2.744.107l.126.022c.5.086,1,.166,1.48.245,1.581.257,3.074.5,4.752.9a.931.931,0,0,1-.432,1.81c-1.613-.385-3.073-.623-4.62-.875-.489-.08-.985-.16-1.494-.247l-.128-.022a5.737,5.737,0,0,0-2.051-.118,1.375,1.375,0,0,0-1.09.862.931.931,0,0,1-.91.738" transform="translate(-377.824 -231.633)"/><path d="M564.621,388.447a1.112,1.112,0,0,1-.679-.231c-1.429-1.1-2.113-1.606-3.641-2.636a1.117,1.117,0,0,1,1.248-1.852c1.581,1.065,2.284,1.59,3.752,2.716a1.117,1.117,0,0,1-.68,2" transform="translate(-430.213 -294.749)"/><path d="M489.283,87.343h.019a1.864,1.864,0,0,0,1.32-.562h0a1.875,1.875,0,0,0-.027-2.651l-2.9-2.837a1.875,1.875,0,1,0-2.625,2.678l2.9,2.837a1.861,1.861,0,0,0,1.312.536" transform="translate(-372.349 -62.062)" fill="#eb613d"/><path d="M586.016,79.928a1.722,1.722,0,0,0-1.237-.516h-.018a1.861,1.861,0,0,0-1.323.586l-2.772,2.928a1.94,1.94,0,0,0-.533,1.309,1.809,1.809,0,0,0,.515,1.306,1.72,1.72,0,0,0,1.237.517h.018a1.861,1.861,0,0,0,1.324-.586L586,82.543a1.948,1.948,0,0,0,.329-.471,1.868,1.868,0,0,0-.312-2.144" transform="translate(-445.832 -61.028)" fill="#eb613d"/><path d="M555.053,67.852a1.861,1.861,0,0,0,.465.059,1.881,1.881,0,0,0,1.32-.541l.023-.023a1.879,1.879,0,0,0,.475-.844l1.009-3.926a1.875,1.875,0,1,0-3.631-.933L553.7,65.57a1.875,1.875,0,0,0,1.349,2.282" transform="translate(-425.476 -46.291)" fill="#eb613d"/><path d="M519.668,66.928a1.874,1.874,0,0,0,3.611-1.007l-1.089-3.9a1.865,1.865,0,0,0-.884-1.129h0a1.875,1.875,0,0,0-2.727,2.137Z" transform="translate(-398.475 -46.605)" fill="#eb613d"/></g></svg>