<svg xmlns="http://www.w3.org/2000/svg" xmlns:xlink="http://www.w3.org/1999/xlink" width="342.407" height="293.563" viewBox="0 0 342.407 293.563"><defs><clipPath id="a"><rect width="223.408" height="282.563" fill="none"/></clipPath></defs><g transform="translate(118.999 11)"><g transform="translate(-345 -260)"><path d="M9598,12805a57,57,0,1,1,102.516,34.316l4.261,13.605-15.295-2.53A57,57,0,0,1,9598,12805Z" transform="translate(-9372 -12499)" fill="#fff"/><path d="M-32.5-12.788l1.992.615a28.221,28.221,0,0,1-1.143,2.827V1.436h-2.065V-5.8a10.686,10.686,0,0,1-.732.908A11.51,11.51,0,0,0-34.885-6.1a9.037,9.037,0,0,0-.571-1.194,12.733,12.733,0,0,0,1.685-2.461A16.771,16.771,0,0,0-32.5-12.788Zm7,9.448V-4.482h-.952V-3.34Zm1.86-3.721h-1.523v1.1h1.289V-1.89h-4.116V-5.962h1.157v-1.1h-1.406V-8.613h1.406v-1.436h1.67v1.436h1.523ZM-28.5-1.333h5.1v-8.921h-5.1Zm-1.978-10.8h9.155v13.4H-23.4V.542h-5.1v.864h-1.978Zm15.908-.4h2.52q-.015.4-.044,1,.029.571.1,1.15t.256,1.494a16.653,16.653,0,0,0,.461,1.75,12.779,12.779,0,0,0,.769,1.816,11.159,11.159,0,0,0,1.135,1.8A10.473,10.473,0,0,0-7.786-1.9,9.908,9.908,0,0,0-5.691-.571a6,6,0,0,0-1.685,1.86,11.692,11.692,0,0,1-5.771-7.031A13.17,13.17,0,0,1-18.464,1.3a6.88,6.88,0,0,0-1.86-1.758,11.584,11.584,0,0,0,1.6-1.143,12.072,12.072,0,0,0,1.282-1.252,8.6,8.6,0,0,0,.974-1.377,15.385,15.385,0,0,0,.718-1.4,10.449,10.449,0,0,0,.505-1.436q.22-.791.33-1.355t.183-1.3q.073-.732.1-1.128t.044-.974Q-14.568-12.393-14.568-12.524ZM2.087-2.241H6.072v-.41H2.087ZM6.072-4.614H2.087v.454H6.072ZM8.123-6.182V-.557a2.88,2.88,0,0,1-.168,1.1,1.16,1.16,0,0,1-.608.6,6.3,6.3,0,0,1-2.417.308A6.71,6.71,0,0,0,4.358-.4q.352.029,1.436.029.278,0,.278-.234V-.762H2.087V1.45H.081V-6.182ZM.022-9.961h2.93v-.41H-.4q.293.674.425,1ZM5.1-8.13h3.94v1.523H-.886V-8.13H2.952v-.41H.022v-.044l-1.143.542a10.015,10.015,0,0,0-.352-1.1V1.421H-3.45V-7.515a17.65,17.65,0,0,1-.366,2.227L-5.383-5.83A19.689,19.689,0,0,0-4.8-9.814l1.348.176v-3.193h1.978V-10.5l.85-.352.205.454V-11.88H2.952v-.952H5.1v.952H8.577v1.509H5.1v.41H8.137V-8.54H5.1Zm9.272,2.417-.439-.117q.278-.791.439-1.421H12.458a5.731,5.731,0,0,1,.41,1.421l-.425.117Zm.029-4.116v.776H16.78v1.8H15.725l.5.132q-.352.791-.615,1.406h.923V-3.9H14.407V-3h1.978v1.816H14.407V1.377H12.4V-1.187H10.291V-3H12.4V-3.9H10.173V-5.713h.967a7.415,7.415,0,0,0-.425-1.406l.483-.132H9.822v-1.8H12.4v-.776H10.349v-1.787H12.4v-1.143h2.007v1.143h1.831v1.787Zm4.5,5.7V-.454A8.823,8.823,0,0,0,20-1.685,13.392,13.392,0,0,1,18.9-4.131ZM21.57-5.3H20.281a9.859,9.859,0,0,0,.762,1.7A10.67,10.67,0,0,0,21.57-5.3Zm.952-1.787,1.289.454a15.914,15.914,0,0,1-1.45,4.878A7.428,7.428,0,0,0,24.309-.249,6.8,6.8,0,0,0,22.9,1.45,8.044,8.044,0,0,1,21.233.029,8.873,8.873,0,0,1,19.812,1.45,5.785,5.785,0,0,0,18.9.425v.981H16.941V-12.231h6.5v2.813a2.672,2.672,0,0,1-.183,1.1,1.217,1.217,0,0,1-.652.6,7.414,7.414,0,0,1-2.563.293,6.577,6.577,0,0,0-.586-1.86q.615.029,1.685.029.293-.015.293-.205v-.879H18.9v3.325H22.17Zm2.622-1v-2.021h3.149q.161-.527.256-.857l.1-.33h2.212a1.509,1.509,0,0,0-.088.322,8.361,8.361,0,0,1-.264.864h3.34v2.021H29.539a1.824,1.824,0,0,1-.176.366q-.176.322-.308.6.015-.015.168-.125a.905.905,0,0,1,.256-.139A1.7,1.7,0,0,1,31.011-7.4a1.753,1.753,0,0,1,.74,1.1q.82-.439,1.545-.747t1.157-.469l.432-.161V-5.3q-.015,0-.454.146t-1.135.4q-.7.249-1.414.571v2.051H29.875V-3.193a1.6,1.6,0,0,1-.139.1,2.3,2.3,0,0,1-.212.125q-.63.527-.527.981t1.069.483a18.533,18.533,0,0,0,1.941-.125q.916-.11,1.5-.22t.6-.125V.439A8.747,8.747,0,0,1,33,.579a30.4,30.4,0,0,1-3.069.1,3.5,3.5,0,0,1-1.9-.557,2.351,2.351,0,0,1-.967-1.311,2.466,2.466,0,0,1,.154-1.685A4.1,4.1,0,0,1,28.66-4.526q.308-.205.608-.4t.608-.381a.51.51,0,0,0-.132-.366.569.569,0,0,0-.439-.059,2.574,2.574,0,0,0-.7.344,8.357,8.357,0,0,0-.872.659q-.454.388-.85.74-.718.791-1.238,1.3t-.549.52V-4.893a4.561,4.561,0,0,0,.359-.315,7.035,7.035,0,0,0,.784-.886q.439-.571.923-1.318.1-.176.212-.41t.125-.264ZM-13.066,10.9h-1.187a18.147,18.147,0,0,0,.659,2.7A16.9,16.9,0,0,0-13.066,10.9Zm-5.7,1.494.4-.1.542.439a9.5,9.5,0,0,0,.615-.879h-1.509q-.337.4-.469.542Zm-1.348-3.164v.762h.293q.146-.19.513-.762ZM-9.976,10.9h-.85a16.722,16.722,0,0,1-1.494,5.376,6.9,6.9,0,0,0,2.534,2.256,7.257,7.257,0,0,0-.82.886,7.163,7.163,0,0,0-.7,1.018,8.3,8.3,0,0,1-2.373-2.168,9.725,9.725,0,0,1-2.988,2.227,8.056,8.056,0,0,0-.549-1.011,7.512,7.512,0,0,0-.7-.981,7.013,7.013,0,0,0,3.062-2.3,18.124,18.124,0,0,1-.864-2.49,5.365,5.365,0,0,1-.5.7,9.657,9.657,0,0,0-1.1-1.069,16.843,16.843,0,0,1-2.036,2.065v.132q.278-.015,1.165-.081t1.355-.1v1.846q-.718.059-2.52.19v1.055a2.878,2.878,0,0,1-.161,1.084,1.142,1.142,0,0,1-.586.586,5.89,5.89,0,0,1-2.271.308,6.414,6.414,0,0,0-.6-1.846q.5.015,1.333.015.249,0,.249-.205v-.82l-2.681.19-.205-1.919q.4-.015,1.362-.073t1.523-.088V14.605h.63q.264-.249.542-.542h-.718A16.428,16.428,0,0,1-23.042,15.5a9.035,9.035,0,0,0-1.436-1.655,12.67,12.67,0,0,0,1.611-.937v-.513h.7q.542-.439.659-.542h-2.622V9.991h2.007V9.229h-1.553V7.413h1.553V6.168h2.007V7.413h1.245V8.482a12.544,12.544,0,0,0,.894-1.934l2.007.571a18.724,18.724,0,0,1-1.421,2.871h.63v.967a17.157,17.157,0,0,0,1.289-4.8l2.2.352q-.176,1.069-.5,2.388h3.794Zm2.8-2.93.4-.022q.4-.022,1.077-.029t1.531.022q.85.029,1.582.11t1.179.154q.447.073.476.073V10.3q-.029-.015-.476-.11t-1.179-.176q-.732-.081-1.6-.1-1.318-.015-2.146.007l-.842.022ZM-8.35,10.914H-.937V12.73l-1.611,1.553a.837.837,0,0,1,.623.564,2.768,2.768,0,0,1,.081.769v1.245A.8.8,0,0,0-1.8,17.2q.044.073.278.073A4.009,4.009,0,0,0-.564,17.2a9.335,9.335,0,0,0,1-.22q.4-.117.417-.117V19.1a9.573,9.573,0,0,1-2.71.41,2.3,2.3,0,0,1-1.56-.469A2.055,2.055,0,0,1-3.9,17.462V16.026q0-.015-.007-.117a.391.391,0,0,0-.051-.176q-.044-.073-.146,0L-8.5,19.864V16.773l4.336-3.838H-8.35ZM2.4,11.031V8.951H8.057V7.442h2.08V8.951h2.2v2.08h-2.2V13.9a5.994,5.994,0,0,1,.425,1.758,6.937,6.937,0,0,1-.205,2.153,7.03,7.03,0,0,1-.879,1.948H7.236a5.56,5.56,0,0,0,.571-1.1,10.074,10.074,0,0,0,.352-1.04q.117-.439.117-.469a3.571,3.571,0,0,1-.828.784,2.051,2.051,0,0,1-1.018.286,2.575,2.575,0,0,1-1.479-.4,2.8,2.8,0,0,1-1.011-1.2,4.241,4.241,0,0,1-.352-1.868,3.822,3.822,0,0,1,.439-1.685,2.858,2.858,0,0,1,1.113-1.179,3.429,3.429,0,0,1,1.729-.4,2.88,2.88,0,0,1,.718.139,1.968,1.968,0,0,1,.469.212v-.806Zm5.815,3.735L8.2,14.605a2.062,2.062,0,0,0-.117-.454,1.5,1.5,0,0,0-.337-.505,1.283,1.283,0,0,0-.879-.33,1.27,1.27,0,0,0-1.04.432,1.587,1.587,0,0,0-.293.959,1.522,1.522,0,0,0,.381,1.143,1.129,1.129,0,0,0,1,.278,1.4,1.4,0,0,0,.835-.425,1.838,1.838,0,0,0,.374-.615A2.814,2.814,0,0,0,8.218,14.767Zm2.432-6.255V6.4H11.66V8.512Zm1.582,0V6.4h1.011V8.512Zm5.742.161H23.54v2.241H17.974Zm.132,5.2h2.036a6.309,6.309,0,0,0-.41.923,2.977,2.977,0,0,0-.146.85,1.086,1.086,0,0,0,.1.527.9.9,0,0,0,.476.41,2.85,2.85,0,0,0,1.062.176,17.108,17.108,0,0,0,1.9-.081,6.017,6.017,0,0,0,.674-.1v2.329a8.352,8.352,0,0,1-1.077.117q-.593.029-1.648.044a3.955,3.955,0,0,1-2.607-.842,2.682,2.682,0,0,1-.937-1.97,4.261,4.261,0,0,1,.117-1.282A5.3,5.3,0,0,1,18.105,13.873ZM14.824,8.028h2.2Q16.8,9.728,16.7,11t-.117,2.607q.029,1.406.154,2.71t.4,3.018H14.868q-.234-1.641-.344-2.93T14.4,13.653q.015-1.377.117-2.659T14.824,8.028ZM33.362,27.673h5.566v2.241H33.362Zm.132,5.2H35.53a6.309,6.309,0,0,0-.41.923,2.977,2.977,0,0,0-.146.85,1.086,1.086,0,0,0,.1.527.9.9,0,0,0,.476.41,2.85,2.85,0,0,0,1.062.176,17.108,17.108,0,0,0,1.9-.081,6.017,6.017,0,0,0,.674-.1v2.329a8.352,8.352,0,0,1-1.077.117q-.593.029-1.648.044a3.955,3.955,0,0,1-2.607-.842,2.682,2.682,0,0,1-.937-1.97,4.261,4.261,0,0,1,.117-1.282A5.3,5.3,0,0,1,33.494,32.873Zm-3.281-5.845h2.2q-.22,1.7-.322,2.974t-.117,2.607q.029,1.406.154,2.71t.4,3.018H30.256q-.234-1.641-.344-2.93t-.125-2.754q.015-1.377.117-2.659T30.212,27.028ZM-30.732,47.9l2.065.806a16.712,16.712,0,0,1-2.285,2.314l1.787-.513a8.471,8.471,0,0,0,1.509,2.476,8.228,8.228,0,0,0,1.523-2.563l2.329.674a29.106,29.106,0,0,0-2.637-2.153l1.406-1.04Zm10,2.842-1.963,1.494a9.219,9.219,0,0,0-1.1-1.128,12.283,12.283,0,0,1-2.168,3.34,13.558,13.558,0,0,0,5.42,1.9,6.575,6.575,0,0,0-.769.974,9.409,9.409,0,0,0-.652,1.106,13.067,13.067,0,0,1-5.771-2.446,16.887,16.887,0,0,1-5.7,2.461,9.142,9.142,0,0,0-.615-1.033A9.626,9.626,0,0,0-34.8,56.4a14.6,14.6,0,0,0,5.464-1.992,14.485,14.485,0,0,1-1.89-3.164A18.431,18.431,0,0,1-32.812,52.4a12.083,12.083,0,0,0-1.846-1.7,12.107,12.107,0,0,0,2.043-1.252A8.931,8.931,0,0,0-30.981,47.9h-3.4V45.779h5.537V44.139h2.256v1.641h5.6V47.9h-3.223A22.55,22.55,0,0,1-20.728,50.745Zm10-3.9h-1.436a9.038,9.038,0,0,1-.7.85h1.685A7.727,7.727,0,0,0-10.723,46.849Zm2.666,3.325v-.791H-8.8v.6a.54.54,0,0,0,.037.256.181.181,0,0,0,.154.051h.337A.223.223,0,0,0-8.057,50.174Zm-4.761-.791v1.2a1.7,1.7,0,0,0,.615-1.2Zm-2.4,1.1.264,1.948q-.615.19-1.318.366v3.4a3.654,3.654,0,0,1-.146,1.165,1.312,1.312,0,0,1-.513.667,4.13,4.13,0,0,1-2.183.41,6.523,6.523,0,0,0-.542-2.021,9.536,9.536,0,0,0,1.157.015.287.287,0,0,0,.183-.044.254.254,0,0,0,.051-.19V53.338l-1.216.337-.454-2.095q.19-.029,1.67-.352V48.914h-1.406V46.922h1.406V44.2h1.992v2.725h1.2v.22a6.3,6.3,0,0,0,2.2-3.018l1.992.322q-.176.41-.337.747h1.479l.293-.073,1.377.864A15.443,15.443,0,0,1-9.038,47.7h2.813v5H-8.057v-1.1h-.82a1.559,1.559,0,0,1-1.179-.33,2.048,2.048,0,0,1-.286-1.282v-.6h-.366a4,4,0,0,1-.461,1.575,2.612,2.612,0,0,1-1.179,1.018,2.579,2.579,0,0,0-.469-.7v1.436H-14.6V48.226q-.029-.029-.469-.425v1.113h-1.2v1.831Zm9.448,4.424H-8.833a4.416,4.416,0,0,0,3.311,1.67,4.252,4.252,0,0,0-.667.82,6.233,6.233,0,0,0-.535.981,5.139,5.139,0,0,1-3.735-2.432q-1.1,1.772-4.424,2.52a4.579,4.579,0,0,0-.439-.879,4.928,4.928,0,0,0-.6-.806,9.8,9.8,0,0,0,2.468-.754,3.2,3.2,0,0,0,1.311-1.121h-3.018V53.133h3.56q.015-.161.088-1.157h1.963q-.073,1.055-.088,1.157h3.867Zm8.438-3.413V49.383H3.677v2.109Zm1.582,0V49.383H5.259v2.109Zm1.025-5.3v2.241a6.127,6.127,0,0,0-2.512.769A7.083,7.083,0,0,0,.989,50.635,4.085,4.085,0,0,0,.073,52.2a2.214,2.214,0,0,0,.044,1.589,1.907,1.907,0,0,0,.857.864,2.709,2.709,0,0,0,1.018.3,10.86,10.86,0,0,0,1.128,0q.542-.029.959-.081t.432-.051v2.344a12.6,12.6,0,0,1-1.421.11q-.615.007-1.274-.037a5.846,5.846,0,0,1-1.436-.286,4.43,4.43,0,0,1-1.487-.8A3.464,3.464,0,0,1-2.131,54.7a4.6,4.6,0,0,1-.2-2.241,5.479,5.479,0,0,1,.564-1.685,6.281,6.281,0,0,1,.879-1.267,8.55,8.55,0,0,1,.813-.8,2.388,2.388,0,0,1,.366-.278H-4.336V46.189Zm2.124.674q.894.029,1.531.029h1.443q-.132-.615-.22-.952t-.088-.352h2.329q.044.293.117.586t.146.6q.894-.044,1.6-.125t1.157-.146q.447-.066.461-.066v2.08a21.584,21.584,0,0,1-2.725.264q.073.293.161.579t.161.579q.82-.073,1.6-.146t1.26-.132a3.119,3.119,0,0,0,.483-.073v2.124q-.762.117-1.37.183t-1.384.125q.293.952.469,1.509a4.738,4.738,0,0,0,.19.557H12.3q-.132-.454-.278-.945t-.278-.989q-.806.029-1.582.044t-1.479.015H7.09V50.115q1.3-.015,2.2-.029t1.882-.044q-.073-.308-.154-.593t-.139-.564q-.952.029-1.707.037t-1.26,0l-.52-.007ZM8.408,53.1h2.329a5.909,5.909,0,0,0-.461.784,1.316,1.316,0,0,0-.139.623.812.812,0,0,0,.117.447.8.8,0,0,0,.469.286,5.7,5.7,0,0,0,1.23.132q1.025,0,1.89-.073t1.948-.234V57.5q-.293.015-1.194.11t-2.732.11a5,5,0,0,1-2.974-.776,2.466,2.466,0,0,1-1.025-2.095,3.078,3.078,0,0,1,.146-.9A4.734,4.734,0,0,1,8.408,53.1Zm11.089-7h6.914v2.051L23.8,50.071a3.571,3.571,0,0,1,2.2.139,2.933,2.933,0,0,1,1.355,1.267,4.3,4.3,0,0,1,.513,2.021,3.87,3.87,0,0,1-.579,2.175,3.759,3.759,0,0,1-1.538,1.392,6.065,6.065,0,0,1-2.021.579,5.438,5.438,0,0,1-2.1-.176,2.6,2.6,0,0,1-1.326-.806,2.214,2.214,0,0,1-.476-1.421,2.7,2.7,0,0,1,.256-1.157,1.888,1.888,0,0,1,.9-.937,2.857,2.857,0,0,1,1.714-.161,2.926,2.926,0,0,1,1.523.718,3.9,3.9,0,0,1,.908,1.348,1.827,1.827,0,0,0,.454-.718,2.471,2.471,0,0,0,.117-.864,1.426,1.426,0,0,0-.52-1.179,2.636,2.636,0,0,0-1.707-.388,4.893,4.893,0,0,0-1.912.4,6.158,6.158,0,0,0-1.37.886l-1.729,1.436V51.844l4.57-3.457H19.5Zm2.813,8.32a.593.593,0,0,0-.586.264.637.637,0,0,0-.015.608.979.979,0,0,0,.645.491,2.59,2.59,0,0,0,1.274.029,1.63,1.63,0,0,0-.461-.916A1.506,1.506,0,0,0,22.31,54.422Zm8.232-8.379h3.047l-.366,7.5H30.908ZM30.762,57V54.744h2.607V57Z" transform="translate(283 283)" fill="#313131"/><path d="M-1.465-3.926V-6.87h2.93v2.944Z" transform="translate(277 321)" fill="#c60040"/><path d="M-31.113-9.609V-7.9h-2.212v-3.735h5.244v-1.216h2.344v1.216h5.391V-7.9h-2.329V-9.609Zm6.079,4.351h-3.032q-.146.293-.425.813t-.366.7q1.333.4,2.534.835A5.412,5.412,0,0,0-25.034-5.259Zm4.907,0H-22.5A9.515,9.515,0,0,1-24.17-2.08a26.965,26.965,0,0,1,3.5,1.67l-1.787,1.772a24.291,24.291,0,0,0-3.53-1.846,15.252,15.252,0,0,1-6.05,1.9,5.4,5.4,0,0,0-.513-1,8.454,8.454,0,0,0-.7-1,16.338,16.338,0,0,0,4.746-.937q-1.172-.425-1.3-.469l-.22.381-2.314-.615q.879-1.436,1.729-3.047h-2.959V-7.324h4.014q.688-1.421.967-2.109l2.314.483q-.132.308-.425.9t-.352.725h6.929ZM-9.2-7.119-7.192-8.13A16.487,16.487,0,0,1-5.53-5.449,12.438,12.438,0,0,1-4.512-2.783l-2.227,1.1a11.729,11.729,0,0,0-.9-2.681A16.423,16.423,0,0,0-9.2-7.119Zm-8.555-.366,2.139.439A29.734,29.734,0,0,1-16.15-3.64a7.737,7.737,0,0,1-.974,2.468l-2.065-1.172A11.681,11.681,0,0,0-17.754-7.485Zm2.813-3.6,1.421-1.685a18.763,18.763,0,0,1,2.637,1.208,19.3,19.3,0,0,1,2.329,1.472L-10-8.174a13.965,13.965,0,0,0-2.234-1.575A20.089,20.089,0,0,0-14.941-11.089Zm-.015,2.607h2.285v6.973a1.269,1.269,0,0,0,.117.7q.117.139.6.139h1.641a.633.633,0,0,0,.645-.491A10.344,10.344,0,0,0-9.434-3.34a5.24,5.24,0,0,0,2.021.923A6.229,6.229,0,0,1-8.137.505a2.247,2.247,0,0,1-1.97.8h-2.168A2.874,2.874,0,0,1-14.4.7a3.3,3.3,0,0,1-.557-2.212ZM7.617-9.609V-7.9H5.405v-3.735h5.244v-1.216h2.344v1.216h5.391V-7.9H16.055V-9.609ZM13.7-5.259H10.664q-.146.293-.425.813t-.366.7q1.333.4,2.534.835A5.412,5.412,0,0,0,13.7-5.259Zm4.907,0H16.23a9.515,9.515,0,0,1-1.67,3.179,26.965,26.965,0,0,1,3.5,1.67L16.274,1.362a24.291,24.291,0,0,0-3.53-1.846,15.252,15.252,0,0,1-6.05,1.9,5.4,5.4,0,0,0-.513-1,8.454,8.454,0,0,0-.7-1,16.338,16.338,0,0,0,4.746-.937q-1.172-.425-1.3-.469L8.7-1.6,6.387-2.212q.879-1.436,1.729-3.047H5.156V-7.324H9.17q.688-1.421.967-2.109l2.314.483q-.132.308-.425.9t-.352.725H18.6Zm4.863-2.2h6.768a15.948,15.948,0,0,1-3.428-3.311A15.334,15.334,0,0,1,23.467-7.456Zm4.512,5.171v1.45H33.34V1.1H20.508V-.835h5.156v-1.45H21.709V-4.16h3.955V-5.552H22.515v-1.23a16.714,16.714,0,0,1-1.611.967,7.474,7.474,0,0,0-.623-.916,7.865,7.865,0,0,0-.754-.857,14.987,14.987,0,0,0,3.53-2.4,13.084,13.084,0,0,0,2.52-2.922h2.285a15.094,15.094,0,0,0,2.9,3.105,12.746,12.746,0,0,0,3.486,2.036A11.134,11.134,0,0,0,32.813-5.8q-.732-.4-1.582-.952v1.2H27.979V-4.16h4v1.875Z" transform="translate(277 321)" fill="#c60040"/></g><g clip-path="url(#a)"><path d="M225.764,1123.547l-32.287,7.181a3.164,3.164,0,0,1-1.157.041l-50.593-7.591a3.166,3.166,0,0,1-2.7-3.131V1116.3a3.166,3.166,0,0,1,2.864-3.152l50.617-4.856a3.159,3.159,0,0,1,.78.022l32.263,4.922a3.166,3.166,0,0,1,2.689,3.13v4.092a3.166,3.166,0,0,1-2.479,3.091" transform="translate(-37.02 -851.711)" fill="#fff"/><path d="M188.466,1127.782a4.467,4.467,0,0,0,.969-.107l32.287-7.181a4.443,4.443,0,0,0,3.5-4.362v-4.092a4.444,4.444,0,0,0-3.795-4.418l-32.263-4.922a4.466,4.466,0,0,0-1.1-.03l-50.617,4.856a4.452,4.452,0,0,0-4.042,4.448v3.748a4.442,4.442,0,0,0,3.806,4.42l50.593,7.591a4.44,4.44,0,0,0,.664.05m32.69-9.831-32.287,7.181a1.855,1.855,0,0,1-.681.024l-50.593-7.591a1.852,1.852,0,0,1-1.587-1.843v-3.748a1.856,1.856,0,0,1,1.685-1.855l50.617-4.856a1.864,1.864,0,0,1,.459.013l32.263,4.922a1.853,1.853,0,0,1,1.583,1.842v4.092a1.852,1.852,0,0,1-1.459,1.819" transform="translate(-32.695 -847.387)"/><path d="M277.265,882.076l-12.445,3.39-27.8-4.095V802.938h40.247Z" transform="translate(-108.726 -617.058)" fill="#4d3833"/><path d="M260.494,882.445a1.3,1.3,0,0,0,.342-.046l12.445-3.39a1.3,1.3,0,0,0,.96-1.257V798.614a1.3,1.3,0,0,0-1.3-1.3H232.691a1.3,1.3,0,0,0-1.3,1.3v78.434a1.3,1.3,0,0,0,1.113,1.289l27.8,4.095a1.3,1.3,0,0,0,.19.014m11.143-5.688-11.222,3.057-26.42-3.891V799.916h37.642Z" transform="translate(-104.4 -612.734)" fill="#4d3833"/><path d="M150.914,340.3l-44.958,6.236a7.982,7.982,0,0,1-1.68.054l-91.255-6.7a7.977,7.977,0,0,1-7.393-7.956V213.85a7.977,7.977,0,0,1,7.564-7.966l83.844-4.344a7.983,7.983,0,0,1,1.042.014l52.369,4.141a7.977,7.977,0,0,1,7.348,7.952V332.4a7.977,7.977,0,0,1-6.881,7.9" transform="translate(64.31 -154.875)" fill="#eb613d"/><path d="M100.534,343.587a9.287,9.287,0,0,0,1.276-.088l44.958-6.236a9.319,9.319,0,0,0,8-9.192V209.321a9.327,9.327,0,0,0-8.548-9.251L93.856,195.93a9.239,9.239,0,0,0-1.211-.016L8.8,200.257A9.276,9.276,0,0,0,0,209.525V327.605a9.316,9.316,0,0,0,8.6,9.255l91.255,6.7q.339.025.679.025m-7.41-145.08c.176,0,.352.007.526.021l52.369,4.141a6.708,6.708,0,0,1,6.148,6.654v118.75a6.7,6.7,0,0,1-5.757,6.611l-44.958,6.236a6.706,6.706,0,0,1-1.406.045l-91.255-6.7a6.7,6.7,0,0,1-6.185-6.657V209.525a6.672,6.672,0,0,1,6.329-6.665l83.844-4.344q.172-.009.345-.009" transform="translate(68.636 -150.55)"/><path d="M228.849,380.121a1.3,1.3,0,0,0,1.3-1.3V274.012a1.3,1.3,0,0,0-2.605,0V378.819a1.3,1.3,0,0,0,1.3,1.3" transform="translate(-59.42 -209.577)"/><path d="M287.366,928.07a1.3,1.3,0,0,0,1.3-1.3V868.056a1.3,1.3,0,0,0-2.605,0v58.712a1.3,1.3,0,0,0,1.3,1.3" transform="translate(-131.483 -666.1)" fill="#fff"/><path d="M302.318,349.368l-43.142-2.253V285.974l43.142.713Z" transform="translate(-138.909 -219.771)" fill="#fff"/><path d="M297.994,346.346a1.3,1.3,0,0,0,1.3-1.3V282.362a1.3,1.3,0,0,0-1.281-1.3l-43.142-.713a1.3,1.3,0,0,0-1.324,1.3V342.79a1.3,1.3,0,0,0,1.235,1.3l43.142,2.253.068,0m-1.3-62.7v60.027l-40.536-2.117v-58.58Z" transform="translate(-134.585 -215.446)"/><path d="M506.409,340.391,469,338.93V278.336l37.41,1.244Z" transform="translate(-391.574 -213.902)" fill="#fff"/><path d="M502.084,337.369a1.3,1.3,0,0,0,1.3-1.3v-60.81a1.3,1.3,0,0,0-1.26-1.3l-37.41-1.244a1.3,1.3,0,0,0-1.346,1.3v60.593a1.3,1.3,0,0,0,1.252,1.3l37.41,1.461h.051m-1.3-60.853v58.2l-34.8-1.36V275.358Z" transform="translate(-387.249 -209.577)"/><path d="M294.044,337.475l-32.174-1.5-.263-7.87,32.46,1.309Z" transform="translate(-131.22 -252.146)" fill="#eb613d"/><path d="M289.72,334.453a1.3,1.3,0,0,0,1.3-1.3l.023-8.065a1.3,1.3,0,0,0-1.25-1.305l-32.46-1.309a1.3,1.3,0,0,0-1.355,1.345l.263,7.871a1.3,1.3,0,0,0,1.241,1.258l32.174,1.5.061,0m-1.283-8.116-.015,5.449L258.808,330.4l-.176-5.267Z" transform="translate(-126.896 -247.821)"/><path d="M496.073,328.81l-26.6-1.278-.162-7.867,26.836,1.082Z" transform="translate(-381.385 -245.663)" fill="#eb613d"/><path d="M491.749,325.788a1.3,1.3,0,0,0,1.3-1.291l.075-8.063a1.3,1.3,0,0,0-1.25-1.314l-26.836-1.082a1.3,1.3,0,0,0-1.355,1.329l.162,7.867a1.3,1.3,0,0,0,1.24,1.274l26.6,1.278.063,0m-1.239-8.114-.051,5.446-24.031-1.155-.109-5.266Z" transform="translate(-377.062 -241.338)"/><path d="M335.11,242.4a1.3,1.3,0,0,0,.031-2.605l-80.391-1.973a1.3,1.3,0,1,0-.064,2.6l80.391,1.973h.033" transform="translate(-171.669 -182.769)" fill="#050505"/><path d="M591.412,284.882a1.3,1.3,0,0,0,.878-2.266l-10.5-9.568a1.3,1.3,0,0,0-1.755,1.926l10.5,9.568a1.3,1.3,0,0,0,.877.34" transform="translate(-503.486 -209.577)"/><path d="M580.477,393.774a1.3,1.3,0,0,0,1.264-.992l10.6-43.162a1.3,1.3,0,0,0-2.53-.622l-10.6,43.162a1.3,1.3,0,0,0,1.266,1.614" transform="translate(-503.051 -267.443)"/><path d="M407.617,292.7a1.3,1.3,0,0,0,.9-2.241l-10.12-9.753a1.3,1.3,0,0,0-1.808,1.876l10.119,9.753a1.3,1.3,0,0,0,.9.365" transform="translate(-277.23 -215.446)"/><path d="M396.364,402.595a1.3,1.3,0,0,0,1.266-1l10.382-43.517a1.3,1.3,0,1,0-2.534-.6L395.1,400.989a1.3,1.3,0,0,0,1.268,1.605" transform="translate(-276.096 -273.948)"/><path d="M400.69,610.293v4.731l26.295,1.627v-4.717Z" transform="translate(-296.335 -469.011)" fill="#fff"/><path d="M400.69,659.207l10.8.656v11.422l4.73.281V660.151l10.764.654v-4.717l-26.295-1.612Z" transform="translate(-296.335 -502.966)" fill="#fff"/><path d="M68.1,299.359v2.98l16.39-1.416.031-2.956Z" transform="translate(123.127 -228.988)" fill="#fff"/><path d="M68.387,329.915l6.729-.605-.031,7.074,2.923-.274.044-7.064,6.657-.6.031-2.932-16.354,1.445Z" transform="translate(122.836 -250.158)" fill="#fff"/><path d="M50.769,242.4l.075,0,34.6-1.973a1.3,1.3,0,0,0-.148-2.6L50.7,239.8a1.3,1.3,0,0,0,.073,2.6" transform="translate(125.288 -182.768)"/><path d="M794.334,65.322s-2.272,9.089,2.6,11.528c0,0,.583.849-.487,2.065s-1.762,2.162-2.227,5.123-.627,10.158-8.463,9.448l-4.883-.981-.806,3.488L765.93,91.376l2.147-15.1s-.254-5.4,3.815-5.828c0,0,1.206-17.3,14.241-15.495a10.568,10.568,0,0,1,8.2,10.37" transform="translate(-750.996 -42.129)" fill="#fff"/><path d="M481.95,314.264l3.011-1.7,9.393-12.949s8.109-3.244,10.57,0c0,0,3.635.168,4.026,2.461,0,0,3.325.171,2.391,3.165,0,0,1.066,1.893-.635,2.859s-6.886,1.98-6.886,1.98-4.3,8.363-10.521,9.042l-4.316,2.756Z" transform="translate(-399.834 -229.143)" fill="#fff"/><path d="M756.92,1118.613s7.876,7.64,14.623,9.687c0,0,5.938,1.09,6.1,3.82s-.113,6.315-3.927,6.463-32.035-.794-32.035-.794a5.755,5.755,0,0,1-4.628-1.976s-5.083.556-6.369-2.467,1.025-17.981,1.025-17.981l4.637.612.119,1.626Z" transform="translate(-723.33 -857.159)" fill="#fff"/><path d="M814.576,648.268l-7.52,103.212s-12.642,3.4-23.364.073l-.3-2.072-6.084-.87-3.19-97.476s16.383-26.483,40.46-2.868" transform="translate(-770.375 -490.663)" fill="#4d3833"/><path d="M588.533,211.588s15.665-.44,22.654,10.935c0,0,8.843,5.138,11.52,13.312L632,258.952l18.138-8.14,1.584.321,6.135-3.7s6.639,3.795,8.935,9.831l-6.4,4.7.612.976s-26.35,23.4-38.01,16.549l-.284,43.247s-7.748-8.08-16.138-4.069-19.054,10.908-27.667,5.383v-56.4s-1.819-43.254,7.31-47.2v-1.438l-1.151-.629Z" transform="translate(-577.361 -162.604)" fill="#fff"/><path d="M779.248,9.181A9.856,9.856,0,0,1,792.09,7.874S797.706,6.8,800.907,9.7a11.779,11.779,0,0,0,7.455,2.8l-2,3.269s7.7,6.332,3.288,13.424l-3.241-4.082-4.186,3.324-1.852-2.629-5.563,4.384-1.23-2.032-7.217,4.29s-5.36,1.536-2.923,7.628l2.076,3.362-5.02,5.7-6.336-5.016-2.578-.908L771.9,39.7l-3.457.468.79-2.792-3.461-.347s1.858-2.74,2.017-4.831-.519-15.472,11.463-23.02" transform="translate(-764.88 -4.66)" fill="#fbe669"/><path d="M832.934,219.73a1.117,1.117,0,0,0,1.095-.9,10.7,10.7,0,0,1,.692-2.606,1.117,1.117,0,0,0-1.964-1.064,11.622,11.622,0,0,0-.92,3.239,1.117,1.117,0,0,0,.88,1.311,1.137,1.137,0,0,0,.217.021" transform="translate(-804.012 -164.9)"/><path d="M894.555,190.589a1.117,1.117,0,0,0,1.09-.879,23.733,23.733,0,0,0,.491-3.2c.033-.344.065-.668.113-1.045a1.117,1.117,0,0,0-2.215-.284c-.052.412-.087.769-.12,1.114a21.512,21.512,0,0,1-.45,2.934,1.118,1.118,0,0,0,1.092,1.355" transform="translate(-879.68 -141.566)"/><path d="M768.5,128.474a12.971,12.971,0,0,0,1.91-.148,12.257,12.257,0,0,0,3.764-1.368,6.553,6.553,0,0,0,2.106-2.19,19.041,19.041,0,0,0,1.681-6.127c.023-.2.043-.4.063-.6a7.325,7.325,0,0,1,.754-3.1,7.207,7.207,0,0,1,.824-1l.99-1.075a2.131,2.131,0,0,0,.477-1.634,1.949,1.949,0,0,0-.8-1.418c-1.569-1.1-2.352-1.949-2.557-3.758a14.331,14.331,0,0,1,.229-4.324c.063-.412.13-.861.2-1.364a1.117,1.117,0,1,0-2.212-.309c-.069.494-.136.935-.2,1.339a16.435,16.435,0,0,0-.24,4.909,6.863,6.863,0,0,0,3.308,5.2l-.845.918a9.1,9.1,0,0,0-1.076,1.336,9.2,9.2,0,0,0-1.081,4.054c-.02.192-.039.384-.061.574a16.822,16.822,0,0,1-1.474,5.409,4.636,4.636,0,0,1-1.406,1.352,9.651,9.651,0,0,1-8.317.348c-.638-.187-1.361-.4-2.179-.6a1.117,1.117,0,1,0-.533,2.169c.771.19,1.439.385,2.085.574a15.325,15.325,0,0,0,4.58.833" transform="translate(-733.848 -76.152)"/><path d="M865.017,129.544a3.243,3.243,0,0,0,1.7-.457,1.117,1.117,0,1,0-1.165-1.9,1.342,1.342,0,0,1-1.123.014,4.072,4.072,0,0,1-1.374-1,5.341,5.341,0,0,1-1.489-2.306,5.256,5.256,0,0,1-.011-2.238,4.323,4.323,0,0,1,.686-1.876,1.565,1.565,0,0,1,1.209-.7,2.033,2.033,0,0,1,1.271,1.1,1.117,1.117,0,1,0,1.957-1.076,4.121,4.121,0,0,0-3.139-2.259,3.727,3.727,0,0,0-3.093,1.6,6.425,6.425,0,0,0-1.092,2.826,6.632,6.632,0,0,0,2.118,6.5,6.272,6.272,0,0,0,2.157,1.512,3.892,3.892,0,0,0,1.393.263" transform="translate(-842.745 -89.796)"/><path d="M791.848,26.17h.016a1.116,1.116,0,0,0,.974-.6c.144-.275.294-.541.442-.805a8.3,8.3,0,0,0,1.292-6.469,14.712,14.712,0,0,0-4.082-7.371,8,8,0,0,0,1.516-2.942,1.117,1.117,0,0,0-.194-.979,1.1,1.1,0,0,0-.9-.433A9.919,9.919,0,0,1,784.6,4.382c-.15-.122-.3-.248-.443-.375a8.582,8.582,0,0,0-1.588-1.163,7.882,7.882,0,0,0-3.137-.759,31.27,31.27,0,0,0-3.894-.06,2.079,2.079,0,0,1-.491-.008,1.91,1.91,0,0,1-.31-.234l-.078-.065c-1.753-1.467-4.145-2-7.11-1.581-2.994.422-5.065,1.675-6.157,3.724a1.117,1.117,0,0,0,1.971,1.05c.737-1.384,2.251-2.246,4.5-2.563,2.313-.326,4.118.038,5.366,1.082l.069.058a3.241,3.241,0,0,0,.964.618,3.294,3.294,0,0,0,1.363.15,29.072,29.072,0,0,1,3.636.054,5.784,5.784,0,0,1,2.265.505A6.852,6.852,0,0,1,782.7,5.7c.162.14.325.279.49.414a12.2,12.2,0,0,0,6.111,2.6,5.811,5.811,0,0,1-1.13,1.421,1.117,1.117,0,0,0-.008,1.642,13.069,13.069,0,0,1,4.223,6.988,5.406,5.406,0,0,1-.524,3.927,10.979,10.979,0,0,0-2.521-3.339,1.116,1.116,0,0,0-1.705.269,5.677,5.677,0,0,1-3.279,2.668,1.117,1.117,0,0,0,.619,2.146,7.683,7.683,0,0,0,3.76-2.506,12.53,12.53,0,0,1,1.442,2.363c.213.413.433.839.7,1.308a1.116,1.116,0,0,0,.974.571" transform="translate(-747.597 0)"/><path d="M900.5,177.562a1.117,1.117,0,0,0,1.011-1.589c-1.093-2.343-2.058-4.108-4.539-5.489a1.117,1.117,0,0,0-1.086,1.951c1.9,1.059,2.63,2.4,3.6,4.482a1.117,1.117,0,0,0,1.013.645" transform="translate(-885.466 -130.909)"/><path d="M906.211,51.28a1.116,1.116,0,0,0,.957-.54c.391-.648,1.58-2.618.294-4.6a1.117,1.117,0,0,0-1.323-.44,5.848,5.848,0,0,1-1.273.263c.12-.4.209-.8.3-1.2.032-.141.063-.284.1-.427a1.117,1.117,0,0,0-1.193-1.365,9.706,9.706,0,0,1-1.1.013,14.521,14.521,0,0,0,.827-4.6,35.327,35.327,0,0,1,.917-6.083c.1-.467.209-.973.327-1.539a19.656,19.656,0,0,1,9.328-12.856,1.117,1.117,0,0,0-1.111-1.937,21.923,21.923,0,0,0-10.4,14.337c-.117.561-.225,1.062-.324,1.525a37.527,37.527,0,0,0-.963,6.4c-.093,1.408-.267,4.028-1.258,4.72a1.116,1.116,0,0,0,.346,1.993,10.656,10.656,0,0,0,2.106.259,3.7,3.7,0,0,1-.58,1.265,1.117,1.117,0,0,0,.852,1.791,14.117,14.117,0,0,0,2.775-.186,3.12,3.12,0,0,1-.55,1.5,1.117,1.117,0,0,0,.955,1.694" transform="translate(-899.828 -12.161)"/><path d="M917.946,162.688a1.113,1.113,0,0,0,.8-.335l1.346-1.372a1.117,1.117,0,0,0-1.594-1.564l-1.346,1.372a1.117,1.117,0,0,0,.8,1.9" transform="translate(-909.246 -122.255)"/><path d="M806.366,90.157a1.136,1.136,0,0,0,.237-.025,19.526,19.526,0,0,0,8.035-4.191,3.847,3.847,0,0,1,.263.786,1.116,1.116,0,0,0,1.736.7c.357-.25.716-.491,1.072-.731,2-1.348,4.073-2.741,5.217-5.217a1.117,1.117,0,0,0-2.027-.936c-.865,1.874-2.47,2.976-4.334,4.231a4.1,4.1,0,0,1-.318-.867,1.117,1.117,0,0,0-1.8-.668c-2.809,2.257-5.2,4.037-8.318,4.708a1.117,1.117,0,0,0,.234,2.209" transform="translate(-786.035 -61.4)"/><path d="M888.209,106.861a1.114,1.114,0,0,0,.486-.112,17.545,17.545,0,0,0,3.766-2.463,1.117,1.117,0,0,0-1.452-1.7,15.308,15.308,0,0,1-3.286,2.149,1.117,1.117,0,0,0,.487,2.122" transform="translate(-874.803 -78.634)"/><path d="M911.048,101.88a1.113,1.113,0,0,0,.485-.112,17.534,17.534,0,0,0,3.766-2.463,1.117,1.117,0,1,0-1.452-1.7,15.306,15.306,0,0,1-3.287,2.149,1.117,1.117,0,0,0,.487,2.122" transform="translate(-902.93 -74.806)"/><path d="M793,112.069a1.019,1.019,0,0,0,.687-.265,2.476,2.476,0,0,1,2.375-.212A1.024,1.024,0,1,0,797.347,110c-1.5-1.21-4.023-.628-5.034.288a1.024,1.024,0,0,0,.688,1.782" transform="translate(-757.662 -84.007)"/><path d="M798.505,127.894a1.425,1.425,0,0,0,1.122-.816,3.091,3.091,0,0,0,.133-1.613,1.183,1.183,0,0,0-.4-.715,1.108,1.108,0,0,0-1.095-.2,1.32,1.32,0,0,0-.817,1,3.472,3.472,0,0,0,.077,1.6,1.024,1.024,0,0,0,.983.739" transform="translate(-760.998 -95.669)"/><path d="M795.569,183.42a5.479,5.479,0,0,0,2.376-.543,1.024,1.024,0,0,0-.886-1.845,3.508,3.508,0,0,1-3.889-.609,1.024,1.024,0,0,0-1.384,1.509,5.594,5.594,0,0,0,3.783,1.489" transform="translate(-758.339 -138.448)"/><path d="M841.645,219.292a1.117,1.117,0,0,0,1.072-1.431c-.946-3.232-4.245-6.259-9.292-8.524A37.6,37.6,0,0,0,819,206.123h-.006a1.117,1.117,0,0,0-1.039.707c-.443,1.124-.967,2.178-1.521,3.294s-1.12,2.255-1.6,3.468a1.117,1.117,0,0,0,2.078.819c.443-1.124.967-2.178,1.521-3.294.44-.887.893-1.8,1.3-2.747,8.517.285,19.234,4.627,20.842,10.118a1.117,1.117,0,0,0,1.071.8" transform="translate(-807.969 -158.406)"/><path d="M864.539,240.125a1.117,1.117,0,0,0,.165-2.221l-16.2-2.431a1.117,1.117,0,0,0-.332,2.208l16.2,2.431a1.144,1.144,0,0,0,.167.013" transform="translate(-838.378 -180.952)"/><path d="M583.52,372.8a1.117,1.117,0,0,0,.941-1.716c-2.507-3.939-5.349-8.4-9.825-10.054a1.117,1.117,0,0,0-.773,2.1c3.77,1.391,6.4,5.517,8.715,9.157a1.116,1.116,0,0,0,.943.517" transform="translate(-493.908 -277.396)"/><path d="M614.293,366.893a1.11,1.11,0,0,0,.576-.161l6.135-3.7a1.117,1.117,0,0,0-1.154-1.912l-6.135,3.7a1.117,1.117,0,0,0,.578,2.073" transform="translate(-540.085 -277.397)"/><path d="M574.25,409.609a1.11,1.11,0,0,0,.612-.183c1.017-.668,1.95-1.389,2.937-2.153,1.13-.874,2.3-1.778,3.8-2.774a1.117,1.117,0,1,0-1.234-1.861c-1.57,1.041-2.825,2.012-3.933,2.869-.952.736-1.851,1.432-2.8,2.052a1.117,1.117,0,0,0,.614,2.05" transform="translate(-491.371 -309.284)"/><path d="M621.578,394.555a.931.931,0,0,0,.779-1.439,67.651,67.651,0,0,0-4.411-6.053.93.93,0,1,0-1.442,1.176,65.886,65.886,0,0,1,4.294,5.893.929.929,0,0,0,.781.423" transform="translate(-541.771 -297.196)"/><path d="M647.639,386.994a1.111,1.111,0,0,0,.487-.113c6.317-3.069,9.2-4.38,17.12-7.8a1.117,1.117,0,0,0-.884-2.051c-7.962,3.434-10.857,4.753-17.212,7.84a1.117,1.117,0,0,0,.489,2.121" transform="translate(-592.182 -289.679)"/><path d="M742.9,294.609a1.117,1.117,0,0,0,1-1.616c-1.311-2.62-2.771-6.382-4.317-10.364-4.847-12.487-10.88-28.028-19.917-30.23a1.117,1.117,0,1,0-.529,2.17c7.905,1.927,13.95,17.5,18.363,28.868,1.566,4.033,3.044,7.842,4.4,10.555a1.117,1.117,0,0,0,1,.617" transform="translate(-686.89 -193.943)"/><path d="M623.457,425.466c4.456,0,8.832-2.317,12.789-4.413.626-.332,1.246-.66,1.859-.976a97.315,97.315,0,0,0,18.534-13,1.117,1.117,0,1,0-1.465-1.686,95.076,95.076,0,0,1-18.091,12.7c-.621.32-1.248.652-1.882.987-4.835,2.56-9.835,5.208-14.6,3.731-5.759-1.787-11.734-10.882-18.933-23.987a1.117,1.117,0,1,0-1.957,1.075c7.673,13.968,13.734,23.03,20.229,25.045a11.772,11.772,0,0,0,3.513.523" transform="translate(-572.416 -306.051)"/><path d="M919.56,348.6h.028a1.117,1.117,0,0,0,1.089-1.143c-.183-7.546-.024-19.039.13-30.154.154-11.136.313-22.65.13-30.239-.3-12.587-.939-38.78,7.458-43.505a1.117,1.117,0,0,0-1.1-1.946c-4.173,2.349-6.78,8.6-7.968,19.1-.963,8.509-.829,18.091-.627,26.4.183,7.546.024,19.039-.13,30.154-.154,11.135-.313,22.65-.13,30.239a1.117,1.117,0,0,0,1.116,1.09" transform="translate(-918.156 -185.57)"/><path d="M772.506,547.33a25.667,25.667,0,0,0,9.793-2c1.72-.741,3.407-1.6,5.038-2.427a48.673,48.673,0,0,1,8.541-3.686c5.375-1.542,10.8,3.457,12.329,5.026a1.117,1.117,0,0,0,1.915-.78c0-5.1.014-10.072.028-15.336.025-9.1.051-18.5,0-28.461a1.117,1.117,0,1,0-2.233.012c.051,9.952.025,19.352,0,28.443-.012,4.2-.024,8.514-.027,12.791-2.883-2.411-7.609-5.281-12.628-3.841a51.1,51.1,0,0,0-8.936,3.841c-1.6.813-3.255,1.654-4.91,2.367-4.009,1.727-10.368,2.685-14.855.707a1.117,1.117,0,0,0-.9,2.044,17.06,17.06,0,0,0,6.846,1.3" transform="translate(-763.867 -383.141)"/><path d="M915.048,795.086a1.117,1.117,0,0,0,.111-2.228c-1.783-.18-3.533-.419-5.117-.7-.828-20.233-1.354-37.542-1.91-55.851-.372-12.235-.756-24.888-1.243-38.682a1.117,1.117,0,0,0-2.232.079c.487,13.789.871,26.438,1.243,38.671.564,18.583,1.1,36.135,1.947,56.766a1.116,1.116,0,0,0,.9,1.051c1.864.358,4,.664,6.182.885a1.118,1.118,0,0,0,.114.006" transform="translate(-902.182 -535.301)"/><path d="M909.828,1136.683a1.117,1.117,0,0,0,.072-2.231c-.409-.027-.786-.043-1.137-.058-1.7-.072-2.48-.1-3.734-1.186-1.365-1.177-1.3-2.729-1.07-5.163.091-.982.337-2.291.621-3.806.393-2.1.884-4.711,1.218-7.762a1.117,1.117,0,1,0-2.22-.243c-.325,2.967-.806,5.532-1.193,7.593-.294,1.57-.549,2.926-.65,4.011-.221,2.377-.472,5.072,1.835,7.061a7.017,7.017,0,0,0,5.1,1.726c.335.014.694.029,1.084.055l.075,0" transform="translate(-896.255 -857.062)"/><path d="M910.548,1176.5a1.117,1.117,0,0,0,.028-2.233c-1.136-.029-2.257-.063-3.332-.1a1.117,1.117,0,0,0-.079,2.232c1.083.038,2.211.072,3.353.1h.029" transform="translate(-898.015 -902.347)"/><path d="M771.059,790.3a1.117,1.117,0,0,0,1.113-1.044l.405-6.216c1.954-29.978,4.168-63.956,7.112-94.092a1.117,1.117,0,1,0-2.223-.217c-2.947,30.171-5.163,64.169-7.118,94.164l-.405,6.216a1.117,1.117,0,0,0,1.042,1.187l.074,0" transform="translate(-734.527 -528.511)"/><path d="M816.812,1124.68c1.329,0,2.64-.041,3.9-.132a25.256,25.256,0,0,0,6.577-1.209,1.117,1.117,0,0,0-.758-2.1,23.094,23.094,0,0,1-5.98,1.083,71.668,71.668,0,0,1-16.793-1.056,1.117,1.117,0,0,0-.421,2.193,76.819,76.819,0,0,0,13.481,1.222" transform="translate(-790.375 -861.621)"/><path d="M761.976,1146.3a11.076,11.076,0,0,0,3.985-.6,5.2,5.2,0,0,0,3.529-4.365c.255-4.632-1.544-6.081-3.1-6.481-8.658-2.229-11.733-5.2-15.293-8.644-.673-.65-1.368-1.322-2.114-2a1.117,1.117,0,0,0-1.5,1.653c.721.655,1.4,1.315,2.064,1.953,3.63,3.509,7.059,6.824,16.288,9.2,1.349.347,1.519,2.473,1.424,4.2a3.114,3.114,0,0,1-2.1,2.4,11.238,11.238,0,0,1-4.172.432c-1.758-.037-3.539-.068-5.335-.1-6.7-.117-13.634-.238-20.184-.67-.4-.026-.811-.044-1.229-.063-2-.087-4.073-.177-5.335-1.265-1.365-1.177-1.3-2.729-1.07-5.163.091-.982.337-2.291.621-3.806.394-2.1.884-4.711,1.218-7.762a1.117,1.117,0,1,0-2.22-.243c-.325,2.966-.806,5.532-1.193,7.593-.294,1.57-.549,2.925-.65,4.011-.221,2.377-.472,5.072,1.835,7.061,1.849,1.594,4.424,1.706,6.7,1.8.4.018.8.035,1.179.06,6.6.436,13.563.558,20.292.675,1.793.031,3.573.062,5.328.1.329.007.677.014,1.036.014" transform="translate(-714.053 -863.736)"/><path d="M780.706,1187.911a1.117,1.117,0,0,0,.039-2.233c-5.669-.2-11.041-.243-16.235-.285s-10.537-.086-16.176-.284a1.117,1.117,0,1,0-.078,2.232c5.67.2,11.042.243,16.237.285,5.18.042,10.536.086,16.175.284h.04" transform="translate(-731.385 -910.757)"/><path d="M908.567,812.054h.01A1.042,1.042,0,0,0,909.609,811c-.295-32.118-.89-46.389-2.074-74.82-.148-3.548-.3-7.322-.472-11.383a1.042,1.042,0,1,0-2.082.086c.167,4.061.324,7.835.472,11.384,1.184,28.409,1.778,42.668,2.072,74.753a1.042,1.042,0,0,0,1.042,1.032" transform="translate(-895.703 -556.241)"/><path d="M858.2,295.973h.039a.931.931,0,0,0,.891-.968,19.077,19.077,0,0,1,3.9-12.25.931.931,0,0,0-1.474-1.137,20.967,20.967,0,0,0-4.283,13.463.93.93,0,0,0,.929.892" transform="translate(-838.268 -216.145)"/><path d="M509.227,311.368a1.112,1.112,0,0,0,.632-.2c.2-.137.429-.286.673-.445a11.323,11.323,0,0,0,2.982-2.445c.9-1.274,2.2-3.047,3.454-4.762s2.562-3.505,3.476-4.793a8.87,8.87,0,0,1,2.419-2.613c1.6-.95,6.66-1.855,8.637-1.04a1.117,1.117,0,0,0,.85-2.065c-2.947-1.214-8.736.06-10.629,1.185a10.688,10.688,0,0,0-3.1,3.241c-.9,1.275-2.2,3.05-3.457,4.767s-2.56,3.5-3.472,4.788a10.3,10.3,0,0,1-2.376,1.864c-.262.171-.509.331-.722.477a1.117,1.117,0,0,0,.634,2.037" transform="translate(-427.26 -224.798)"/><path d="M515.669,356.927a1.128,1.128,0,0,0,.114-.006,13.174,13.174,0,0,0,6.749-2.806c2.328-1.765,3.094-3.35,4.62-6.508a1.117,1.117,0,1,0-2.011-.972c-1.564,3.236-2.145,4.325-3.958,5.7a11.042,11.042,0,0,1-5.625,2.364,1.117,1.117,0,0,0,.112,2.228" transform="translate(-422.973 -265.905)"/><path d="M480.936,330.433a1.141,1.141,0,0,0,.193-.017c.7-.122,2.073-.529,3.524-.959,1.157-.343,2.352-.7,2.9-.81a3.8,3.8,0,0,0,1.865-.87,3.092,3.092,0,0,0,.674-2.577c-.221-1.427-1.315-2.064-3.254-1.892l-.164.014a66.449,66.449,0,0,0-7.192,1.169,1.117,1.117,0,1,0,.494,2.178,63.142,63.142,0,0,1,6.866-1.12l.193-.016a3.314,3.314,0,0,1,.847,0s0,.007,0,.012a1.589,1.589,0,0,1-.03.637,1.863,1.863,0,0,1-.749.282c-.645.132-1.833.484-3.091.857s-2.7.8-3.272.9a1.117,1.117,0,0,0,.19,2.217" transform="translate(-377.529 -248.442)"/><path d="M491,316.737a.932.932,0,0,0,.437-.109,2.185,2.185,0,0,0,1.058-2.118A2.9,2.9,0,0,0,490.939,312c-1.544-.907-8.624.214-11.184,1.109a.93.93,0,1,0,.614,1.757c2.907-1.017,8.711-1.6,9.647-1.249a1.086,1.086,0,0,1,.614.867c0,.379-.051.475-.073.5a.929.929,0,0,0,.439,1.75" transform="translate(-380.002 -239.517)"/><path d="M503.076,304.925a.92.92,0,0,0,.193-.02.93.93,0,0,0,.718-1.1,3.14,3.14,0,0,0-2.533-2.3,7.3,7.3,0,0,0-2.744.107l-.126.022c-.5.086-1,.166-1.48.245-1.581.257-3.074.5-4.752.9a.931.931,0,0,0,.432,1.81c1.613-.385,3.073-.623,4.62-.875.489-.08.985-.16,1.494-.247l.128-.022a5.737,5.737,0,0,1,2.051-.118,1.375,1.375,0,0,1,1.09.862.931.931,0,0,0,.91.738" transform="translate(-394.413 -231.633)"/><path d="M560.925,388.447a1.112,1.112,0,0,0,.679-.231c1.429-1.1,2.113-1.606,3.641-2.636A1.117,1.117,0,0,0,564,383.729c-1.581,1.065-2.284,1.59-3.752,2.716a1.117,1.117,0,0,0,.68,2" transform="translate(-471.925 -294.749)"/><g transform="translate(54.08 33.277)"><path d="M4.769,0h.019a1.864,1.864,0,0,1,1.32.562h0a1.875,1.875,0,0,1-.027,2.651l-2.9,2.837A1.875,1.875,0,1,1,.561,3.373L3.457.536A1.861,1.861,0,0,1,4.769,0" transform="translate(29.111 7.674) rotate(159)" fill="#eb613d"/><path d="M5.883,6.13a1.722,1.722,0,0,1-1.237.516H4.628A1.861,1.861,0,0,1,3.305,6.06L.533,3.132A1.94,1.94,0,0,1,0,1.823,1.809,1.809,0,0,1,.516.517,1.721,1.721,0,0,1,1.753,0H1.77A1.861,1.861,0,0,1,3.094.586L5.866,3.515a1.948,1.948,0,0,1,.329.471A1.868,1.868,0,0,1,5.883,6.13" transform="translate(8.356 15.373) rotate(159)" fill="#eb613d"/><path d="M1.408.059A1.861,1.861,0,0,1,1.873,0a1.881,1.881,0,0,1,1.32.541l.023.023a1.879,1.879,0,0,1,.475.844L4.7,5.334a1.875,1.875,0,1,1-3.631.933L.06,2.341A1.875,1.875,0,0,1,1.408.059" transform="translate(12.859 9.992) rotate(159)" fill="#eb613d"/><path d="M1.158,1.373A1.874,1.874,0,0,1,4.769,2.379L3.68,6.284A1.865,1.865,0,0,1,2.8,7.413h0A1.875,1.875,0,0,1,.069,5.277Z" transform="translate(20.479 7.148) rotate(159)" fill="#eb613d"/></g></g></g></svg>