<svg xmlns="http://www.w3.org/2000/svg" width="28" height="26.78" viewBox="0 0 28 26.78"><g transform="translate(0 -11.157)"><path d="M26.476,20.222H19.155a1.521,1.521,0,0,1-1.446-1.051l-2.262-6.963a1.521,1.521,0,0,0-2.892,0l-2.262,6.963a1.521,1.521,0,0,1-1.446,1.051H1.523A1.521,1.521,0,0,0,.63,22.973l5.923,4.3a1.52,1.52,0,0,1,.552,1.7L4.843,35.94a1.521,1.521,0,0,0,2.34,1.7l5.923-4.3a1.521,1.521,0,0,1,1.788,0l5.923,4.3a1.521,1.521,0,0,0,2.34-1.7l-2.262-6.963a1.52,1.52,0,0,1,.552-1.7l5.923-4.3A1.521,1.521,0,0,0,26.476,20.222Z" transform="translate(0 0)" fill="#ccc"/></g></svg>