<svg xmlns="http://www.w3.org/2000/svg" width="14.966" height="15" viewBox="0 0 14.966 15"><g transform="translate(-0.574 0)"><path d="M9.166,168.09a4.331,4.331,0,0,1-.515.032,4.193,4.193,0,0,1-.753-.068,4.116,4.116,0,0,1-.789-.22c-.054-.02-.107-.043-.161-.066l-1.9,1.9a1.629,1.629,0,0,1-1.145.472,1.517,1.517,0,0,1-1.107-.463,1.566,1.566,0,0,1,.018-2.186l2.059-2.059,1.492-1.494c.024-.024.05-.046.076-.069s.042-.036.063-.053a1.543,1.543,0,0,1,.171-.117l.062-.035a1.537,1.537,0,0,1,.191-.085L7,163.558a1.533,1.533,0,0,1,.195-.047l.09-.013c.032,0,.064-.008.1-.009h0a.567.567,0,0,1,.088,0,1.565,1.565,0,0,1,1.422.921.165.165,0,0,0,.027.048.594.594,0,0,0,.2-.132l1.143-1.143a3.151,3.151,0,0,0-.415-.508,3.287,3.287,0,0,0-.508-.417c-.041-.027-.082-.054-.122-.079a3.485,3.485,0,0,0-.531-.261,3.323,3.323,0,0,0-.621-.172,3.455,3.455,0,0,0-.594-.052,3.329,3.329,0,0,0-2.372.982l-3.513,3.512a3.46,3.46,0,0,0-1,2.46,3.324,3.324,0,0,0,3.338,3.308,3.336,3.336,0,0,0,2.374-.982L7.9,169.356l1.266-1.261H9.161Z" transform="translate(0 -156.952)" fill="#4db2a4"/><path d="M186.7.939a3.363,3.363,0,0,0-4.705.043L180.378,2.6l-1.266,1.261h.006l0,0a4.312,4.312,0,0,1,.515-.032,4.356,4.356,0,0,1,.751.066,4.169,4.169,0,0,1,.789.22c.054.02.111.043.166.066l1.9-1.9a1.63,1.63,0,0,1,1.145-.472,1.529,1.529,0,0,1,1.109.46,1.568,1.568,0,0,1-.02,2.188l-2.057,2.059-1.494,1.494a1.537,1.537,0,0,1-1.02.449.509.509,0,0,1-.084,0,1.566,1.566,0,0,1-1.1-.454,1.549,1.549,0,0,1-.32-.465.163.163,0,0,0-.03-.05.3.3,0,0,0-.249-.132.312.312,0,0,0-.215.089l-.873.875a.305.305,0,0,0-.043.379c.014.023.029.045.043.066a3.42,3.42,0,0,0,.417.508,3.149,3.149,0,0,0,.508.415,1.339,1.339,0,0,0,.12.079,3.31,3.31,0,0,0,.533.261,3.35,3.35,0,0,0,.619.175,3.469,3.469,0,0,0,.594.052,3.332,3.332,0,0,0,1.615-.413,3.266,3.266,0,0,0,.757-.569L186.7,5.766a3.444,3.444,0,0,0,1-2.46A3.3,3.3,0,0,0,186.7.939Z" transform="translate(-172.165 0)" fill="#4db2a4"/></g></svg>