<svg xmlns="http://www.w3.org/2000/svg" xmlns:xlink="http://www.w3.org/1999/xlink" width="49.141" height="32" viewBox="0 0 49.141 32"><defs><clipPath id="a"><rect width="49.141" height="32" fill="#4db2a4"/></clipPath></defs><g clip-path="url(#a)"><path d="M9.27,18.359l.8-.846c.044-.047.092-.088.138-.132l-1.669-2.8L11.38,3.968l6.756.385L19.5,3.124,11.719,2.68a.65.65,0,0,0-.47-.746L4.116.023a.652.652,0,0,0-.8.461L.022,12.781a.652.652,0,0,0,.461.8l7.067,1.894ZM4.409,1.452l5.873,1.574L7.324,14.063,1.451,12.489Z" transform="translate(0 -0.001)" fill="#4db2a4"/><path d="M109.676,12.781,106.381.484a.652.652,0,0,0-.8-.461L98.449,1.934a.653.653,0,0,0-.461.8l.018.068L91.572,4.413,85.047,1.8a1.882,1.882,0,0,0-1.936.33l-4.624,4.16a3.17,3.17,0,0,0-.3,4.51,3.188,3.188,0,0,0,4.273.429l.021-.016L85.6,8.667,89.2,11l9.28,8.569a1.29,1.29,0,0,1,.143,1.82l-.261.3a1.289,1.289,0,0,1-1.845.118l-1.274-1.153a.652.652,0,1,0-.875.967l.878.795a1.28,1.28,0,0,1,.1,1.778l-.293.342a1.289,1.289,0,0,1-1.845.117l-1.274-1.153a.652.652,0,0,0-.875.968l.2.185a1.29,1.29,0,0,1,.088,1.771l-.331.387a1.289,1.289,0,0,1-1.844.117L87.9,25.782a.652.652,0,0,0-.875.968l.5.456h0a1.049,1.049,0,0,1,.094,1.467l-.681.8a1.048,1.048,0,0,1-1.465.133l-.248-.2a3.323,3.323,0,0,1-.676,1.132l.1.083a2.346,2.346,0,0,0,3.278-.3l.681-.8a2.364,2.364,0,0,0,.53-1.108,2.573,2.573,0,0,0,.891.159c.056,0,.113,0,.169-.005a2.575,2.575,0,0,0,1.806-.9l.331-.387a2.58,2.58,0,0,0,.584-1.248,2.566,2.566,0,0,0,1.146.268c.056,0,.113,0,.169-.005a2.574,2.574,0,0,0,1.806-.9l.293-.342a2.589,2.589,0,0,0,.628-1.633,2.606,2.606,0,0,0,.413.035q.084,0,.169-.005a2.573,2.573,0,0,0,1.805-.9l.261-.3a2.594,2.594,0,0,0-.274-3.649l-9.294-8.583a.664.664,0,0,0-.089-.069L85.914,7.314a.652.652,0,0,0-.767.042L81.664,10.2a1.877,1.877,0,0,1-2.5-.26,1.866,1.866,0,0,1,.19-2.664l4.624-4.16a.574.574,0,0,1,.59-.1L91.284,5.7a.652.652,0,0,0,.4.027l6.659-1.668,2.794,10.426-2.128,2.045.971.876,1.98-1.9a.657.657,0,0,0,.122-.016l7.133-1.911a.652.652,0,0,0,.461-.8m-7.3,1.281L99.417,3.026l5.873-1.574,2.957,11.037Z" transform="translate(-60.557 -0.001)" fill="#4db2a4"/><path d="M53.26,90.1a2.021,2.021,0,0,0-1.318-.54c0-.06.005-.121,0-.182a2.256,2.256,0,0,0-.721-1.587l-.489-.456a2.262,2.262,0,0,0-1.668-.6,2.255,2.255,0,0,0-.72-1.573l-.489-.455a2.264,2.264,0,0,0-1.663-.6c0-.025,0-.05,0-.075a2.256,2.256,0,0,0-.722-1.587l-.489-.456a2.275,2.275,0,0,0-3.2.1l-1.851,1.965a2.271,2.271,0,0,0,.105,3.218l.489.456a2.261,2.261,0,0,0,1.546.607c.039,0,.077,0,.116-.006,0,.026,0,.051,0,.077a2.255,2.255,0,0,0,.722,1.587l.489.456a2.262,2.262,0,0,0,1.546.607c.041,0,.081,0,.122-.006a2.254,2.254,0,0,0,.721,1.574l.489.455a2.261,2.261,0,0,0,1.547.607,2.3,2.3,0,0,0,.475-.051,2.017,2.017,0,0,0,.611,1.117l.417.389a2.037,2.037,0,0,0,2.865-.094l1.579-1.676a2.033,2.033,0,0,0-.094-2.881ZM41.416,86.773l-.489-.455a.966.966,0,0,1-.045-1.369l1.851-1.965a.967.967,0,0,1,1.361-.044l.489.455a.966.966,0,0,1,.045,1.369l-1.851,1.965a.968.968,0,0,1-1.361.045m2.872,2.721-.489-.456a.966.966,0,0,1-.045-1.369L45.606,85.7a.968.968,0,0,1,1.361-.044l.489.456a.958.958,0,0,1,.082,1.321l0,0-1.851,1.965c-.018.019-.033.04-.051.06a.966.966,0,0,1-1.344.029m2.878,2.63h0l-.489-.456a.958.958,0,0,1-.082-1.321l0,0,1.851-1.965c.018-.019.033-.04.051-.06a.964.964,0,0,1,1.344-.029l.489.456a.966.966,0,0,1,.045,1.369L48.528,92.08a.968.968,0,0,1-1.361.045m5.655.351-1.579,1.676a.729.729,0,0,1-1.026.033h0L49.8,93.8a.728.728,0,0,1-.034-1.032l1.579-1.676a.73.73,0,0,1,1.026-.033l.417.389a.728.728,0,0,1,.034,1.032" transform="translate(-30.767 -63.684)" fill="#4db2a4"/></g></svg>