<svg xmlns="http://www.w3.org/2000/svg" width="44" height="32" viewBox="0 0 44 32"><g transform="translate(-408 -394)"><rect width="44" height="32" transform="translate(408 394)" fill="#fff"/><path d="M3-.75H30.388A3.754,3.754,0,0,1,34.138,3V20a3.754,3.754,0,0,1-3.75,3.75H3A3.754,3.754,0,0,1-.75,20V3A3.754,3.754,0,0,1,3-.75Zm27.388,23A2.253,2.253,0,0,0,32.638,20V3A2.253,2.253,0,0,0,30.388.75H3A2.253,2.253,0,0,0,.75,3V20A2.253,2.253,0,0,0,3,22.25Z" transform="translate(413.306 398.5)" fill="#4db2a4"/><path d="M22.694,28.549a.75.75,0,0,1-.35-.087L5.65,19.663a.75.75,0,0,1,.7-1.327l16.344,8.614,16.344-8.614a.75.75,0,0,1,.7,1.327l-16.694,8.8A.75.75,0,0,1,22.694,28.549Z" transform="translate(407.306 384.314)" fill="#4db2a4"/></g></svg>