<svg xmlns="http://www.w3.org/2000/svg" width="20" height="20" viewBox="0 0 20 20"><g transform="translate(-13 -11)"><path d="M34.364,20.364a1,1,0,0,1-1-1V13H27a1,1,0,0,1,0-2h7.364a1,1,0,0,1,1,1v7.364A1,1,0,0,1,34.364,20.364Z" transform="translate(-2.364)" fill="#fff"/><path d="M28.727,31.727H14a1,1,0,0,1-1-1V16a1,1,0,0,1,1-1h6.545a1,1,0,0,1,0,2H15V29.727H27.727V24.182a1,1,0,0,1,2,0v6.545A1,1,0,0,1,28.727,31.727Z" transform="translate(0 -0.727)" fill="#fff"/><path d="M0,10a1,1,0,0,1-.707-.293,1,1,0,0,1,0-1.414l9-9a1,1,0,0,1,1.414,0,1,1,0,0,1,0,1.414l-9,9A1,1,0,0,1,0,10Z" transform="translate(22 13)" fill="#fff"/></g></svg>