<svg xmlns="http://www.w3.org/2000/svg" width="34.052" height="32.832" viewBox="0 0 34.052 32.832"><g transform="translate(-86.25 -88.75)"><path d="M0-.75H25.53a.75.75,0,0,1,.75.75V22.048a.75.75,0,0,1-.75.75H0a.75.75,0,0,1-.75-.75V0A.75.75,0,0,1,0-.75ZM24.78.75H.75V21.3H24.78Z" transform="translate(87 98.784)" fill="#4db2a4"/><path d="M186,121.511a.75.75,0,0,1-.75-.75v-21.7a.75.75,0,0,1,.144-.442l6.976-9.559a.75.75,0,0,1,1.356.442v21.7a.75.75,0,0,1-.144.442l-6.976,9.559A.75.75,0,0,1,186,121.511Zm.75-22.207v19.157l5.476-7.5V91.8Z" transform="translate(-73.423)" fill="#4db2a4"/><path d="M112.577,99.809H87a.75.75,0,0,1-.606-1.192l6.976-9.559a.75.75,0,0,1,.606-.308h25.577a.75.75,0,0,1,.606,1.192L113.183,99.5A.75.75,0,0,1,112.577,99.809Zm-24.1-1.5H112.2l5.881-8.059H94.357Z" fill="#4db2a4"/><path d="M132.392,99.809H128a.75.75,0,0,1-.606-1.192l6.976-9.559a.75.75,0,0,1,.606-.308h4.392a.75.75,0,0,1,.606,1.192L133,99.5A.75.75,0,0,1,132.392,99.809Zm-2.916-1.5h2.535l5.881-8.059h-2.535Z" transform="translate(-30.408)" fill="#4db2a4"/><g transform="translate(97.592 99.059)"><g transform="translate(0 4.134)"><path d="M128,143.767a.75.75,0,0,1-.432-1.363l.734-.517a.75.75,0,0,1,.864,0l.3.212.3-.211a.75.75,0,0,1,.866,0l.3.211.3-.211a.75.75,0,0,1,.866,0l.731.517a.75.75,0,0,1-.866,1.225l-.3-.211-.3.211a.75.75,0,0,1-.866,0l-.3-.211-.3.211a.75.75,0,0,1-.865,0l-.3-.213-.3.213A.747.747,0,0,1,128,143.767Z" transform="translate(-128 -142.5)" fill="#4db2a4"/></g><path d="M132.392,131.642a.75.75,0,0,1-.75-.75V127.25H128.75v3.642a.75.75,0,0,1-1.5,0V126.5a.75.75,0,0,1,.75-.75h4.392a.75.75,0,0,1,.75.75v4.392A.75.75,0,0,1,132.392,131.642Z" transform="translate(-128 -126.5)" fill="#4db2a4"/></g><g transform="translate(97.592 116.11)"><g transform="translate(0 0)"><path d="M132.391,193.767a.747.747,0,0,1-.432-.138l-.3-.211-.3.211a.75.75,0,0,1-.866,0l-.3-.211-.3.211a.75.75,0,0,1-.865,0l-.3-.213-.3.213a.75.75,0,0,1-.864-1.226l.734-.517a.75.75,0,0,1,.864,0l.3.212.3-.211a.75.75,0,0,1,.866,0l.3.211.3-.211a.75.75,0,0,1,.866,0l.731.517a.75.75,0,0,1-.433,1.363Z" transform="translate(-128 -192.5)" fill="#4db2a4"/></g><path d="M132.392,198.642H128a.75.75,0,0,1-.75-.75V193.5a.75.75,0,1,1,1.5,0v3.642h2.892V193.5a.75.75,0,0,1,1.5,0v4.392A.75.75,0,0,1,132.392,198.642Z" transform="translate(-128 -193.242)" fill="#4db2a4"/></g></g></svg>