<svg xmlns="http://www.w3.org/2000/svg" width="15" height="15" viewBox="0 0 15 15"><g transform="translate(-14 -14)"><path d="M7-.5A7.5,7.5,0,1,1-.5,7,7.508,7.508,0,0,1,7-.5Zm0,14A6.5,6.5,0,1,0,.5,7,6.507,6.507,0,0,0,7,13.5Z" transform="translate(14.5 14.5)" fill="#0d58d0"/><circle cx="0.634" cy="0.634" r="0.634" transform="translate(20.866 23.88)" fill="#0d58d0"/><path d="M23.379,24.365h0a.5.5,0,0,1-.5-.5,3.782,3.782,0,0,1,.178-1.129.5.5,0,0,1,.018-.049,2.15,2.15,0,0,1,.825-.959l.038-.022a1.236,1.236,0,0,0,.672-1.092s0-.006,0-.01a1.04,1.04,0,0,0-1.169-1.06.5.5,0,0,1-.083,0,1.179,1.179,0,0,0-1.219,1.1.5.5,0,1,1-1-.061,2.184,2.184,0,0,1,2.217-2.04,2.04,2.04,0,0,1,2.252,2.079,2.232,2.232,0,0,1-1.192,1.957,1.153,1.153,0,0,0-.417.482,2.783,2.783,0,0,0-.123.8A.5.5,0,0,1,23.379,24.365Z" transform="translate(-1.879 -1.193)" fill="#0d58d0"/></g></svg>