<svg xmlns="http://www.w3.org/2000/svg" width="44.196" height="36.543" viewBox="0 0 44.196 36.543"><g transform="translate(0 -44.326)"><path d="M176.542,198.494a7.436,7.436,0,0,0-5.3,2.217,7.636,7.636,0,0,0,0,10.731,7.449,7.449,0,0,0,10.607,0,7.636,7.636,0,0,0,0-10.731A7.436,7.436,0,0,0,176.542,198.494Zm0,12.258a4.676,4.676,0,1,1,4.634-4.675A4.654,4.654,0,0,1,176.542,210.752Z" transform="translate(-154.444 -140.86)" fill="#ccc"/><path d="M42.881,52.2A4.481,4.481,0,0,0,39.7,50.873H34.829a1.015,1.015,0,0,1-.927-.612L32.443,47a4.5,4.5,0,0,0-4.105-2.67H15.857A4.5,4.5,0,0,0,11.751,47l-1.457,3.265a1.015,1.015,0,0,1-.926.612H4.5A4.51,4.51,0,0,0,0,55.4V76.348A4.532,4.532,0,0,0,1.311,79.54,4.484,4.484,0,0,0,4.5,80.869H39.7a4.473,4.473,0,0,0,3.184-1.329A4.52,4.52,0,0,0,44.2,76.348V55.4A4.519,4.519,0,0,0,42.881,52.2ZM29.3,72.467a10.123,10.123,0,0,1-14.409,0,10.314,10.314,0,0,1,0-14.5,10.128,10.128,0,0,1,14.409,0,10.314,10.314,0,0,1,0,14.5ZM39.877,59.019h-3.09v-3.09h3.09Z" transform="translate(0)" fill="#ccc"/></g></svg>