<svg xmlns="http://www.w3.org/2000/svg" width="11.816" height="11.819" viewBox="0 0 11.816 11.819"><g transform="translate(-6.12 -4.46)"><path d="M6.62,16.279a.5.5,0,0,1-.49-.6l.83-4.161a.5.5,0,0,1,.137-.256l6.659-6.659a.5.5,0,0,1,.707,0L17.79,7.934a.5.5,0,0,1,0,.7l-5.408,5.511a.5.5,0,1,1-.714-.7l5.061-5.158L14.108,5.667l-6.2,6.2-.654,3.277,3.425-.686a.5.5,0,0,1,.2.981l-4.161.833A.5.5,0,0,1,6.62,16.279Z" fill="#0058d0"/><path d="M3.331,3.828a.5.5,0,0,1-.353-.146L-.353.354a.5.5,0,0,1,0-.707.5.5,0,0,1,.707,0L3.684,2.974a.5.5,0,0,1-.353.854Z" transform="translate(7.45 11.619)" fill="#0058d0"/><path d="M0,5.979a.5.5,0,0,1-.354-.147.5.5,0,0,1,0-.707L5.128-.354a.5.5,0,0,1,.707,0,.5.5,0,0,1,0,.707L.353,5.832A.5.5,0,0,1,0,5.979Z" transform="translate(10.292 6.625)" fill="#0058d0"/></g></svg>