<svg xmlns="http://www.w3.org/2000/svg" xmlns:xlink="http://www.w3.org/1999/xlink" width="26.348" height="26.961" viewBox="0 0 26.348 26.961"><defs><clipPath id="a"><path d="M28.042,13.029H15.48v5.208h7.23c-.674,3.309-3.493,5.208-7.23,5.208a7.966,7.966,0,1,1,0-15.931,7.793,7.793,0,0,1,4.963,1.777L24.365,5.37A13.472,13.472,0,1,0,15.48,28.961c6.74,0,12.868-4.9,12.868-13.48A11.183,11.183,0,0,0,28.042,13.029Z" transform="translate(-2 -2)"/></clipPath></defs><g clip-path="url(#a)"><path d="M0,26.931V11l10.417,7.966Z" transform="translate(-1.225 -5.485)" fill="#fbbc05"/></g><g clip-path="url(#a)"><path d="M0,6.74l10.417,7.966,4.289-3.738,14.706-2.39V0H0Z" transform="translate(-1.225 -1.225)" fill="#ea4335"/></g><g clip-path="url(#a)"><path d="M0,22.671,18.382,8.578l4.841.613L29.412,0V29.412H0Z" transform="translate(-1.225 -1.225)" fill="#34a853"/></g><g clip-path="url(#a)"><path d="M34.446,33.671,15.451,18.966,13,17.127,34.446,11Z" transform="translate(-6.26 -5.485)" fill="#4285f4"/></g></svg>