<svg xmlns="http://www.w3.org/2000/svg" width="34" height="34" viewBox="0 0 34 34"><g transform="translate(-7 -7)"><path d="M7-1A8,8,0,1,1-1,7,8.009,8.009,0,0,1,7-1ZM7,13A6,6,0,1,0,1,7,6.007,6.007,0,0,0,7,13Z" transform="translate(8 26)" fill="#4db2a4"/><path d="M7-1A8,8,0,1,1-1,7,8.009,8.009,0,0,1,7-1ZM7,13A6,6,0,1,0,1,7,6.007,6.007,0,0,0,7,13Z" transform="translate(26 8)" fill="#4db2a4"/><path d="M10.143,23a1,1,0,0,1-.991-1.143A15.013,15.013,0,0,1,20.834,9.335a1,1,0,0,1,.423,1.955A13.013,13.013,0,0,0,11.131,22.146,1,1,0,0,1,10.143,23Z" fill="#4db2a4"/><path d="M26,39a1,1,0,0,1-.153-1.988A13.192,13.192,0,0,0,36.7,26.807a1,1,0,0,1,1.953.429,15.192,15.192,0,0,1-12.5,11.752A1.008,1.008,0,0,1,26,39Z" fill="#4db2a4"/><path d="M19.9,14.331a1,1,0,0,1-.845-1.533l1.577-2.507-2.19-1.46a1,1,0,0,1,1.109-1.664l3,2a1,1,0,0,1,.292,1.365l-2.1,3.331A1,1,0,0,1,19.9,14.331Z" fill="#4db2a4"/><path d="M29,41a1,1,0,0,1-.554-.168l-3-2a1,1,0,0,1-.292-1.365l2.1-3.331A1,1,0,0,1,28.942,35.2l-1.577,2.507,2.19,1.46A1,1,0,0,1,29,41Z" fill="#4db2a4"/></g></svg>