<svg xmlns="http://www.w3.org/2000/svg" width="25" height="25" viewBox="0 0 25 25"><circle cx="12.5" cy="12.5" r="12.5" fill="#ccc"/><path d="M7-6.538A1.219,1.219,0,0,0,5.782-5.32,1.219,1.219,0,0,0,7-4.1,1.219,1.219,0,0,0,8.218-5.32,1.219,1.219,0,0,0,7-6.538Zm4.676,0A1.219,1.219,0,0,0,10.458-5.32,1.219,1.219,0,0,0,11.676-4.1,1.219,1.219,0,0,0,12.894-5.32,1.219,1.219,0,0,0,11.676-6.538Zm-9.338,0A1.219,1.219,0,0,0,1.12-5.32,1.219,1.219,0,0,0,2.338-4.1,1.219,1.219,0,0,0,3.556-5.32,1.219,1.219,0,0,0,2.338-6.538Z" transform="translate(6 18)" fill="#fff"/></svg>