<svg xmlns="http://www.w3.org/2000/svg" width="17.713" height="12.178" viewBox="0 0 17.713 12.178"><g transform="translate(-4 -9)"><path d="M12.857,21.178c-4.824,0-8.6-5.544-8.762-5.78a.553.553,0,0,1,0-.617C4.252,14.544,8.032,9,12.857,9s8.6,5.544,8.762,5.78a.553.553,0,0,1,0,.617C21.461,15.634,17.681,21.178,12.857,21.178ZM5.236,15.089c.846,1.132,3.992,4.982,7.621,4.982s6.775-3.85,7.621-4.982c-.846-1.132-3.992-4.982-7.621-4.982S6.082,13.957,5.236,15.089Z" fill="#ccc"/><path d="M17.321,20.642a3.321,3.321,0,1,1,3.321-3.321A3.321,3.321,0,0,1,17.321,20.642Zm0-5.535a2.214,2.214,0,1,0,2.214,2.214A2.214,2.214,0,0,0,17.321,15.107Z" transform="translate(-4.465 -2.232)" fill="#ccc"/></g></svg>