<svg xmlns="http://www.w3.org/2000/svg" width="23.331" height="23.332" viewBox="0 0 23.331 23.332"><g transform="translate(0)"><path d="M.011,13.324a2.937,2.937,0,0,1,.863-2.083l10-10A2.946,2.946,0,0,1,12.807.383L20.3,0l-.054,0c.047,0,.1,0,.152,0a2.947,2.947,0,0,1,2.946,2.947c0,.049,0,.1,0,.149l-.378,7.439a2.951,2.951,0,0,1-.859,1.933l-10,10a2.945,2.945,0,0,1-4.165,0L.874,15.408l.543-.543-.544.543A2.943,2.943,0,0,1,.011,13.324Zm9.01,8.058a1.408,1.408,0,0,0,1.993,0l10-10a1.414,1.414,0,0,0,.411-.925L21.8,3.018l0-.071a1.411,1.411,0,0,0-1.41-1.41l-.068,0-7.441.379a1.407,1.407,0,0,0-.925.411l-10,10a1.409,1.409,0,0,0,0,1.993h0Z" transform="translate(-0.011)" fill="#333"/><path d="M97.167,94.643a1.793,1.793,0,1,1-2.535,0A1.793,1.793,0,0,1,97.167,94.643Z" transform="translate(-78.65 -89.829)" fill="#333"/></g></svg>