<svg xmlns="http://www.w3.org/2000/svg" width="27.096" height="29.738" viewBox="0 0 27.096 29.738"><path d="M124.925,81.016a9.3,9.3,0,0,1-1.619-3.529,22.914,22.914,0,0,1-.471-5.294,12.73,12.73,0,0,0-.461-3.533,7.894,7.894,0,0,0-1.423-2.8,6.4,6.4,0,0,0-2.412-1.836,8.1,8.1,0,0,0-2.279-.579,2.608,2.608,0,0,0,.193-1.006,2.725,2.725,0,0,0-5.419,0,2.6,2.6,0,0,0,.193,1.006,8.1,8.1,0,0,0-2.279.579,6.4,6.4,0,0,0-2.412,1.836,7.9,7.9,0,0,0-1.423,2.8,12.714,12.714,0,0,0-.461,3.533,22.914,22.914,0,0,1-.471,5.294,9.272,9.272,0,0,1-1.619,3.529,2.432,2.432,0,0,0-2.364,2.693v2.032h9.484a4.065,4.065,0,0,0,8.129,0H127.3V83.709A2.44,2.44,0,0,0,124.925,81.016ZM106,72.193a8.606,8.606,0,0,1,1.582-5.477,5.658,5.658,0,0,1,4.644-1.975h.854v-.261a3.462,3.462,0,0,1-.728-1.873,1.39,1.39,0,0,1,2.777,0,3.462,3.462,0,0,1-.728,1.873v.261h.854a5.654,5.654,0,0,1,4.644,1.975,8.633,8.633,0,0,1,1.582,5.477c0,3.577.322,6.381,1.8,8.806H104.2C105.68,78.574,106,75.77,106,72.193Zm7.739,16.325a2.7,2.7,0,0,1-2.71-2.777h5.419A2.7,2.7,0,0,1,113.741,88.518Zm12.193-4.132H101.548v-.677c0-.962.491-1.49,1.355-1.49H124.58c.864,0,1.355.528,1.355,1.49Z" transform="translate(-100.2 -60)" fill="#333"/></svg>