<svg xmlns="http://www.w3.org/2000/svg" width="19.246" height="21.568" viewBox="0 0 19.246 21.568"><g transform="translate(-27.563 -0.001)"><path d="M45.561,10.683l-7.648,7.648A5.029,5.029,0,1,1,30.8,11.22l8.557-8.557A3.046,3.046,0,0,1,40.37,1.99a3.078,3.078,0,0,1,1.738-.168A3.069,3.069,0,0,1,44.36,3.675a3.074,3.074,0,0,1,.168,1.738,3.042,3.042,0,0,1-.841,1.58l-8.3,8.3a1.071,1.071,0,0,1-.355.236,1.085,1.085,0,0,1-.611.059,1.078,1.078,0,0,1-.79-.65,1.079,1.079,0,0,1-.059-.611,1.065,1.065,0,0,1,.3-.554l7.394-7.394L40.012,5.134l-7.394,7.394a2.839,2.839,0,1,0,4.015,4.015l8.3-8.3a4.827,4.827,0,1,0-6.826-6.826L29.553,9.972a6.793,6.793,0,1,0,9.607,9.607l7.648-7.648Z" transform="translate(0 0)" fill="#333"/></g></svg>