<svg xmlns="http://www.w3.org/2000/svg" xmlns:xlink="http://www.w3.org/1999/xlink" width="226.476" height="34.144" viewBox="0 0 226.476 34.144"><defs><clipPath id="a"><rect width="226.476" height="34.144" fill="none"/></clipPath><clipPath id="b"><path d="M37.608,6.4c-.091.037-.184.073-.265.11-.054.028-.109.045-.155.073a15.21,15.21,0,0,0-4.257,2.831,16,16,0,0,0-1.141,1.206c-.567.649-1.188,1.425-1.955,2.457l-.4.53c-.356.483-3.671,5.344-4.265,6.23-.229.347-.494.731-.776,1.133l-.493.7c-.575.822-1.261,1.744-1.928,2.6-.311.392-.621.767-.885,1.077a8.833,8.833,0,0,1-.658.694,7.606,7.606,0,0,1-2.439,1.572,7.716,7.716,0,0,1-2.942.575,7.6,7.6,0,0,1-2.073-.283A2.772,2.772,0,0,1,12.6,27.8c-.2-.064-.4-.146-.6-.228a7.875,7.875,0,0,1-4.439-4.888A8.07,8.07,0,0,1,7.2,20.345a7.983,7.983,0,0,1,.612-3.051,7.893,7.893,0,0,1,2.85-3.453,7.775,7.775,0,0,1,2.056-.978,7.6,7.6,0,0,1,2.32-.364,8.109,8.109,0,0,1,2.951.565,8.2,8.2,0,0,1,2.439,1.571c.173.164.4.42.658.7.22.26-.07-.333-.361-.927-.311-.636-.625-1.271-.318-.861.11.147,1.627.988,1.737,1.135l3.816-4.918A19.311,19.311,0,0,0,20.709,6.4,15.069,15.069,0,0,0,2.567,11.932,14.8,14.8,0,0,0,0,20.345,14.9,14.9,0,0,0,1.179,26.2a15.089,15.089,0,0,0,5.444,6.623,15.528,15.528,0,0,0,3.947,1.89,14.964,14.964,0,0,0,14.516-3.169c.1-.083.191-.174.282-.256a13.411,13.411,0,0,0,1.151-1.216c.576-.657,1.187-1.434,1.964-2.456l.393-.53c.229-.311,2.073-3.014,3.563-5.188.858-1.261,1.571-2.3,1.708-2.5l.264-.366c.64-.913,1.326-1.844,1.928-2.613.311-.392.621-.767.887-1.078a8.574,8.574,0,0,1,.657-.694,7.931,7.931,0,0,1,2.43-1.571c.229-.091.457-.174.667-.238s.43-.119.658-.164a8.562,8.562,0,0,1,1.616-.173,7.9,7.9,0,0,1,3.06.62,7.769,7.769,0,0,1,3.454,2.841,7.518,7.518,0,0,1,.986,2.055,7.727,7.727,0,0,1,.356,2.33,7.8,7.8,0,0,1-3.462,6.5,7.544,7.544,0,0,1-2.056.986,7.848,7.848,0,0,1-7.71-1.78c-.173-.165-.4-.42-.666-.713-.42-.484-.95-1.151-1.626-2.046-.1-.129-.192-.265-.292-.4-.193.273-.384.566-.594.867-2.274,3.326-3.261,4.759-3.471,5.061l-.239.321c.275.319.53.64.786.922a13.984,13.984,0,0,0,1.151,1.225,14.956,14.956,0,0,0,10.332,4.1,14.9,14.9,0,0,0,5.855-1.178A15.048,15.048,0,0,0,51.676,7.866,15.183,15.183,0,0,0,43.263,5.3a14.909,14.909,0,0,0-5.654,1.1" transform="translate(0 -5.299)" fill="none"/></clipPath></defs><g transform="translate(0 0)"><g transform="translate(0 0)"><g clip-path="url(#a)"><path d="M96.306,6.125a2.025,2.025,0,0,1,1.747-.633h32.1q1.6.061.753,1.988l-10.51,24.3a3.757,3.757,0,0,1-.663,1.024,2.961,2.961,0,0,1-2.047.512h-8.553a.7.7,0,0,0-.211-.03q-1.355-.15-.6-1.776l7.469-17.256H104.858L101,23.2a3.855,3.855,0,0,1-.663.994,2.906,2.906,0,0,1-2.018.512H89.771q-1.656,0-.843-1.806L95.854,6.907a4.245,4.245,0,0,1,.451-.783" transform="translate(-20.833 -1.291)" fill="#fff"/><path d="M143.1,17.935a2.027,2.027,0,0,1,1.747-.633h3.975q1.837.061.9,2.017l-3.463,8.071a3.909,3.909,0,0,1-.633,1.024,3.1,3.1,0,0,1-2.048.482h-3.7q-1.355-.15-.844-1.806l3.645-8.372a3.425,3.425,0,0,1,.421-.783m9.336,0a2.026,2.026,0,0,1,1.747-.633h3.975q1.806.061.9,2.017L155.6,27.39a5.444,5.444,0,0,1-.633,1.024,3.1,3.1,0,0,1-2.048.482h-3.734q-1.325-.15-.813-1.806l3.614-8.372a4.261,4.261,0,0,1,.451-.783m9.306,0a2.025,2.025,0,0,1,1.747-.633h8.823q1.837.061.934,2.017l-6.656,15.268a3.372,3.372,0,0,1-.633.994,2.96,2.96,0,0,1-2.047.512h-8.552q-1.325-.15-.844-1.807l6.776-15.569a4.259,4.259,0,0,1,.452-.783" transform="translate(-32.638 -4.066)" fill="#fff"/><path d="M196.315,17.93l1.6-3.674h-9.7a2.218,2.218,0,0,1-.632-.151q-.874-.481-.362-1.686l2.65-6.083a1.037,1.037,0,0,1,.151-.3q.3-.512,1.325-.542h32.7a1.364,1.364,0,0,1,.482.091q.842.36.361,1.415l-2.74,6.354a2.921,2.921,0,0,0-.181.271,2.281,2.281,0,0,1-1.9.662h-10L208.511,17.9h10.179a1.361,1.361,0,0,1,.482.091q.814.332.361,1.385l-2.74,6.354a2.834,2.834,0,0,1-.211.3,2.227,2.227,0,0,1-1.9.663h-9.968l-2.229,5.12a4.514,4.514,0,0,1-.662,1.024,3.038,3.038,0,0,1-2.018.482h-8.552q-1.355-.15-.843-1.806l2.078-4.819h-9.637a1.451,1.451,0,0,1-.663-.151q-.873-.481-.361-1.656l2.65-6.113a2.091,2.091,0,0,0,.151-.3q.3-.481,1.325-.512Z" transform="translate(-42.682 -1.291)" fill="#fff"/><path d="M249.992,37.237H229.215q-1.265,0-1.173-.759a2.134,2.134,0,0,1,.116-.346l1.126-2.577a2.115,2.115,0,0,1,.968-1.219,2.505,2.505,0,0,1,.989-.161h4.9l1.818-4.233h-4.695q-1.265,0-1.173-.76a.921.921,0,0,1,.116-.345l1.1-2.577a2.324,2.324,0,0,1,.989-1.242,2.753,2.753,0,0,1,.989-.138h20.5q1.633-.023,1.1,1.265l-1.2,2.761a1.6,1.6,0,0,1-.9.966,3.066,3.066,0,0,1-.759.07h-6.765l-1.817,4.233h6.281q1.656-.023,1.1,1.266l-1.2,2.761a1.523,1.523,0,0,1-.9.966,3.1,3.1,0,0,1-.758.069" transform="translate(-53.584 -5.377)" fill="#fff"/><path d="M250.753,5.493h18.731q.873,0,.994.723a1.487,1.487,0,0,1-.151.753l-2.74,6.353a1.811,1.811,0,0,1-1.265.9,5.014,5.014,0,0,1-.813.06l-17.888-.03a1.042,1.042,0,0,1-1.144-.783,1.835,1.835,0,0,1,.151-1.053l2.65-6.083a1.325,1.325,0,0,1,.663-.753,7.166,7.166,0,0,1,.813-.09m21.381,1.415a2.527,2.527,0,0,1,.994-1.265,3.8,3.8,0,0,1,1.175-.151h8.854q1.835,0,.933,1.927c0,.041-.01.06-.03.06l-10.51,24.332a2.443,2.443,0,0,1-1.235,1.356,5.336,5.336,0,0,1-1.476.15h-8.551q-1.508,0-.9-1.566a.678.678,0,0,1,.09-.241Z" transform="translate(-57.911 -1.291)" fill="#fff"/><path d="M136.374,1.06A2.074,2.074,0,0,1,138.12.427h4q1.807.031.9,1.988l-3.463,8.071a3.758,3.758,0,0,1-.662,1.024,2.906,2.906,0,0,1-2.018.512h-3.734a.958.958,0,0,1-.241-.03q-1.325-.119-.572-1.776l3.614-8.372a6.245,6.245,0,0,1,.422-.783" transform="translate(-31.033 -0.101)" fill="#fff"/><path d="M138.12,0h4.012a1.607,1.607,0,0,1,1.439.629,2.047,2.047,0,0,1-.152,1.96l-3.468,8.082a4.124,4.124,0,0,1-.745,1.141,3.238,3.238,0,0,1-2.32.637h-3.734a1.4,1.4,0,0,1-.312-.035,1.277,1.277,0,0,1-1.047-.583,1.95,1.95,0,0,1,.155-1.789l3.618-8.381a6.575,6.575,0,0,1,.453-.839L136.033.8A2.473,2.473,0,0,1,138.12,0Zm4,.855h-4a1.721,1.721,0,0,0-1.4.454,5.968,5.968,0,0,0-.379.709l-3.615,8.374c-.319.7-.231.95-.2,1.009.068.116.291.153.417.164l.035,0,.034.009a.532.532,0,0,0,.134.016h3.734c1.1,0,1.539-.21,1.716-.387a3.361,3.361,0,0,0,.575-.9l3.465-8.073c.356-.771.263-1.063.207-1.152C142.759.943,142.5.861,142.121.854Z" transform="translate(-31.033 -0.101)" fill="#333"/><path d="M148.573,1.06a2.023,2.023,0,0,1,1.746-.633h3.976q1.836.031.933,1.988l-3.463,8.071a3.758,3.758,0,0,1-.662,1.024,2.965,2.965,0,0,1-2.049.512h-3.7a.958.958,0,0,1-.241-.03q-1.327-.119-.6-1.776l3.644-8.372a6.247,6.247,0,0,1,.422-.783" transform="translate(-33.896 -0.101)" fill="#fff"/><path d="M150.319,0H154.3a1.636,1.636,0,0,1,1.465.636,2.035,2.035,0,0,1-.148,1.952L152.15,10.67a4.125,4.125,0,0,1-.745,1.141,3.292,3.292,0,0,1-2.351.637h-3.7a1.4,1.4,0,0,1-.313-.035,1.292,1.292,0,0,1-1.052-.582,1.957,1.957,0,0,1,.13-1.788l3.649-8.383a6.58,6.58,0,0,1,.453-.839l.007-.01A2.416,2.416,0,0,1,150.319,0Zm3.972.855h-3.972a1.672,1.672,0,0,0-1.394.449,5.907,5.907,0,0,0-.384.715L144.9,10.385c-.306.7-.213.95-.178,1.01.068.115.269.156.426.17l.035,0,.034.009a.532.532,0,0,0,.134.016h3.7c1.183,0,1.6-.242,1.746-.387a3.362,3.362,0,0,0,.575-.9l3.464-8.073c.352-.763.259-1.055.2-1.145C154.951.945,154.684.862,154.291.854Z" transform="translate(-33.896 -0.101)" fill="#333"/></g></g><g transform="translate(0 4.054)"><g clip-path="url(#b)"><rect width="29.307" height="30.091" transform="translate(0 0)" fill="#4db2a4"/><rect width="29.001" height="30.091" transform="translate(29.307 0)" fill="#ffd900"/></g></g><g transform="translate(0 0)"><g clip-path="url(#a)"><path d="M32.075,18.313l-13.728-.23.088-5.24,8.371.141-.049-9.364L32,3.59Z" transform="translate(-4.937 -1.463)" fill="#4db2a4"/></g></g></g></svg>