<svg xmlns="http://www.w3.org/2000/svg" xmlns:xlink="http://www.w3.org/1999/xlink" width="201.448" height="48.777" viewBox="0 0 201.448 48.777"><defs><clipPath id="a"><rect width="201.448" height="30.371" fill="none"/></clipPath><clipPath id="b"><path d="M33.452,6.274c-.081.033-.163.065-.236.1-.048.024-.1.04-.137.065a13.529,13.529,0,0,0-3.787,2.518,14.233,14.233,0,0,0-1.015,1.073c-.5.577-1.057,1.268-1.739,2.186l-.359.472c-.316.43-3.266,4.753-3.794,5.541-.2.308-.44.65-.691,1.008l-.439.625c-.512.731-1.121,1.551-1.715,2.316-.276.349-.553.682-.787.958a7.858,7.858,0,0,1-.585.617A6.766,6.766,0,0,1,16,25.15a6.863,6.863,0,0,1-2.617.512,6.758,6.758,0,0,1-1.844-.252,2.466,2.466,0,0,1-.333-.1c-.178-.057-.357-.13-.536-.2A7,7,0,0,1,6.72,20.762a7.178,7.178,0,0,1-.316-2.08,7.1,7.1,0,0,1,.544-2.714A7.021,7.021,0,0,1,9.482,12.9a6.916,6.916,0,0,1,1.828-.87,6.761,6.761,0,0,1,2.064-.324,7.213,7.213,0,0,1,2.625.5,7.3,7.3,0,0,1,2.169,1.4c.154.146.357.374.585.625.2.231-.062-.3-.321-.825-.277-.565-.556-1.13-.283-.766.1.131,1.447.879,1.545,1.009l3.394-4.375a17.177,17.177,0,0,0-4.668-3A13.4,13.4,0,0,0,2.283,11.2,13.169,13.169,0,0,0,0,18.682a13.249,13.249,0,0,0,1.049,5.209,13.422,13.422,0,0,0,4.842,5.891A13.812,13.812,0,0,0,9.4,31.463a13.31,13.31,0,0,0,12.911-2.819c.089-.073.17-.154.251-.227a11.928,11.928,0,0,0,1.024-1.081c.512-.585,1.056-1.275,1.747-2.185l.35-.472c.2-.276,1.844-2.681,3.169-4.615.763-1.121,1.4-2.048,1.52-2.227l.235-.325c.57-.812,1.179-1.641,1.715-2.324.276-.349.553-.683.789-.959a7.627,7.627,0,0,1,.585-.617,7.054,7.054,0,0,1,2.161-1.4c.2-.081.407-.154.593-.212s.382-.105.585-.146a7.616,7.616,0,0,1,1.438-.154,7.03,7.03,0,0,1,2.722.552,6.91,6.91,0,0,1,3.072,2.527,6.687,6.687,0,0,1,.877,1.828,6.873,6.873,0,0,1,.317,2.073,6.935,6.935,0,0,1-3.079,5.785,6.711,6.711,0,0,1-1.829.877A6.981,6.981,0,0,1,33.7,23.76c-.154-.147-.357-.374-.593-.634-.374-.431-.845-1.023-1.447-1.82-.09-.114-.171-.236-.26-.357-.171.243-.342.5-.528.771-2.023,2.958-2.9,4.233-3.087,4.5l-.212.285c.245.284.472.569.7.82a12.439,12.439,0,0,0,1.023,1.089,13.3,13.3,0,0,0,9.19,3.648,13.253,13.253,0,0,0,5.208-1.048A13.385,13.385,0,0,0,45.966,7.583,13.505,13.505,0,0,0,38.482,5.3a13.262,13.262,0,0,0-5.029.975" transform="translate(0 -5.299)" fill="none"/></clipPath></defs><g transform="translate(-24 -30.406)"><g transform="translate(24 30.406)"><g clip-path="url(#a)"><path d="M95.461,6.055a1.8,1.8,0,0,1,1.554-.563h28.554q1.419.054.67,1.768L116.89,28.877a3.342,3.342,0,0,1-.589.91,2.634,2.634,0,0,1-1.821.455h-7.608a.622.622,0,0,0-.188-.027q-1.205-.134-.536-1.58l6.644-15.349h-9.724l-3.428,7.955a3.429,3.429,0,0,1-.589.884,2.585,2.585,0,0,1-1.8.455H89.648q-1.473,0-.75-1.607L95.059,6.751a3.776,3.776,0,0,1,.4-.7" transform="translate(-28.329 -1.755)"/><path d="M142.637,17.865a1.8,1.8,0,0,1,1.554-.563h3.536q1.634.054.8,1.794l-3.081,7.179a3.477,3.477,0,0,1-.563.91,2.754,2.754,0,0,1-1.822.429h-3.294q-1.205-.134-.751-1.607l3.242-7.447a3.046,3.046,0,0,1,.374-.7m8.3,0A1.8,1.8,0,0,1,152.5,17.3h3.536q1.607.054.8,1.794l-3.08,7.179a4.841,4.841,0,0,1-.563.91,2.754,2.754,0,0,1-1.822.429h-3.321q-1.179-.134-.723-1.607l3.215-7.447a3.79,3.79,0,0,1,.4-.7m8.277,0a1.8,1.8,0,0,1,1.554-.563h7.848q1.634.054.831,1.794l-5.92,13.581a3,3,0,0,1-.563.884,2.633,2.633,0,0,1-1.821.455H153.54q-1.179-.134-.751-1.607l6.027-13.848a3.789,3.789,0,0,1,.4-.7" transform="translate(-44.381 -5.529)"/><path d="M194.693,16.555l1.419-3.268h-8.625a1.973,1.973,0,0,1-.562-.134q-.778-.428-.322-1.5l2.357-5.41a.923.923,0,0,1,.134-.268q.267-.455,1.179-.482h29.09a1.214,1.214,0,0,1,.429.081q.749.321.321,1.259l-2.437,5.652a2.6,2.6,0,0,0-.161.241,2.029,2.029,0,0,1-1.688.589h-8.893l-1.393,3.215h9.054a1.211,1.211,0,0,1,.429.081q.724.295.321,1.232l-2.437,5.652a2.521,2.521,0,0,1-.188.267,1.981,1.981,0,0,1-1.688.589h-8.867L200.184,28.9a4.016,4.016,0,0,1-.589.91,2.7,2.7,0,0,1-1.8.429h-7.607q-1.205-.134-.75-1.607l1.848-4.286h-8.572a1.291,1.291,0,0,1-.589-.134q-.777-.428-.321-1.473l2.357-5.438a1.859,1.859,0,0,0,.134-.268q.267-.428,1.179-.455Z" transform="translate(-58.038 -1.755)"/><path d="M247.566,35.65H229.085q-1.125,0-1.043-.675a1.9,1.9,0,0,1,.1-.308l1-2.292a1.881,1.881,0,0,1,.861-1.085,2.228,2.228,0,0,1,.88-.144h4.358l1.617-3.765h-4.176q-1.125,0-1.043-.676a.819.819,0,0,1,.1-.307l.983-2.292a2.067,2.067,0,0,1,.88-1.105,2.449,2.449,0,0,1,.88-.123h18.234q1.452-.02.983,1.126l-1.064,2.456a1.423,1.423,0,0,1-.8.859,2.727,2.727,0,0,1-.675.062H245.15l-1.616,3.765h5.587q1.473-.02.982,1.126l-1.064,2.456a1.354,1.354,0,0,1-.8.859,2.757,2.757,0,0,1-.674.061" transform="translate(-72.862 -7.311)"/><path d="M250.278,5.493h16.661q.777,0,.884.643a1.323,1.323,0,0,1-.134.67l-2.437,5.651a1.611,1.611,0,0,1-1.125.8,4.459,4.459,0,0,1-.723.053l-15.911-.027a.927.927,0,0,1-1.018-.7,1.632,1.632,0,0,1,.134-.937l2.357-5.411a1.179,1.179,0,0,1,.589-.67,6.373,6.373,0,0,1,.723-.08M269.3,6.752a2.248,2.248,0,0,1,.884-1.125,3.383,3.383,0,0,1,1.045-.134H279.1q1.632,0,.829,1.714c0,.036-.009.054-.027.054L270.555,28.9a2.173,2.173,0,0,1-1.1,1.206,4.747,4.747,0,0,1-1.313.133h-7.606q-1.341,0-.8-1.393a.6.6,0,0,1,.08-.214Z" transform="translate(-78.747 -1.755)"/><path d="M135.9.99a1.845,1.845,0,0,1,1.554-.563h3.562q1.608.028.8,1.768l-3.081,7.179a3.342,3.342,0,0,1-.589.91,2.585,2.585,0,0,1-1.8.455h-3.321a.852.852,0,0,1-.214-.027q-1.179-.106-.509-1.58l3.215-7.447a5.554,5.554,0,0,1,.375-.7" transform="translate(-42.198 -0.137)"/><path d="M137.451,0h3.57a1.473,1.473,0,0,1,1.319.581,1.861,1.861,0,0,1-.132,1.788l-3.086,7.19a3.713,3.713,0,0,1-.672,1.028,2.92,2.92,0,0,1-2.1.58h-3.321a1.29,1.29,0,0,1-.286-.031,1.179,1.179,0,0,1-.964-.541,1.776,1.776,0,0,1,.135-1.635L135.136,1.5a5.893,5.893,0,0,1,.407-.752l.015-.021A2.243,2.243,0,0,1,137.451,0Zm3.558.855h-3.558a1.493,1.493,0,0,0-1.206.385,5.28,5.28,0,0,0-.333.623L132.7,9.31c-.281.619-.2.82-.177.854.036.062.158.107.335.123l.035,0,.034.009a.426.426,0,0,0,.107.013h3.321c1.012,0,1.37-.207,1.493-.33a2.944,2.944,0,0,0,.5-.785l3.082-7.181c.315-.683.223-.923.187-.98C141.547.926,141.326.86,141.009.855Z" transform="translate(-42.198 -0.137)" fill="#fff"/><path d="M148.1.99a1.8,1.8,0,0,1,1.553-.563h3.536q1.633.028.83,1.768l-3.081,7.179a3.342,3.342,0,0,1-.589.91,2.637,2.637,0,0,1-1.822.455h-3.294a.852.852,0,0,1-.214-.027q-1.18-.106-.536-1.58l3.241-7.447a5.556,5.556,0,0,1,.375-.7" transform="translate(-46.092 -0.137)"/><path d="M149.648,0h3.544a1.5,1.5,0,0,1,1.342.588,1.851,1.851,0,0,1-.128,1.781l-3.086,7.19a3.713,3.713,0,0,1-.672,1.028,2.968,2.968,0,0,1-2.125.58h-3.294a1.29,1.29,0,0,1-.286-.031,1.192,1.192,0,0,1-.969-.541,1.782,1.782,0,0,1,.113-1.633L147.333,1.5a5.9,5.9,0,0,1,.407-.752l.007-.01A2.192,2.192,0,0,1,149.648,0Zm3.533.855h-3.533a1.545,1.545,0,0,0-1.2.379,5.215,5.215,0,0,0-.337.629L144.871,9.3c-.209.479-.22.756-.161.856.039.065.163.112.343.128l.035,0,.034.009a.426.426,0,0,0,.107.013h3.294c1.035,0,1.4-.207,1.52-.33a2.944,2.944,0,0,0,.5-.785l3.082-7.182c.312-.677.219-.916.183-.973C153.739.929,153.509.86,153.181.855Z" transform="translate(-46.092 -0.137)" fill="#fff"/></g><g transform="translate(0 3.606)"><g clip-path="url(#b)"><rect width="26.068" height="26.765" transform="translate(0 0)" fill="#4db2a4"/><rect width="25.796" height="26.765" transform="translate(26.068 0)" fill="#ffd900"/></g></g><g clip-path="url(#a)"><path d="M31.023,17.149l-12.553-.211.084-5L26,12.064l-.044-8.326,5-.026Z" transform="translate(-6.713 -1.989)" fill="#4db2a4"/></g></g><g transform="translate(-15 -3.816)"><text transform="translate(132 79)" font-size="12" font-family="Futura-Medium, Futura" font-weight="500"><tspan x="0" y="0">good change</tspan></text><path d="M29,.5H0v-1H29Z" transform="translate(98.5 76.5)" fill="#ccc"/><path d="M28,.5H0v-1H28Z" transform="translate(208.5 76.5)" fill="#ccc"/></g></g></svg>