<svg xmlns="http://www.w3.org/2000/svg" width="40" height="40" viewBox="0 0 40 40"><g transform="translate(-285 -741)"><circle cx="20" cy="20" r="20" transform="translate(285 741)" fill="#333"/><g transform="translate(298.412 749.51)"><path d="M2-.5H12.581a2.5,2.5,0,0,1,2.5,2.5V7.77a2.5,2.5,0,0,1-2.5,2.5H2A2.5,2.5,0,0,1-.5,7.77V2A2.5,2.5,0,0,1,2-.5ZM12.581,9.27a1.5,1.5,0,0,0,1.5-1.5V2a1.5,1.5,0,0,0-1.5-1.5H2A1.5,1.5,0,0,0,.5,2V7.77A1.5,1.5,0,0,0,2,9.27Z" fill="#fff"/><path d="M13.291,24.091a.5.5,0,0,1-.266-.077L5.734,19.423a.5.5,0,1,1,.533-.846L13.291,23l7.024-4.423a.5.5,0,1,1,.533.846l-7.291,4.591A.5.5,0,0,1,13.291,24.091Z" transform="translate(-6 -17.631)" fill="#fff"/></g><path d="M-13.758-4.056a3.884,3.884,0,0,1,.258.624h-.378a4.649,4.649,0,0,1-.66-.03c.018.216.024.342.024.51v.45a2.777,2.777,0,0,1-.036.462h.666v-.78h3.948v.75h.666a3.231,3.231,0,0,1-.03-.444v-.438c0-.216.006-.348.018-.5a5.513,5.513,0,0,1-.648.024h-.4c.09-.15.1-.168.366-.69l-.582-.186c.306-.048.492-.084.726-.138.144-.036.162-.036.258-.054l-.414-.582a6.155,6.155,0,0,1-1.212.27A24.254,24.254,0,0,1-13.9-4.65c-.108,0-.27,0-.474-.006a3.437,3.437,0,0,1,.216.6Zm.918.624A6.337,6.337,0,0,0-13.1-4.08c.45-.024.684-.036.7-.042.09.216.168.438.246.69Zm1.32,0a4.44,4.44,0,0,0-.24-.738c.192-.024.348-.036.444-.048.222-.018.372-.036.438-.042s.1-.012.258-.036a5.067,5.067,0,0,1-.4.864Zm1.1,1.026a2.875,2.875,0,0,1-.522.03h-2.178a5.7,5.7,0,0,1-.612-.03v.618c.108-.012.12-.012.294-.024a4.791,4.791,0,0,0,.966,1.1,7.029,7.029,0,0,1-2.142.576,2.817,2.817,0,0,1,.33.642,7.685,7.685,0,0,0,2.37-.816A5.577,5.577,0,0,0-11.088.1a6.83,6.83,0,0,0,1.626.4A2.523,2.523,0,0,1-9.15-.174,6.666,6.666,0,0,1-11.31-.7a5.784,5.784,0,0,0,.75-.66,7.149,7.149,0,0,1,.528-.582ZM-11-1.818a3.8,3.8,0,0,1-.9.786,2.775,2.775,0,0,1-.822-.786Zm3.546-1.818a6.424,6.424,0,0,0,.348-.882c.06-.18.1-.3.12-.36l-.66-.228a3.656,3.656,0,0,1-.222.828,4.436,4.436,0,0,1-.912,1.542,3.754,3.754,0,0,1,.276.714,3.589,3.589,0,0,0,.444-.648c-.018.438-.018.456-.018.666V-.216a6.072,6.072,0,0,1-.036.7h.69a6.538,6.538,0,0,1-.03-.7ZM-3.6-4.848a4.265,4.265,0,0,1-.636.036h-1.92a4.084,4.084,0,0,1-.594-.036v.576A4.306,4.306,0,0,1-6.21-4.3h2.022a5.266,5.266,0,0,1,.588.024Zm0,1.722a3.6,3.6,0,0,1-.474.024H-6.366a2.621,2.621,0,0,1-.426-.024v.57a2.766,2.766,0,0,1,.426-.024h2.3a3.4,3.4,0,0,1,.468.024Zm0,.846a3.451,3.451,0,0,1-.468.024h-2.3a2.669,2.669,0,0,1-.426-.024v.57a2.575,2.575,0,0,1,.426-.024h2.3A3.469,3.469,0,0,1-3.6-1.71ZM-6.21.21h1.98V.486h.66A4,4,0,0,1-3.6-.078v-.84a4.088,4.088,0,0,1,.024-.51c-.132.012-.276.018-.51.018H-6.36c-.2,0-.366-.006-.492-.018a4.384,4.384,0,0,1,.024.516v.846a4.8,4.8,0,0,1-.03.558h.648Zm0-.564v-.5h1.98v.5ZM-7.14-3.39a3.173,3.173,0,0,1,.5-.03H-3.72a4.917,4.917,0,0,1,.564.03v-.618a3.6,3.6,0,0,1-.564.036H-6.642A2.992,2.992,0,0,1-7.14-4Zm5.454-1.344a3.788,3.788,0,0,1,.024.54v1.65a4.327,4.327,0,0,1-.03.54H-.87a2.9,2.9,0,0,1-.024-.528V-4.188a3.05,3.05,0,0,1,.024-.54Zm2.706.012a3.16,3.16,0,0,1,.03.57v.75c0,.48-.006.744-.03,1A1.7,1.7,0,0,1,.192-.87a3.236,3.236,0,0,1-1.3.48,2.05,2.05,0,0,1,.42.714A5.075,5.075,0,0,0,.486-.138a2.3,2.3,0,0,0,1.182-1.4,7.087,7.087,0,0,0,.156-1.818v-.81a2.846,2.846,0,0,1,.03-.558Zm7.488,4.3c-.726-.7-.726-.7-.876-.834a9.3,9.3,0,0,0-1.11-.87,7.946,7.946,0,0,0,.936-1.656A1.154,1.154,0,0,1,7.65-4.11l-.4-.408a1.3,1.3,0,0,1-.534.066l-2.112.03H4.464a2.626,2.626,0,0,1-.528-.036l.024.768a4.728,4.728,0,0,1,.654-.048c1.89-.03,1.89-.03,1.986-.036l-.066.156A5.783,5.783,0,0,1,4.518-1.176a4.954,4.954,0,0,1-1.2.66A2.407,2.407,0,0,1,3.8.15,7.13,7.13,0,0,0,6.09-1.584,11.534,11.534,0,0,1,7.932.2Zm2.814.7A6.6,6.6,0,0,1,11.3-.4V-1.98a3.1,3.1,0,0,0-.024-.408,1.939,1.939,0,0,0,.2.1A14.2,14.2,0,0,1,13.6-1.14l.42-.708A17.628,17.628,0,0,0,11.3-3.114V-4.23a4.022,4.022,0,0,1,.024-.63H10.5a3.857,3.857,0,0,1,.036.612V-.4A4.042,4.042,0,0,1,10.5.27Z" transform="translate(306 768.997)" fill="#fff"/></g></svg>