<svg xmlns="http://www.w3.org/2000/svg" width="60" height="60" viewBox="0 0 60 60"><g transform="translate(-285 -741)"><circle cx="30" cy="30" r="30" transform="translate(285 741)" fill="#333"/><g transform="translate(304.851 753.055)"><path d="M2-.5H18.3A2.5,2.5,0,0,1,20.8,2v9.6a2.5,2.5,0,0,1-2.5,2.5H2A2.5,2.5,0,0,1-.5,11.6V2A2.5,2.5,0,0,1,2-.5ZM18.3,13.1a1.5,1.5,0,0,0,1.5-1.5V2A1.5,1.5,0,0,0,18.3.5H2A1.5,1.5,0,0,0,.5,2v9.6A1.5,1.5,0,0,0,2,13.1Z" fill="#fff"/><path d="M16.149,25.891a.5.5,0,0,1-.266-.077L5.734,19.423a.5.5,0,1,1,.533-.846L16.149,24.8l9.883-6.223a.5.5,0,1,1,.533.846L16.416,25.814A.5.5,0,0,1,16.149,25.891Z" transform="translate(-6 -17.094)" fill="#fff"/></g><text transform="translate(315 781.356)" fill="#fff" font-size="10" font-family="HiraginoSans-W6, Hiragino Sans"><tspan x="-24.85" y="0">受信リスト</tspan></text></g></svg>