<?xml version="1.0" encoding="utf-8"?>
<!-- Generator: Adobe Illustrator 27.8.1, SVG Export Plug-In . SVG Version: 6.00 Build 0)  -->
<svg version="1.1" id="レイヤー_1" xmlns="http://www.w3.org/2000/svg" xmlns:xlink="http://www.w3.org/1999/xlink" x="0px"
	 y="0px" viewBox="0 0 138 52" style="enable-background:new 0 0 138 52;" xml:space="preserve">
<style type="text/css">
	.st0{enable-background:new    ;}
	.st1{fill:#4DB2A4;}
	.st2{fill:#333333;}
</style>
<g transform="translate(-531 -328)">
	<g class="st0">
		<path class="st1" d="M543.7,344.1V370h-4.6v-25.9h-6.9v-4.3h18.4v4.3H543.7z"/>
	</g>
	<g class="st0">
		<path class="st2" d="M553.8,337h4.4v15.5c1.6-1.4,3.3-2.1,5.2-2.1c2.1,0,3.9,0.7,5.2,2.1c1.1,1.2,1.6,3.1,1.6,5.8V370h-4.4v-11.2
			c0-1.5-0.3-2.6-0.8-3.3s-1.4-1-2.6-1c-1.5,0-2.6,0.5-3.2,1.4c-0.6,1-0.9,2.6-0.9,5v9.2h-4.4V337z"/>
		<path class="st2" d="M589.7,351h4.4v19h-4.4v-2c-1.8,1.7-3.8,2.5-5.8,2.5c-2.6,0-4.8-1-6.5-2.9c-1.7-1.9-2.6-4.4-2.6-7.3
			c0-2.9,0.9-5.2,2.6-7.1s3.8-2.9,6.4-2.9c2.2,0,4.2,0.9,6,2.7V351z M579.3,360.4c0,1.8,0.5,3.3,1.5,4.5c1,1.2,2.3,1.7,3.8,1.7
			c1.6,0,2.9-0.6,3.9-1.7c1-1.2,1.5-2.6,1.5-4.4s-0.5-3.3-1.5-4.4c-1-1.1-2.3-1.7-3.9-1.7c-1.5,0-2.8,0.6-3.8,1.7
			C579.8,357.3,579.3,358.7,579.3,360.4z"/>
		<path class="st2" d="M599.7,351h4.4v1.8c1.5-1.5,3.3-2.3,5.2-2.3c2.2,0,3.9,0.7,5.2,2.1c1.1,1.2,1.6,3.1,1.6,5.8V370h-4.4v-10.6
			c0-1.9-0.3-3.2-0.8-3.9c-0.5-0.7-1.4-1.1-2.8-1.1c-1.5,0-2.5,0.5-3.1,1.4c-0.6,1-0.9,2.6-0.9,5v9.2h-4.4V351z"/>
		<path class="st2" d="M626,337v20.1l6.2-6.2h5.9l-8.3,8l8.9,11H633l-6.3-8l-0.7,0.7v7.3h-4.4v-33H626z"/>
		<path class="st2" d="M652.6,354.2l-3.6,1.9c-0.6-1.2-1.3-1.8-2.1-1.8c-0.4,0-0.7,0.1-1,0.4s-0.4,0.6-0.4,1c0,0.7,0.8,1.5,2.5,2.2
			c2.3,1,3.9,1.9,4.7,2.8s1.2,2,1.2,3.4c0,1.8-0.7,3.4-2,4.6c-1.3,1.2-2.9,1.8-4.8,1.8c-3.2,0-5.4-1.6-6.8-4.7l3.8-1.7
			c0.5,0.9,0.9,1.5,1.2,1.7c0.5,0.5,1.2,0.7,1.9,0.7c1.5,0,2.2-0.7,2.2-2c0-0.8-0.6-1.5-1.7-2.2c-0.4-0.2-0.9-0.4-1.3-0.6
			s-0.9-0.4-1.3-0.6c-1.3-0.6-2.2-1.2-2.7-1.9c-0.7-0.8-1-1.8-1-3.1c0-1.7,0.6-3,1.7-4.1c1.2-1.1,2.6-1.6,4.2-1.6
			C649.6,350.4,651.4,351.7,652.6,354.2z"/>
		<path class="st2" d="M658.9,367.8c0-0.7,0.3-1.4,0.8-1.9s1.2-0.8,1.9-0.8s1.4,0.3,1.9,0.8s0.8,1.2,0.8,1.9c0,0.8-0.3,1.4-0.8,1.9
			c-0.5,0.5-1.2,0.8-1.9,0.8c-0.8,0-1.4-0.3-1.9-0.8S658.9,368.6,658.9,367.8z M659.5,363.3v-23.4h4.4v23.4H659.5z"/>
	</g>
</g>
</svg>
