<svg xmlns="http://www.w3.org/2000/svg" width="132.926" height="33.535" viewBox="0 0 132.926 33.535"><g transform="translate(-540.801 -337.012)"><path d="M-55.859-32.988h4.395v15.547a7.567,7.567,0,0,1,5.176-2.109,6.688,6.688,0,0,1,5.156,2.09q1.641,1.816,1.641,5.8V0h-4.395V-11.25a5.364,5.364,0,0,0-.811-3.311A3.124,3.124,0,0,0-47.3-15.586a3.585,3.585,0,0,0-3.242,1.426q-.918,1.445-.918,4.961V0h-4.395ZM-19.9-19.023h4.414V0H-19.9V-1.992A8.429,8.429,0,0,1-25.742.547,8.414,8.414,0,0,1-32.266-2.3,10.6,10.6,0,0,1-34.824-9.57,10.278,10.278,0,0,1-32.266-16.7a8.248,8.248,0,0,1,6.406-2.852A8.09,8.09,0,0,1-19.9-16.816ZM-30.332-9.57a6.626,6.626,0,0,0,1.465,4.453,4.8,4.8,0,0,0,3.789,1.738,5.043,5.043,0,0,0,3.945-1.68,6.5,6.5,0,0,0,1.5-4.414,6.5,6.5,0,0,0-1.5-4.414,4.972,4.972,0,0,0-3.906-1.7,4.858,4.858,0,0,0-3.789,1.719A6.336,6.336,0,0,0-30.332-9.57Zm20.391-9.453h4.414v1.758a7.2,7.2,0,0,1,5.2-2.285,6.561,6.561,0,0,1,5.176,2.09q1.6,1.777,1.6,5.8V0H2.031V-10.625a6.968,6.968,0,0,0-.781-3.887,3.152,3.152,0,0,0-2.773-1.094A3.391,3.391,0,0,0-4.629-14.16q-.9,1.426-.9,4.98V0H-9.941ZM16.387-32.988v20.117l6.191-6.152h5.9l-8.262,7.988L29.082,0h-5.7L17.09-8.027l-.7.7V0H11.992V-32.988ZM42.969-15.781l-3.633,1.934q-.859-1.758-2.129-1.758a1.464,1.464,0,0,0-1.035.4,1.339,1.339,0,0,0-.43,1.025q0,1.094,2.539,2.168a15.137,15.137,0,0,1,4.707,2.773A4.747,4.747,0,0,1,44.2-5.82a5.989,5.989,0,0,1-2.031,4.609A6.914,6.914,0,0,1,37.4.547q-4.785,0-6.777-4.668l3.75-1.738a8.158,8.158,0,0,0,1.191,1.738,2.718,2.718,0,0,0,1.914.742q2.227,0,2.227-2.031,0-1.172-1.719-2.187-.664-.332-1.328-.645t-1.348-.645a8.249,8.249,0,0,1-2.7-1.875,4.619,4.619,0,0,1-1-3.066,5.426,5.426,0,0,1,1.7-4.1,5.961,5.961,0,0,1,4.219-1.621Q41.191-19.551,42.969-15.781ZM49.3-2.187a2.59,2.59,0,0,1,.8-1.895,2.612,2.612,0,0,1,1.914-.8,2.612,2.612,0,0,1,1.914.8,2.612,2.612,0,0,1,.8,1.914,2.635,2.635,0,0,1-.8,1.934,2.6,2.6,0,0,1-1.914.781,2.626,2.626,0,0,1-1.934-.781A2.65,2.65,0,0,1,49.3-2.187ZM49.8-6.719V-30.156h4.414V-6.719Z" transform="translate(619 370)" fill="#333"/><path d="M2.285-25.879V0H-2.266V-25.879H-9.2v-4.277H9.2v4.277Z" transform="translate(550 370)" fill="#4db2a4"/></g></svg>