<svg xmlns="http://www.w3.org/2000/svg" width="112.824" height="33.535" viewBox="0 0 112.824 33.535"><g transform="translate(-646.367 -2914.012)"><path d="M-33.213-32.988v16.172a8.109,8.109,0,0,1,5.977-2.734A8.223,8.223,0,0,1-20.83-16.68,10.251,10.251,0,0,1-18.271-9.57,10.465,10.465,0,0,1-20.85-2.3,8.311,8.311,0,0,1-27.314.547a8.22,8.22,0,0,1-5.9-2.539V0h-4.395V-32.988ZM-22.764-9.375a6.57,6.57,0,0,0-1.484-4.453,4.756,4.756,0,0,0-3.77-1.758,5.054,5.054,0,0,0-3.945,1.7,6.311,6.311,0,0,0-1.5,4.375,6.4,6.4,0,0,0,1.484,4.434,4.935,4.935,0,0,0,3.906,1.7,4.844,4.844,0,0,0,3.789-1.7A6.24,6.24,0,0,0-22.764-9.375Zm8.242-.273a9.453,9.453,0,0,1,2.949-7.012,9.882,9.882,0,0,1,7.188-2.891,9.937,9.937,0,0,1,7.227,2.91,9.685,9.685,0,0,1,2.93,7.148A9.634,9.634,0,0,1,2.822-2.324,10.08,10.08,0,0,1-4.463.547a9.667,9.667,0,0,1-7.168-2.93A9.853,9.853,0,0,1-14.521-9.648Zm4.492.078A6.416,6.416,0,0,0-8.506-5.059a5.364,5.364,0,0,0,4.121,1.68A5.357,5.357,0,0,0-.264-5.039,6.253,6.253,0,0,0,1.279-9.473,6.253,6.253,0,0,0-.264-13.906a5.364,5.364,0,0,0-4.121-1.68,5.317,5.317,0,0,0-4.082,1.68A6.112,6.112,0,0,0-10.029-9.57Zm24.844-9.453V-8.105q0,4.727,3.73,4.727t3.73-4.727V-19.023H26.67V-8.008A12.256,12.256,0,0,1,26.1-4.062a6.627,6.627,0,0,1-1.895,2.676A8.327,8.327,0,0,1,18.545.547,8.3,8.3,0,0,1,12.9-1.387a6.735,6.735,0,0,1-1.934-2.676,10.88,10.88,0,0,1-.547-3.945V-19.023Zm21.934,4.1V0H32.354V-14.922H30.479v-4.1h1.875V-26h4.395v6.973h3.418v4.1Z" transform="translate(719.025 2947)" fill="#333"/><path d="M6.514-7.324H-6.4L-9.756,0h-4.9L.264-32.051,14.658,0H9.678ZM4.658-11.6.186-21.855-4.5-11.6Z" transform="translate(661.025 2947)" fill="#4db2a4"/></g></svg>