<svg xmlns="http://www.w3.org/2000/svg" width="97.455" height="34.043" viewBox="0 0 97.455 34.043"><g transform="translate(-421.729 -4687.793)"><path d="M-13.271,0V-32.207L8.721-9.2V-30.156h4.551V1.836L-8.721-21.113V0Z" transform="translate(435 4720)" fill="#4db2a4"/><path d="M-14.258-8.477H-27.891a5.777,5.777,0,0,0,1.523,3.73A4.645,4.645,0,0,0-22.91-3.379,4.5,4.5,0,0,0-20.2-4.16a11.117,11.117,0,0,0,2.4-2.891l3.711,2.07A14.763,14.763,0,0,1-15.9-2.471,9.658,9.658,0,0,1-17.949-.752a8.224,8.224,0,0,1-2.363.986,11.5,11.5,0,0,1-2.754.313A8.955,8.955,0,0,1-29.9-2.187a10.256,10.256,0,0,1-2.578-7.3,10.539,10.539,0,0,1,2.5-7.3,8.619,8.619,0,0,1,6.68-2.754,8.543,8.543,0,0,1,6.641,2.676,10.525,10.525,0,0,1,2.422,7.363ZM-18.77-12.07A4.21,4.21,0,0,0-23.2-15.586a4.553,4.553,0,0,0-1.5.244,4.3,4.3,0,0,0-1.279.7,4.457,4.457,0,0,0-.986,1.1A5.128,5.128,0,0,0-27.6-12.07Zm11.094-6.953L-2.7-8.164l5.371-12.6,5.41,12.6,4.922-10.859H17.93L7.969,1.426,2.676-10.82-2.676,1.426l-9.941-20.449Zm39.629,3.242L28.32-13.848q-.859-1.758-2.129-1.758a1.464,1.464,0,0,0-1.035.4,1.339,1.339,0,0,0-.43,1.025q0,1.094,2.539,2.168a15.137,15.137,0,0,1,4.707,2.773A4.747,4.747,0,0,1,33.184-5.82a5.989,5.989,0,0,1-2.031,4.609A6.914,6.914,0,0,1,26.387.547q-4.785,0-6.777-4.668l3.75-1.738a8.158,8.158,0,0,0,1.191,1.738,2.718,2.718,0,0,0,1.914.742q2.227,0,2.227-2.031,0-1.172-1.719-2.187-.664-.332-1.328-.645T24.3-8.887a8.249,8.249,0,0,1-2.7-1.875,4.619,4.619,0,0,1-1-3.066,5.426,5.426,0,0,1,1.7-4.1,5.961,5.961,0,0,1,4.219-1.621Q30.176-19.551,31.953-15.781Z" transform="translate(486 4720)" fill="#333"/></g></svg>