<?xml version="1.0" encoding="utf-8"?>
<!-- Generator: Adobe Illustrator 27.8.1, SVG Export Plug-In . SVG Version: 6.00 Build 0)  -->
<svg version="1.1" id="レイヤー_1" xmlns="http://www.w3.org/2000/svg" xmlns:xlink="http://www.w3.org/1999/xlink" x="0px"
	 y="0px" viewBox="0 0 140 53" style="enable-background:new 0 0 140 53;" xml:space="preserve">
<style type="text/css">
	.st0{enable-background:new    ;}
	.st1{fill:#4DB2A4;}
	.st2{fill:#333333;}
</style>
<g transform="translate(-631 -2189)">
	<g class="st0">
		<path class="st1" d="M639.2,2218.8v12.2h-4.6v-30.2h5.2c2.5,0,4.4,0.2,5.7,0.5c1.3,0.4,2.4,1,3.4,2c1.7,1.7,2.6,3.8,2.6,6.4
			c0,2.8-0.9,4.9-2.8,6.6c-1.8,1.6-4.3,2.4-7.5,2.4H639.2z M639.2,2214.5h1.7c4.2,0,6.3-1.6,6.3-4.8c0-3.1-2.2-4.7-6.5-4.7h-1.5
			V2214.5z"/>
	</g>
	<g class="st0">
		<path class="st2" d="M654.5,2221.4c0-2.7,1-5.1,2.9-7c2-1.9,4.4-2.9,7.2-2.9c2.8,0,5.2,1,7.2,2.9c2,1.9,2.9,4.3,2.9,7.1
			c0,2.9-1,5.2-2.9,7.2c-2,1.9-4.4,2.9-7.3,2.9c-2.9,0-5.2-1-7.2-2.9C655.4,2226.7,654.5,2224.3,654.5,2221.4z M659,2221.4
			c0,1.9,0.5,3.4,1.5,4.5c1,1.1,2.4,1.7,4.1,1.7c1.7,0,3.1-0.6,4.1-1.7c1-1.1,1.5-2.6,1.5-4.4s-0.5-3.3-1.5-4.4
			c-1-1.1-2.4-1.7-4.1-1.7c-1.7,0-3,0.6-4.1,1.7C659.5,2218.2,659,2219.7,659,2221.4z"/>
		<path class="st2" d="M683.8,2241.4h-4.4V2212h4.4v2.1c1.7-1.7,3.7-2.6,5.9-2.6c2.6,0,4.8,1,6.5,2.9c1.7,1.9,2.6,4.3,2.6,7.2
			c0,2.9-0.9,5.2-2.6,7.1c-1.7,1.9-3.8,2.8-6.4,2.8c-2.2,0-4.2-0.9-6-2.7V2241.4z M694.3,2221.6c0-1.8-0.5-3.3-1.5-4.5
			c-1-1.2-2.3-1.7-3.8-1.7c-1.6,0-2.9,0.6-3.9,1.7c-1,1.1-1.5,2.6-1.5,4.4c0,1.8,0.5,3.3,1.5,4.4c1,1.1,2.3,1.7,3.9,1.7
			c1.5,0,2.8-0.6,3.8-1.7C693.8,2224.8,694.3,2223.3,694.3,2221.6z"/>
		<path class="st2" d="M707.8,2212v10.9c0,3.2,1.2,4.7,3.7,4.7c2.5,0,3.7-1.6,3.7-4.7V2212h4.4v11c0,1.5-0.2,2.8-0.6,3.9
			c-0.4,1-1,1.9-1.9,2.7c-1.5,1.3-3.4,1.9-5.7,1.9c-2.3,0-4.2-0.6-5.6-1.9c-0.9-0.8-1.6-1.7-1.9-2.7c-0.4-0.9-0.5-2.2-0.5-3.9v-11
			H707.8z"/>
		<path class="st2" d="M729.6,2198v33h-4.4v-33H729.6z"/>
		<path class="st2" d="M749.2,2212h4.4v19h-4.4v-2c-1.8,1.7-3.8,2.5-5.8,2.5c-2.6,0-4.8-1-6.5-2.9c-1.7-1.9-2.6-4.4-2.6-7.3
			c0-2.9,0.9-5.2,2.6-7.1c1.7-1.9,3.8-2.9,6.4-2.9c2.2,0,4.2,0.9,6,2.7V2212z M738.8,2221.4c0,1.8,0.5,3.3,1.5,4.5
			c1,1.2,2.3,1.7,3.8,1.7c1.6,0,2.9-0.6,3.9-1.7c1-1.2,1.5-2.6,1.5-4.4s-0.5-3.3-1.5-4.4c-1-1.1-2.3-1.7-3.9-1.7
			c-1.5,0-2.8,0.6-3.8,1.7C739.3,2218.3,738.8,2219.7,738.8,2221.4z"/>
		<path class="st2" d="M759.1,2212h4.4v1.7c0.8-0.8,1.5-1.4,2.1-1.7c0.6-0.3,1.4-0.5,2.3-0.5c1.2,0,2.4,0.4,3.6,1.1l-2,4
			c-0.8-0.6-1.6-0.9-2.4-0.9c-2.4,0-3.6,1.8-3.6,5.4v9.9h-4.4V2212z"/>
	</g>
</g>
</svg>
