<?xml version="1.0" encoding="utf-8"?>
<!-- Generator: Adobe Illustrator 27.8.1, SVG Export Plug-In . SVG Version: 6.00 Build 0)  -->
<svg version="1.1" id="レイヤー_1" xmlns="http://www.w3.org/2000/svg" xmlns:xlink="http://www.w3.org/1999/xlink" x="0px"
	 y="0px" viewBox="0 0 112 52" style="enable-background:new 0 0 112 52;" xml:space="preserve">
<style type="text/css">
	.st0{enable-background:new    ;}
	.st1{fill:#4DB2A4;}
	.st2{fill:#333333;}
</style>
<g transform="translate(-644 -2905)">
	<g class="st0">
		<path class="st1" d="M665.8,2939.7h-12.9l-3.4,7.3h-4.9l14.9-32.1L674,2947h-5L665.8,2939.7z M664,2935.4l-4.5-10.3l-4.7,10.3H664
			z"/>
	</g>
	<g class="st0">
		<path class="st2" d="M681.3,2914v16.2c1.8-1.8,3.8-2.7,6-2.7c2.6,0,4.7,1,6.4,2.9c1.7,1.9,2.6,4.3,2.6,7.1c0,2.9-0.9,5.4-2.6,7.3
			c-1.7,1.9-3.9,2.9-6.5,2.9c-2.2,0-4.2-0.8-5.9-2.5v2h-4.4v-33H681.3z M691.8,2937.6c0-1.8-0.5-3.3-1.5-4.5c-1-1.2-2.3-1.8-3.8-1.8
			c-1.6,0-2.9,0.6-3.9,1.7c-1,1.1-1.5,2.6-1.5,4.4c0,1.8,0.5,3.3,1.5,4.4c1,1.1,2.3,1.7,3.9,1.7c1.5,0,2.8-0.6,3.8-1.7
			C691.3,2940.8,691.8,2939.3,691.8,2937.6z"/>
		<path class="st2" d="M700,2937.4c0-2.7,1-5.1,2.9-7c2-1.9,4.4-2.9,7.2-2.9c2.8,0,5.2,1,7.2,2.9c2,1.9,2.9,4.3,2.9,7.1
			c0,2.9-1,5.2-2.9,7.2c-2,1.9-4.4,2.9-7.3,2.9c-2.9,0-5.2-1-7.2-2.9C701,2942.7,700,2940.3,700,2937.4z M704.5,2937.4
			c0,1.9,0.5,3.4,1.5,4.5c1,1.1,2.4,1.7,4.1,1.7c1.7,0,3.1-0.6,4.1-1.7c1-1.1,1.5-2.6,1.5-4.4s-0.5-3.3-1.5-4.4
			c-1-1.1-2.4-1.7-4.1-1.7c-1.7,0-3,0.6-4.1,1.7C705,2934.2,704.5,2935.7,704.5,2937.4z"/>
		<path class="st2" d="M729.3,2928v10.9c0,3.2,1.2,4.7,3.7,4.7c2.5,0,3.7-1.6,3.7-4.7V2928h4.4v11c0,1.5-0.2,2.8-0.6,3.9
			c-0.4,1-1,1.9-1.9,2.7c-1.5,1.3-3.4,1.9-5.7,1.9c-2.3,0-4.2-0.6-5.6-1.9c-0.9-0.8-1.6-1.7-1.9-2.7c-0.4-0.9-0.5-2.2-0.5-3.9v-11
			H729.3z"/>
		<path class="st2" d="M751.3,2932.1v14.9h-4.4v-14.9H745v-4.1h1.9v-7h4.4v7h3.4v4.1H751.3z"/>
	</g>
</g>
</svg>
