<?xml version="1.0" encoding="utf-8"?>
<!-- Generator: Adobe Illustrator 27.8.1, SVG Export Plug-In . SVG Version: 6.00 Build 0)  -->
<svg version="1.1" id="レイヤー_1" xmlns="http://www.w3.org/2000/svg" xmlns:xlink="http://www.w3.org/1999/xlink" x="0px"
	 y="0px" viewBox="0 0 104 52" style="enable-background:new 0 0 104 52;" xml:space="preserve">
<style type="text/css">
	.st0{enable-background:new    ;}
	.st1{fill:#4DB2A4;}
	.st2{fill:#333333;}
</style>
<g transform="translate(-383 -4678)">
	<g class="st0">
		<path class="st1" d="M387.1,4720v-32.2l22,23v-21h4.6v32l-22-22.9v21.1H387.1z"/>
	</g>
	<g class="st0">
		<path class="st2" d="M437.4,4711.5h-13.6c0.1,1.6,0.6,2.8,1.5,3.7c0.9,0.9,2.1,1.4,3.5,1.4c1.1,0,2-0.3,2.7-0.8
			c0.7-0.5,1.5-1.5,2.4-2.9l3.7,2.1c-0.6,1-1.2,1.8-1.8,2.5c-0.6,0.7-1.3,1.3-2.1,1.7c-0.7,0.4-1.5,0.8-2.4,1
			c-0.8,0.2-1.8,0.3-2.8,0.3c-2.8,0-5.1-0.9-6.8-2.7c-1.7-1.8-2.6-4.3-2.6-7.3c0-3,0.8-5.4,2.5-7.3c1.7-1.8,3.9-2.8,6.7-2.8
			c2.8,0,5,0.9,6.6,2.7c1.6,1.8,2.4,4.2,2.4,7.4L437.4,4711.5z M432.9,4707.9c-0.6-2.3-2.1-3.5-4.4-3.5c-0.5,0-1,0.1-1.5,0.2
			s-0.9,0.4-1.3,0.7c-0.4,0.3-0.7,0.7-1,1.1s-0.5,0.9-0.6,1.5H432.9z"/>
		<path class="st2" d="M444,4701l5,10.9l5.4-12.6l5.4,12.6l4.9-10.9h4.9l-10,20.4l-5.3-12.2l-5.4,12.2L439,4701H444z"/>
		<path class="st2" d="M483.6,4704.2l-3.6,1.9c-0.6-1.2-1.3-1.8-2.1-1.8c-0.4,0-0.7,0.1-1,0.4c-0.3,0.3-0.4,0.6-0.4,1
			c0,0.7,0.8,1.5,2.5,2.2c2.3,1,3.9,1.9,4.7,2.8c0.8,0.8,1.2,2,1.2,3.4c0,1.8-0.7,3.4-2,4.6c-1.3,1.2-2.9,1.8-4.8,1.8
			c-3.2,0-5.4-1.6-6.8-4.7l3.8-1.7c0.5,0.9,0.9,1.5,1.2,1.7c0.5,0.5,1.2,0.7,1.9,0.7c1.5,0,2.2-0.7,2.2-2c0-0.8-0.6-1.5-1.7-2.2
			c-0.4-0.2-0.9-0.4-1.3-0.6c-0.4-0.2-0.9-0.4-1.3-0.6c-1.3-0.6-2.2-1.2-2.7-1.9c-0.7-0.8-1-1.8-1-3.1c0-1.7,0.6-3,1.7-4.1
			c1.2-1.1,2.6-1.6,4.2-1.6C480.6,4700.4,482.4,4701.7,483.6,4704.2z"/>
	</g>
</g>
</svg>
