<svg xmlns="http://www.w3.org/2000/svg" width="84.41" height="30.703" viewBox="0 0 84.41 30.703"><g transform="translate(-660.838 -3792.844)"><path d="M-2.637-12.246V0H-7.187V-30.156h5.156a23.257,23.257,0,0,1,5.723.527,7.675,7.675,0,0,1,3.438,1.992,8.582,8.582,0,0,1,2.6,6.406,8.267,8.267,0,0,1-2.773,6.563,10.975,10.975,0,0,1-7.48,2.422Zm0-4.219h1.7q6.27,0,6.27-4.824,0-4.668-6.465-4.668h-1.5Z" transform="translate(668.025 3823)" fill="#4db2a4"/><path d="M-31.562-9.648a9.453,9.453,0,0,1,2.949-7.012,9.882,9.882,0,0,1,7.188-2.891,9.937,9.937,0,0,1,7.227,2.91,9.685,9.685,0,0,1,2.93,7.148,9.634,9.634,0,0,1-2.949,7.168A10.08,10.08,0,0,1-21.5.547a9.667,9.667,0,0,1-7.168-2.93A9.853,9.853,0,0,1-31.562-9.648Zm4.492.078a6.416,6.416,0,0,0,1.523,4.512,5.364,5.364,0,0,0,4.121,1.68A5.357,5.357,0,0,0-17.3-5.039a6.253,6.253,0,0,0,1.543-4.434A6.253,6.253,0,0,0-17.3-13.906a5.364,5.364,0,0,0-4.121-1.68,5.317,5.317,0,0,0-4.082,1.68A6.112,6.112,0,0,0-27.07-9.57Zm24.844-9.453V0H-6.621V-19.023Zm-5.059-7.91a2.722,2.722,0,0,1,.84-1.992,2.744,2.744,0,0,1,2.012-.84,2.767,2.767,0,0,1,2.031.84,2.7,2.7,0,0,1,.84,2.012,2.767,2.767,0,0,1-.84,2.031,2.7,2.7,0,0,1-2.012.84,2.767,2.767,0,0,1-2.031-.84A2.79,2.79,0,0,1-7.285-26.934ZM3.34-19.023H7.754v1.758a7.2,7.2,0,0,1,5.2-2.285,6.561,6.561,0,0,1,5.176,2.09q1.6,1.777,1.6,5.8V0H15.313V-10.625a6.968,6.968,0,0,0-.781-3.887,3.152,3.152,0,0,0-2.773-1.094A3.391,3.391,0,0,0,8.652-14.16q-.9,1.426-.9,4.98V0H3.34Zm26.465,4.1V0H25.41V-14.922H23.535v-4.1H25.41V-26H29.8v6.973h3.418v4.1Z" transform="translate(712.025 3823)" fill="#333"/></g></svg>